<!DOCTYPE svg PUBLIC "-//W3C//DTD SVG 1.1//EN" "http://www.w3.org/Graphics/SVG/1.1/DTD/svg11.dtd">
<svg style="stroke-linecap:square;" xmlns="http://www.w3.org/2000/svg" xmlns:xlink="http://www.w3.org/1999/xlink" width="1141" height="408">
<defs><clipPath id="clip-0"><path d="M 0 0 L 1141 0 L 1141 408 L 0 408 L 0 0 M 0 0"/></clipPath>
<clipPath id="clip-1"><path d="M 505.1 152.9 L 505.1 1293.9 L 97.1 1293.9 L 97.1 152.9 L 505.1 152.9 M 505.1 152.9"/></clipPath>
<clipPath id="clip-2"><path d="M 717.3 -59.3 L 717.3 1081.7 L 309.3 1081.7 L 309.3 -59.3 L 717.3 -59.3 M 717.3 -59.3"/></clipPath>
<clipPath id="clip-3"><path d="M 929.5 -271.5 L 929.5 869.5 L 521.5 869.5 L 521.5 -271.5 L 929.5 -271.5 M 929.5 -271.5"/></clipPath>
<clipPath id="clip-4"><path d="M 1141.7 -483.7 L 1141.7 657.3 L 733.7 657.3 L 733.7 -483.7 L 1141.7 -483.7 M 1141.7 -483.7"/></clipPath>
<clipPath id="clip-5"><path d="M 1353.9 -695.9 L 1353.9 445.1 L 945.9 445.1 L 945.9 -695.9 L 1353.9 -695.9 M 1353.9 -695.9"/></clipPath>
<clipPath id="clip-6"><path d="M 196.5 151.5 L 196.5 1292.5 L -211.5 1292.5 L -211.5 151.5 L 196.5 151.5 M 196.5 151.5"/></clipPath>
<clipPath id="clip-7"><path d="M 70 31 L 70 317 L 1131 317 L 1131 31 M 70 31"/></clipPath>
</defs>
<rect x="0" y="0" width="1141" height="408" style="fill: rgb(255,255,255);fill-opacity: 1" transform="matrix(1,0,0,1,0,0)" clip-path="url(#clip-0)"/><g transform="matrix(1,0,0,1,0,0)"><text x="478" y="15.62" style="fill: rgb(75,75,109); font-family: Cochin; font-size: 16px; font-weight: bold; " text-rendering="auto" clip-path="url(#clip-0)">5 Partie(s) triées par taille</text></g><rect x="70" y="31" width="1061" height="286" style="fill: rgb(255,255,255);fill-opacity: 1" transform="matrix(1,0,0,1,0,0)" clip-path="url(#clip-0)"/><line x1="70" y1="317" x2="1131" y2="317" style="stroke-width: 0.5;stroke: rgb(192,208,224);stroke-opacity: 1;" transform="matrix(1,0,0,1,0,0)" clip-path="url(#clip-0)"/><g style="fill: rgb(102,102,102);fill-opacity: 1; stroke: none" transform="matrix(0,-1,1,0,-152.899994,505.100006)" clip-path="url(#clip-1)"><path d="M 147.77 329.18 L 146.78 326.38 L 146.76 326.38 L 145.72 329.18 M 147.77 329.18 M 142.81 332.76 Q 143.15 332.72 143.37 332.62 Q 143.59 332.52 143.74 332.35 Q 143.89 332.18 144.01 331.96 Q 144.12 331.74 144.24 331.45 L 146.59 325.97 L 146.38 325.39 Q 146.76 325.32 147.13 325.22 Q 147.5 325.12 147.85 324.96 L 150.46 332.03 Q 150.6 332.41 150.96 332.59 Q 151.32 332.76 151.69 332.76 L 151.69 333.05 Q 151.46 333.04 151.18 333.02 Q 150.89 333.01 150.6 333.01 Q 150.31 333 150.02 333 Q 149.75 333 149.52 333 Q 149.02 333 148.52 333.01 Q 148.02 333.02 147.52 333.05 L 147.52 332.76 Q 148.14 332.71 148.44 332.56 Q 148.74 332.4 148.74 332.09 Q 148.74 331.98 148.7 331.81 Q 148.66 331.64 148.59 331.47 Q 148.52 331.3 148.46 331.12 Q 148.39 330.95 148.34 330.83 L 147.94 329.64 L 145.55 329.64 L 144.94 331.33 Q 144.88 331.5 144.81 331.66 Q 144.74 331.81 144.74 332.05 Q 144.74 332.2 144.85 332.32 Q 144.95 332.44 145.11 332.53 Q 145.27 332.62 145.46 332.68 Q 145.64 332.74 145.8 332.76 L 145.8 333.05 Q 145.42 333.02 145.03 333.01 Q 144.64 333 144.25 333 Q 143.89 333 143.53 333.01 Q 143.17 333.02 142.81 333.05 M 142.81 332.76 M 156.2 332.23 Q 155.66 332.69 155.1 332.94 Q 154.54 333.19 153.93 333.19 Q 153.39 333.19 152.89 333.03 Q 152.38 332.87 151.99 332.56 Q 151.6 332.24 151.36 331.79 Q 151.12 331.33 151.12 330.76 Q 151.12 330.18 151.36 329.72 Q 151.6 329.27 151.99 328.96 Q 152.38 328.64 152.89 328.48 Q 153.39 328.32 153.93 328.32 Q 154.15 328.32 154.33 328.34 Q 154.52 328.37 154.7 328.39 Q 154.88 328.42 155.05 328.44 Q 155.23 328.46 155.4 328.46 L 155.7 328.46 Q 155.7 328.64 155.7 328.91 Q 155.71 329.17 155.73 329.47 Q 155.74 329.76 155.77 330.05 Q 155.79 330.34 155.83 330.58 L 155.6 330.58 Q 155.5 330.32 155.36 330.01 Q 155.22 329.69 155.01 329.42 Q 154.8 329.15 154.52 328.96 Q 154.24 328.78 153.88 328.78 Q 153.3 328.78 152.98 329.2 Q 152.66 329.62 152.66 330.24 Q 152.66 330.72 152.79 331.13 Q 152.92 331.55 153.17 331.84 Q 153.42 332.14 153.76 332.3 Q 154.11 332.47 154.53 332.47 Q 154.92 332.47 155.23 332.35 Q 155.55 332.22 155.92 331.96 M 156.2 332.23 M 161.2 332.23 Q 160.66 332.69 160.1 332.94 Q 159.54 333.19 158.93 333.19 Q 158.39 333.19 157.89 333.03 Q 157.38 332.87 156.99 332.56 Q 156.6 332.24 156.36 331.79 Q 156.12 331.33 156.12 330.76 Q 156.12 330.18 156.36 329.72 Q 156.6 329.27 156.99 328.96 Q 157.38 328.64 157.89 328.48 Q 158.39 328.32 158.93 328.32 Q 159.15 328.32 159.33 328.34 Q 159.52 328.37 159.7 328.39 Q 159.88 328.42 160.05 328.44 Q 160.23 328.46 160.4 328.46 L 160.7 328.46 Q 160.7 328.64 160.7 328.91 Q 160.71 329.17 160.73 329.47 Q 160.74 329.76 160.77 330.05 Q 160.79 330.34 160.83 330.58 L 160.6 330.58 Q 160.5 330.32 160.36 330.01 Q 160.22 329.69 160.01 329.42 Q 159.8 329.15 159.52 328.96 Q 159.24 328.78 158.88 328.78 Q 158.3 328.78 157.98 329.2 Q 157.66 329.62 157.66 330.24 Q 157.66 330.72 157.79 331.13 Q 157.92 331.55 158.17 331.84 Q 158.42 332.14 158.76 332.3 Q 159.11 332.47 159.53 332.47 Q 159.92 332.47 160.23 332.35 Q 160.55 332.22 160.92 331.96 M 161.2 332.23 M 163.44 332.1 Q 163.44 332.53 163.7 332.67 Q 163.97 332.81 164.32 332.81 L 164.32 333.05 Q 164.16 333.04 164 333.03 Q 163.85 333.02 163.67 333.02 Q 163.49 333.01 163.26 333.01 Q 163.03 333 162.72 333 Q 162.13 333 161.78 333.01 Q 161.44 333.02 161.16 333.05 L 161.16 332.81 Q 161.5 332.81 161.76 332.67 Q 162.02 332.53 162.02 332.1 L 162.02 329.35 Q 162.02 329.04 161.82 328.9 Q 161.62 328.75 161.16 328.75 L 161.16 328.51 Q 161.81 328.49 162.41 328.43 Q 163.01 328.37 163.48 328.25 Q 163.46 328.55 163.45 328.84 Q 163.44 329.12 163.44 329.4 M 163.44 332.1 M 162.66 324.96 Q 163.04 324.96 163.31 325.22 Q 163.58 325.49 163.58 325.88 Q 163.58 326.28 163.31 326.54 Q 163.04 326.81 162.66 326.81 Q 162.28 326.81 162.01 326.54 Q 161.74 326.28 161.74 325.88 Q 161.74 325.49 162.01 325.22 Q 162.28 324.96 162.66 324.96 M 162.66 324.96 M 170.44 332.16 Q 170.44 332.47 170.64 332.62 Q 170.85 332.76 171.3 332.76 L 171.3 333 Q 170.66 333.02 170.06 333.05 Q 169.47 333.08 169.02 333.19 L 169.02 332.48 Q 168.64 332.76 168.2 332.98 Q 167.75 333.19 167.22 333.19 Q 166.58 333.19 166.18 332.8 Q 165.78 332.4 165.78 331.61 L 165.78 329.35 Q 165.78 328.75 164.99 328.75 L 164.99 328.51 Q 165.58 328.49 166.17 328.46 Q 166.76 328.43 167.2 328.32 L 167.2 331.52 Q 167.2 331.94 167.42 332.17 Q 167.63 332.4 168 332.4 Q 168.34 332.4 168.58 332.29 Q 168.82 332.18 169.02 331.99 L 169.02 329.35 Q 169.02 329.04 168.82 328.9 Q 168.62 328.75 168.16 328.75 L 168.16 328.51 Q 168.81 328.49 169.4 328.46 Q 170 328.43 170.44 328.32 M 170.44 332.16 M 171.63 331.32 Q 171.95 331.94 172.49 332.38 Q 173.02 332.81 173.75 332.81 Q 174.02 332.81 174.22 332.69 Q 174.42 332.57 174.42 332.29 Q 174.42 332.04 174.2 331.87 Q 173.98 331.7 173.65 331.57 Q 173.32 331.43 172.93 331.29 Q 172.54 331.15 172.21 330.95 Q 171.88 330.76 171.66 330.47 Q 171.44 330.18 171.44 329.75 Q 171.44 329.34 171.58 329.07 Q 171.72 328.8 171.96 328.63 Q 172.19 328.46 172.49 328.39 Q 172.79 328.32 173.09 328.32 Q 173.48 328.32 173.95 328.43 Q 174.42 328.54 174.87 328.54 Q 174.94 328.54 175.04 328.51 L 175.13 330 L 174.84 330 Q 174.74 329.78 174.56 329.56 Q 174.39 329.33 174.17 329.14 Q 173.94 328.96 173.69 328.83 Q 173.44 328.7 173.19 328.7 Q 172.94 328.7 172.73 328.81 Q 172.52 328.91 172.52 329.22 Q 172.52 329.47 172.73 329.64 Q 172.95 329.81 173.27 329.95 Q 173.6 330.08 173.97 330.22 Q 174.35 330.36 174.68 330.56 Q 175 330.76 175.22 331.04 Q 175.43 331.32 175.43 331.74 Q 175.43 332.15 175.28 332.42 Q 175.12 332.7 174.86 332.87 Q 174.6 333.05 174.27 333.12 Q 173.94 333.19 173.6 333.19 Q 173.04 333.19 172.5 333.09 Q 171.96 332.99 171.46 332.78 L 171.35 331.32 M 171.63 331.32"/></g><line x1="282.2" y1="322" x2="282.2" y2="317" style="stroke-width: 0.5;stroke: rgb(192,208,224);stroke-opacity: 1;" transform="matrix(1,0,0,1,0,0)" clip-path="url(#clip-0)"/><line x1="70" y1="322" x2="70" y2="317" style="stroke-width: 0.5;stroke: rgb(192,208,224);stroke-opacity: 1;" transform="matrix(1,0,0,1,0,0)" clip-path="url(#clip-0)"/><g style="fill: rgb(102,102,102);fill-opacity: 1; stroke: none" transform="matrix(0,-1,1,0,59.299988,717.299988)" clip-path="url(#clip-2)"><path d="M 345.53 328.92 Q 345.72 329 345.97 329.06 Q 346.21 329.12 346.44 329.12 Q 347.26 329.12 347.67 328.61 Q 348.08 328.1 348.08 327.32 Q 348.08 326.94 348 326.61 Q 347.92 326.28 347.74 326.03 Q 347.56 325.79 347.26 325.65 Q 346.97 325.51 346.55 325.51 Q 346.27 325.51 346.02 325.56 Q 345.77 325.61 345.53 325.7 M 345.53 328.92 M 343.92 326.81 Q 343.92 326.4 343.87 326.15 Q 343.82 325.9 343.69 325.75 Q 343.55 325.6 343.3 325.52 Q 343.04 325.45 342.64 325.42 L 342.64 325.13 Q 342.98 325.15 343.44 325.18 Q 343.9 325.2 344.46 325.2 Q 345.02 325.2 345.59 325.14 Q 346.16 325.08 346.76 325.08 Q 347.33 325.08 347.86 325.22 Q 348.38 325.37 348.79 325.66 Q 349.2 325.94 349.45 326.39 Q 349.69 326.84 349.69 327.46 Q 349.69 328 349.47 328.39 Q 349.25 328.78 348.88 329.04 Q 348.52 329.3 348.05 329.43 Q 347.59 329.56 347.1 329.56 Q 346.7 329.56 346.3 329.5 Q 345.9 329.44 345.53 329.29 L 345.53 331.39 Q 345.53 331.8 345.56 332.06 Q 345.6 332.32 345.73 332.47 Q 345.86 332.63 346.13 332.7 Q 346.39 332.77 346.86 332.81 L 346.86 333.05 Q 346.34 333.02 345.83 333.01 Q 345.32 333 344.81 333 Q 344.26 333 343.72 333.01 Q 343.18 333.02 342.64 333.05 L 342.64 332.81 Q 343.08 332.77 343.34 332.7 Q 343.6 332.63 343.72 332.47 Q 343.85 332.32 343.88 332.06 Q 343.92 331.8 343.92 331.39 M 343.92 326.81 M 351.86 331.68 Q 351.86 332.05 352.08 332.26 Q 352.29 332.47 352.68 332.47 Q 352.89 332.47 353.1 332.4 Q 353.31 332.33 353.48 332.17 Q 353.47 332 353.46 331.86 Q 353.46 331.72 353.46 331.56 Q 353.46 331.39 353.46 331.24 Q 353.47 331.08 353.48 330.91 Q 353.31 330.89 353.16 330.88 Q 353.01 330.86 352.84 330.86 Q 352.48 330.86 352.17 331.07 Q 351.86 331.27 351.86 331.68 M 351.86 331.68 M 353.48 329.59 Q 353.48 328.78 352.9 328.78 Q 352.7 328.78 352.57 328.85 Q 352.45 328.92 352.38 329.03 Q 352.32 329.15 352.29 329.29 Q 352.27 329.44 352.27 329.57 Q 352.27 329.69 352.27 329.77 Q 352.28 329.84 352.29 329.9 Q 351.85 329.81 351.46 329.72 Q 351.08 329.64 350.68 329.58 Q 350.73 329.2 350.92 328.95 Q 351.12 328.7 351.4 328.57 Q 351.68 328.43 352.02 328.37 Q 352.35 328.32 352.68 328.32 Q 353.06 328.32 353.46 328.39 Q 353.85 328.45 354.17 328.61 Q 354.49 328.78 354.69 329.05 Q 354.9 329.32 354.9 329.72 Q 354.9 329.94 354.88 330.2 Q 354.87 330.47 354.87 330.73 Q 354.86 330.98 354.85 331.22 Q 354.84 331.45 354.84 331.61 Q 354.84 331.87 354.93 332.09 Q 355.03 332.3 355.34 332.3 Q 355.54 332.3 355.71 332.2 Q 355.87 332.09 356.01 331.96 L 356.2 332.17 Q 356.06 332.29 355.89 332.47 Q 355.71 332.65 355.53 332.81 Q 355.34 332.96 355.14 333.08 Q 354.93 333.19 354.72 333.19 Q 354.42 333.19 354.13 332.98 Q 353.84 332.76 353.64 332.56 Q 353.19 332.83 352.7 333.01 Q 352.21 333.19 351.68 333.19 Q 351.43 333.19 351.18 333.11 Q 350.94 333.02 350.74 332.87 Q 350.55 332.72 350.44 332.52 Q 350.32 332.32 350.32 332.09 Q 350.32 331.51 350.64 331.19 Q 350.95 330.88 351.42 330.71 Q 351.9 330.55 352.45 330.52 Q 353 330.48 353.48 330.48 M 353.48 329.59 M 361.4 332.23 Q 360.86 332.69 360.3 332.94 Q 359.74 333.19 359.13 333.19 Q 358.59 333.19 358.09 333.03 Q 357.58 332.87 357.19 332.56 Q 356.8 332.24 356.56 331.79 Q 356.32 331.33 356.32 330.76 Q 356.32 330.18 356.56 329.72 Q 356.8 329.27 357.19 328.96 Q 357.58 328.64 358.09 328.48 Q 358.59 328.32 359.13 328.32 Q 359.35 328.32 359.53 328.34 Q 359.72 328.37 359.9 328.39 Q 360.08 328.42 360.25 328.44 Q 360.43 328.46 360.6 328.46 L 360.9 328.46 Q 360.9 328.64 360.9 328.91 Q 360.91 329.17 360.93 329.47 Q 360.94 329.76 360.97 330.05 Q 360.99 330.34 361.03 330.58 L 360.8 330.58 Q 360.7 330.32 360.56 330.01 Q 360.42 329.69 360.21 329.42 Q 360 329.15 359.72 328.96 Q 359.44 328.78 359.08 328.78 Q 358.5 328.78 358.18 329.2 Q 357.86 329.62 357.86 330.24 Q 357.86 330.72 357.99 331.13 Q 358.12 331.55 358.37 331.84 Q 358.62 332.14 358.96 332.3 Q 359.31 332.47 359.73 332.47 Q 360.12 332.47 360.43 332.35 Q 360.75 332.22 361.12 331.96 M 361.4 332.23 M 366.64 332.16 Q 366.64 332.47 366.84 332.62 Q 367.05 332.76 367.5 332.76 L 367.5 333 Q 366.86 333.02 366.26 333.05 Q 365.67 333.08 365.22 333.19 L 365.22 332.48 Q 364.84 332.76 364.4 332.98 Q 363.95 333.19 363.42 333.19 Q 362.78 333.19 362.38 332.8 Q 361.98 332.4 361.98 331.61 L 361.98 329.35 Q 361.98 328.75 361.19 328.75 L 361.19 328.51 Q 361.78 328.49 362.37 328.46 Q 362.96 328.43 363.4 328.32 L 363.4 331.52 Q 363.4 331.94 363.62 332.17 Q 363.83 332.4 364.2 332.4 Q 364.54 332.4 364.78 332.29 Q 365.02 332.18 365.22 331.99 L 365.22 329.35 Q 365.22 329.04 365.02 328.9 Q 364.82 328.75 364.36 328.75 L 364.36 328.51 Q 365.01 328.49 365.6 328.46 Q 366.2 328.43 366.64 328.32 M 366.64 332.16 M 373.24 328.7 Q 373.08 328.73 372.95 328.78 Q 372.82 328.82 372.68 328.97 Q 372.53 329.11 372.35 329.39 Q 372.17 329.68 371.91 330.16 Q 371.64 330.65 371.27 331.38 Q 370.9 332.11 370.37 333.17 L 369.66 333.17 Q 369.09 331.76 368.7 330.91 Q 368.32 330.05 368.03 329.57 Q 367.74 329.09 367.5 328.91 Q 367.26 328.74 366.98 328.7 L 366.98 328.46 Q 367.36 328.49 367.75 328.5 Q 368.14 328.51 368.52 328.51 Q 368.94 328.51 369.37 328.5 Q 369.8 328.49 370.22 328.46 L 370.22 328.7 Q 369.94 328.73 369.73 328.84 Q 369.52 328.96 369.52 329.21 Q 369.52 329.38 369.66 329.75 Q 369.81 330.13 369.99 330.56 Q 370.17 330.98 370.34 331.38 Q 370.52 331.78 370.58 331.97 Q 370.67 331.74 370.86 331.37 Q 371.06 331.01 371.25 330.61 Q 371.44 330.22 371.58 329.86 Q 371.72 329.5 371.72 329.28 Q 371.72 328.94 371.52 328.85 Q 371.33 328.75 371.06 328.7 L 371.06 328.46 Q 371.34 328.49 371.64 328.5 Q 371.93 328.51 372.22 328.51 Q 372.47 328.51 372.73 328.5 Q 372.99 328.49 373.24 328.46 M 373.24 328.7 M 375.64 332.1 Q 375.64 332.53 375.9 332.67 Q 376.17 332.81 376.52 332.81 L 376.52 333.05 Q 376.36 333.04 376.2 333.03 Q 376.05 333.02 375.87 333.02 Q 375.69 333.01 375.46 333.01 Q 375.23 333 374.92 333 Q 374.33 333 373.98 333.01 Q 373.64 333.02 373.36 333.05 L 373.36 332.81 Q 373.7 332.81 373.96 332.67 Q 374.22 332.53 374.22 332.1 L 374.22 329.35 Q 374.22 329.04 374.02 328.9 Q 373.82 328.75 373.36 328.75 L 373.36 328.51 Q 374.01 328.49 374.61 328.43 Q 375.21 328.37 375.68 328.25 Q 375.66 328.55 375.65 328.84 Q 375.64 329.12 375.64 329.4 M 375.64 332.1 M 374.86 324.96 Q 375.24 324.96 375.51 325.22 Q 375.78 325.49 375.78 325.88 Q 375.78 326.28 375.51 326.54 Q 375.24 326.81 374.86 326.81 Q 374.48 326.81 374.21 326.54 Q 373.94 326.28 373.94 325.88 Q 373.94 325.49 374.21 325.22 Q 374.48 324.96 374.86 324.96 M 374.86 324.96 M 382.64 332.16 Q 382.64 332.47 382.84 332.62 Q 383.05 332.76 383.5 332.76 L 383.5 333 Q 382.86 333.02 382.26 333.05 Q 381.67 333.08 381.22 333.19 L 381.22 332.48 Q 380.84 332.76 380.4 332.98 Q 379.95 333.19 379.42 333.19 Q 378.78 333.19 378.38 332.8 Q 377.98 332.4 377.98 331.61 L 377.98 329.35 Q 377.98 328.75 377.19 328.75 L 377.19 328.51 Q 377.78 328.49 378.37 328.46 Q 378.96 328.43 379.4 328.32 L 379.4 331.52 Q 379.4 331.94 379.62 332.17 Q 379.83 332.4 380.2 332.4 Q 380.54 332.4 380.78 332.29 Q 381.02 332.18 381.22 331.99 L 381.22 329.35 Q 381.22 329.04 381.02 328.9 Q 380.82 328.75 380.36 328.75 L 380.36 328.51 Q 381.01 328.49 381.6 328.46 Q 382.2 328.43 382.64 328.32 M 382.64 332.16 M 383.83 331.32 Q 384.15 331.94 384.69 332.38 Q 385.22 332.81 385.95 332.81 Q 386.22 332.81 386.42 332.69 Q 386.62 332.57 386.62 332.29 Q 386.62 332.04 386.4 331.87 Q 386.18 331.7 385.85 331.57 Q 385.52 331.43 385.13 331.29 Q 384.74 331.15 384.41 330.95 Q 384.08 330.76 383.86 330.47 Q 383.64 330.18 383.64 329.75 Q 383.64 329.34 383.78 329.07 Q 383.92 328.8 384.16 328.63 Q 384.39 328.46 384.69 328.39 Q 384.99 328.32 385.29 328.32 Q 385.68 328.32 386.15 328.43 Q 386.62 328.54 387.07 328.54 Q 387.14 328.54 387.24 328.51 L 387.33 330 L 387.04 330 Q 386.94 329.78 386.76 329.56 Q 386.59 329.33 386.37 329.14 Q 386.14 328.96 385.89 328.83 Q 385.64 328.7 385.39 328.7 Q 385.14 328.7 384.93 328.81 Q 384.72 328.91 384.72 329.22 Q 384.72 329.47 384.93 329.64 Q 385.15 329.81 385.47 329.95 Q 385.8 330.08 386.17 330.22 Q 386.55 330.36 386.88 330.56 Q 387.2 330.76 387.42 331.04 Q 387.63 331.32 387.63 331.74 Q 387.63 332.15 387.48 332.42 Q 387.32 332.7 387.06 332.87 Q 386.8 333.05 386.47 333.12 Q 386.14 333.19 385.8 333.19 Q 385.24 333.19 384.7 333.09 Q 384.16 332.99 383.66 332.78 L 383.55 331.32 M 383.83 331.32"/></g><line x1="494.4" y1="322" x2="494.4" y2="317" style="stroke-width: 0.5;stroke: rgb(192,208,224);stroke-opacity: 1;" transform="matrix(1,0,0,1,0,0)" clip-path="url(#clip-0)"/><g style="fill: rgb(102,102,102);fill-opacity: 1; stroke: none" transform="matrix(0,-1,1,0,271.5,929.5)" clip-path="url(#clip-3)"><path d="M 563.7 332.76 Q 564.11 332.74 564.36 332.66 Q 564.6 332.58 564.74 332.42 Q 564.87 332.26 564.91 332 Q 564.95 331.75 564.95 331.39 L 564.95 326.83 Q 564.95 326.5 564.91 326.24 Q 564.87 325.99 564.74 325.82 Q 564.6 325.66 564.36 325.57 Q 564.11 325.48 563.7 325.46 L 563.7 325.13 Q 564.32 325.15 564.93 325.18 Q 565.55 325.2 566.16 325.2 Q 567.33 325.2 568.48 325.18 Q 569.63 325.15 570.83 325.13 Q 570.82 325.34 570.82 325.56 Q 570.82 325.78 570.82 325.98 Q 570.82 326.35 570.83 326.71 Q 570.84 327.07 570.92 327.37 L 570.65 327.42 Q 570.36 326.51 569.73 326.05 Q 569.1 325.58 567.9 325.58 L 566.56 325.58 L 566.56 328.5 L 567.18 328.5 Q 567.5 328.5 567.8 328.42 Q 568.1 328.34 568.35 328.17 Q 568.61 328 568.8 327.71 Q 569 327.42 569.09 327 L 569.33 327 Q 569.32 327.42 569.3 327.85 Q 569.28 328.28 569.28 328.7 Q 569.28 329.14 569.3 329.56 Q 569.32 329.99 569.33 330.42 L 569.09 330.42 Q 569 329.98 568.82 329.68 Q 568.64 329.38 568.4 329.2 Q 568.16 329.02 567.85 328.94 Q 567.54 328.86 567.18 328.86 L 566.56 328.86 L 566.56 332.42 Q 566.85 332.51 567.2 332.55 Q 567.56 332.59 567.99 332.59 Q 569.16 332.59 570.11 332.03 Q 571.06 331.48 571.72 330.3 L 571.95 330.47 Q 571.65 331.1 571.38 331.74 Q 571.11 332.38 570.9 333.05 Q 569.97 333.02 569.04 333.01 Q 568.12 333 567.18 333 Q 566.61 333 566.07 333 Q 565.54 333 565.09 333.01 Q 564.64 333.01 564.29 333.02 Q 563.93 333.04 563.7 333.05 M 563.7 332.76 M 573.7 329.09 Q 574.12 328.73 574.54 328.52 Q 574.96 328.32 575.48 328.32 Q 576.22 328.32 576.64 328.73 Q 577.07 329.15 577.07 329.84 L 577.07 332.1 Q 577.07 332.32 577.14 332.45 Q 577.21 332.59 577.33 332.67 Q 577.44 332.75 577.58 332.78 Q 577.72 332.81 577.86 332.81 L 577.86 333.05 Q 577.61 333.04 577.29 333.02 Q 576.97 333 576.35 333 Q 575.76 333 575.42 333.01 Q 575.09 333.02 574.88 333.05 L 574.88 332.81 Q 575.02 332.81 575.15 332.78 Q 575.29 332.75 575.4 332.67 Q 575.51 332.59 575.58 332.45 Q 575.65 332.32 575.65 332.1 L 575.65 329.87 Q 575.65 329.52 575.39 329.3 Q 575.12 329.09 574.7 329.09 Q 574.42 329.09 574.16 329.22 Q 573.9 329.35 573.7 329.56 L 573.7 332.1 Q 573.7 332.32 573.77 332.45 Q 573.84 332.59 573.95 332.67 Q 574.07 332.75 574.21 332.78 Q 574.34 332.81 574.48 332.81 L 574.48 333.05 Q 574.36 333.04 574.22 333.03 Q 574.09 333.02 573.92 333.02 Q 573.74 333.01 573.52 333.01 Q 573.29 333 572.98 333 Q 572.39 333 572.05 333.01 Q 571.7 333.02 571.45 333.05 L 571.45 332.81 Q 571.61 332.81 571.76 332.78 Q 571.91 332.75 572.02 332.67 Q 572.14 332.59 572.21 332.45 Q 572.28 332.32 572.28 332.1 L 572.28 329.35 Q 572.28 328.75 571.49 328.75 L 571.49 328.51 Q 572.08 328.49 572.66 328.46 Q 573.25 328.43 573.7 328.32 M 573.7 329.09 M 580.7 329.09 Q 581.12 328.73 581.54 328.52 Q 581.96 328.32 582.48 328.32 Q 583.22 328.32 583.64 328.73 Q 584.07 329.15 584.07 329.84 L 584.07 332.1 Q 584.07 332.32 584.14 332.45 Q 584.21 332.59 584.33 332.67 Q 584.44 332.75 584.58 332.78 Q 584.72 332.81 584.86 332.81 L 584.86 333.05 Q 584.61 333.04 584.29 333.02 Q 583.97 333 583.35 333 Q 582.76 333 582.42 333.01 Q 582.09 333.02 581.88 333.05 L 581.88 332.81 Q 582.02 332.81 582.15 332.78 Q 582.29 332.75 582.4 332.67 Q 582.51 332.59 582.58 332.45 Q 582.65 332.32 582.65 332.1 L 582.65 329.87 Q 582.65 329.52 582.39 329.3 Q 582.12 329.09 581.7 329.09 Q 581.42 329.09 581.16 329.22 Q 580.9 329.35 580.7 329.56 L 580.7 332.1 Q 580.7 332.32 580.77 332.45 Q 580.84 332.59 580.95 332.67 Q 581.07 332.75 581.21 332.78 Q 581.34 332.81 581.48 332.81 L 581.48 333.05 Q 581.36 333.04 581.22 333.03 Q 581.09 333.02 580.92 333.02 Q 580.74 333.01 580.52 333.01 Q 580.29 333 579.98 333 Q 579.39 333 579.05 333.01 Q 578.7 333.02 578.45 333.05 L 578.45 332.81 Q 578.61 332.81 578.76 332.78 Q 578.91 332.75 579.02 332.67 Q 579.14 332.59 579.21 332.45 Q 579.28 332.32 579.28 332.1 L 579.28 329.35 Q 579.28 328.75 578.49 328.75 L 578.49 328.51 Q 579.08 328.49 579.66 328.46 Q 580.25 328.43 580.7 328.32 M 580.7 329.09 M 587.84 332.1 Q 587.84 332.53 588.1 332.67 Q 588.37 332.81 588.72 332.81 L 588.72 333.05 Q 588.56 333.04 588.4 333.03 Q 588.25 333.02 588.07 333.02 Q 587.89 333.01 587.66 333.01 Q 587.43 333 587.12 333 Q 586.53 333 586.18 333.01 Q 585.84 333.02 585.56 333.05 L 585.56 332.81 Q 585.9 332.81 586.16 332.67 Q 586.42 332.53 586.42 332.1 L 586.42 329.35 Q 586.42 329.04 586.22 328.9 Q 586.02 328.75 585.56 328.75 L 585.56 328.51 Q 586.21 328.49 586.81 328.43 Q 587.41 328.37 587.88 328.25 Q 587.86 328.55 587.85 328.84 Q 587.84 329.12 587.84 329.4 M 587.84 332.1 M 587.06 324.96 Q 587.44 324.96 587.71 325.22 Q 587.98 325.49 587.98 325.88 Q 587.98 326.28 587.71 326.54 Q 587.44 326.81 587.06 326.81 Q 586.68 326.81 586.41 326.54 Q 586.14 326.28 586.14 325.88 Q 586.14 325.49 586.41 325.22 Q 586.68 324.96 587.06 324.96 M 587.06 324.96 M 594.84 332.16 Q 594.84 332.47 595.04 332.62 Q 595.25 332.76 595.7 332.76 L 595.7 333 Q 595.06 333.02 594.46 333.05 Q 593.87 333.08 593.42 333.19 L 593.42 332.48 Q 593.04 332.76 592.6 332.98 Q 592.15 333.19 591.62 333.19 Q 590.98 333.19 590.58 332.8 Q 590.18 332.4 590.18 331.61 L 590.18 329.35 Q 590.18 328.75 589.39 328.75 L 589.39 328.51 Q 589.98 328.49 590.57 328.46 Q 591.16 328.43 591.6 328.32 L 591.6 331.52 Q 591.6 331.94 591.82 332.17 Q 592.03 332.4 592.4 332.4 Q 592.74 332.4 592.98 332.29 Q 593.22 332.18 593.42 331.99 L 593.42 329.35 Q 593.42 329.04 593.22 328.9 Q 593.02 328.75 592.56 328.75 L 592.56 328.51 Q 593.21 328.49 593.8 328.46 Q 594.4 328.43 594.84 328.32 M 594.84 332.16 M 596.03 331.32 Q 596.35 331.94 596.89 332.38 Q 597.42 332.81 598.15 332.81 Q 598.42 332.81 598.62 332.69 Q 598.82 332.57 598.82 332.29 Q 598.82 332.04 598.6 331.87 Q 598.38 331.7 598.05 331.57 Q 597.72 331.43 597.33 331.29 Q 596.94 331.15 596.61 330.95 Q 596.28 330.76 596.06 330.47 Q 595.84 330.18 595.84 329.75 Q 595.84 329.34 595.98 329.07 Q 596.12 328.8 596.36 328.63 Q 596.59 328.46 596.89 328.39 Q 597.19 328.32 597.49 328.32 Q 597.88 328.32 598.35 328.43 Q 598.82 328.54 599.27 328.54 Q 599.34 328.54 599.44 328.51 L 599.53 330 L 599.24 330 Q 599.14 329.78 598.96 329.56 Q 598.79 329.33 598.57 329.14 Q 598.34 328.96 598.09 328.83 Q 597.84 328.7 597.59 328.7 Q 597.34 328.7 597.13 328.81 Q 596.92 328.91 596.92 329.22 Q 596.92 329.47 597.13 329.64 Q 597.35 329.81 597.67 329.95 Q 598 330.08 598.37 330.22 Q 598.75 330.36 599.08 330.56 Q 599.4 330.76 599.62 331.04 Q 599.83 331.32 599.83 331.74 Q 599.83 332.15 599.68 332.42 Q 599.52 332.7 599.26 332.87 Q 599 333.05 598.67 333.12 Q 598.34 333.19 598 333.19 Q 597.44 333.19 596.9 333.09 Q 596.36 332.99 595.86 332.78 L 595.75 331.32 M 596.03 331.32"/></g><line x1="706.6" y1="322" x2="706.6" y2="317" style="stroke-width: 0.5;stroke: rgb(192,208,224);stroke-opacity: 1;" transform="matrix(1,0,0,1,0,0)" clip-path="url(#clip-0)"/><g style="fill: rgb(102,102,102);fill-opacity: 1; stroke: none" transform="matrix(0,-1,1,0,483.700012,1141.700012)" clip-path="url(#clip-4)"><path d="M 773.7 332.76 Q 774.26 332.68 774.59 332.58 Q 774.91 332.48 775.08 332.29 Q 775.25 332.09 775.3 331.76 Q 775.34 331.44 775.34 330.9 L 775.39 326.23 Q 775.24 326.05 775.04 325.92 Q 774.84 325.79 774.62 325.7 Q 774.41 325.61 774.18 325.54 Q 773.95 325.48 773.72 325.42 L 773.72 325.13 Q 774.04 325.15 774.35 325.18 Q 774.67 325.2 774.98 325.2 Q 775.81 325.2 776.62 325.13 Q 777.82 326.62 779.05 328.03 Q 780.28 329.45 781.42 330.97 L 781.44 330.97 Q 781.44 330.58 781.44 330 Q 781.44 329.41 781.42 328.78 Q 781.4 328.15 781.37 327.56 Q 781.33 326.96 781.26 326.56 Q 781.21 326.24 781.1 326.05 Q 780.98 325.85 780.8 325.72 Q 780.62 325.6 780.39 325.53 Q 780.16 325.46 779.87 325.42 L 779.87 325.13 Q 780.29 325.15 780.71 325.18 Q 781.14 325.2 781.56 325.2 Q 782.4 325.2 783.23 325.13 L 783.23 325.42 Q 782.76 325.44 782.48 325.55 Q 782.21 325.66 782.07 325.91 Q 781.93 326.16 781.89 326.59 Q 781.85 327.01 781.85 327.67 L 781.85 333.18 L 781.14 333.18 Q 780.78 332.63 780.32 332 Q 779.87 331.38 779.37 330.75 Q 778.87 330.12 778.36 329.51 Q 777.85 328.9 777.38 328.36 Q 776.92 327.82 776.52 327.37 Q 776.12 326.92 775.85 326.63 L 775.85 330.7 Q 775.85 331.31 775.9 331.67 Q 775.94 332.04 776.11 332.26 Q 776.27 332.47 776.58 332.57 Q 776.89 332.68 777.42 332.76 L 777.42 333.05 Q 776.98 333.02 776.54 333.01 Q 776.11 333 775.67 333 Q 775.16 333 774.68 333.01 Q 774.2 333.02 773.7 333.05 M 773.7 332.76 M 788.28 330.73 Q 788.28 331.09 788.4 331.41 Q 788.52 331.73 788.73 331.96 Q 788.93 332.2 789.22 332.33 Q 789.51 332.47 789.84 332.47 Q 790.36 332.47 790.74 332.26 Q 791.13 332.05 791.44 331.78 L 791.63 332.1 Q 791.1 332.64 790.51 332.92 Q 789.92 333.19 789.1 333.19 Q 788.6 333.19 788.08 332.99 Q 787.56 332.8 787.25 332.39 Q 786.83 332.74 786.29 332.96 Q 785.74 333.19 785.2 333.19 Q 784.91 333.19 784.65 333.13 Q 784.38 333.07 784.17 332.93 Q 783.96 332.78 783.84 332.56 Q 783.72 332.34 783.72 332.02 Q 783.72 331.3 784.49 330.89 Q 785.26 330.48 786.8 330.48 L 786.8 329.34 Q 786.8 329.1 786.65 328.94 Q 786.51 328.78 786.27 328.78 Q 785.96 328.78 785.76 328.97 Q 785.56 329.16 785.56 329.47 Q 785.56 329.6 785.56 329.71 Q 785.56 329.82 785.58 329.92 Q 785.19 329.78 784.77 329.75 Q 784.36 329.71 784.02 329.7 Q 784.05 329.34 784.23 329.08 Q 784.41 328.81 784.71 328.64 Q 785.01 328.48 785.42 328.4 Q 785.84 328.32 786.32 328.32 Q 786.68 328.32 787.1 328.44 Q 787.52 328.56 787.79 328.8 Q 788.18 328.55 788.54 328.43 Q 788.9 328.32 789.36 328.32 Q 789.87 328.32 790.29 328.51 Q 790.71 328.69 791 329.02 Q 791.3 329.34 791.46 329.78 Q 791.63 330.23 791.64 330.73 M 788.28 330.73 M 785.19 331.69 Q 785.19 332.1 785.44 332.29 Q 785.69 332.47 786.05 332.47 Q 786.34 332.47 786.59 332.35 Q 786.83 332.23 787.04 332.03 Q 786.9 331.75 786.85 331.46 Q 786.8 331.16 786.8 330.89 Q 786.7 330.88 786.6 330.87 Q 786.5 330.86 786.39 330.86 Q 786.17 330.86 785.96 330.91 Q 785.75 330.95 785.58 331.04 Q 785.4 331.14 785.3 331.3 Q 785.19 331.45 785.19 331.69 M 785.19 331.69 M 789.84 330.28 Q 790.06 330.28 790.11 330.18 Q 790.16 330.08 790.16 329.92 Q 790.16 329.74 790.11 329.54 Q 790.06 329.34 789.95 329.17 Q 789.84 328.99 789.68 328.88 Q 789.52 328.78 789.3 328.78 Q 788.98 328.78 788.78 328.92 Q 788.57 329.06 788.46 329.29 Q 788.34 329.51 788.3 329.77 Q 788.26 330.02 788.26 330.26 M 789.84 330.28 M 797.64 328.7 Q 797.48 328.73 797.35 328.78 Q 797.22 328.82 797.08 328.97 Q 796.93 329.11 796.75 329.39 Q 796.57 329.68 796.31 330.16 Q 796.04 330.65 795.67 331.38 Q 795.3 332.11 794.77 333.17 L 794.06 333.17 Q 793.49 331.76 793.1 330.91 Q 792.72 330.05 792.43 329.57 Q 792.14 329.09 791.9 328.91 Q 791.66 328.74 791.38 328.7 L 791.38 328.46 Q 791.76 328.49 792.15 328.5 Q 792.54 328.51 792.92 328.51 Q 793.34 328.51 793.77 328.5 Q 794.2 328.49 794.62 328.46 L 794.62 328.7 Q 794.34 328.73 794.13 328.84 Q 793.92 328.96 793.92 329.21 Q 793.92 329.38 794.06 329.75 Q 794.21 330.13 794.39 330.56 Q 794.57 330.98 794.74 331.38 Q 794.92 331.78 794.98 331.97 Q 795.07 331.74 795.26 331.37 Q 795.46 331.01 795.65 330.61 Q 795.84 330.22 795.98 329.86 Q 796.12 329.5 796.12 329.28 Q 796.12 328.94 795.92 328.85 Q 795.73 328.75 795.46 328.7 L 795.46 328.46 Q 795.74 328.49 796.04 328.5 Q 796.33 328.51 796.62 328.51 Q 796.87 328.51 797.13 328.5 Q 797.39 328.49 797.64 328.46 M 797.64 328.7 M 800.04 332.1 Q 800.04 332.53 800.3 332.67 Q 800.57 332.81 800.92 332.81 L 800.92 333.05 Q 800.76 333.04 800.6 333.03 Q 800.45 333.02 800.27 333.02 Q 800.09 333.01 799.86 333.01 Q 799.63 333 799.32 333 Q 798.73 333 798.38 333.01 Q 798.04 333.02 797.76 333.05 L 797.76 332.81 Q 798.1 332.81 798.36 332.67 Q 798.62 332.53 798.62 332.1 L 798.62 329.35 Q 798.62 329.04 798.42 328.9 Q 798.22 328.75 797.76 328.75 L 797.76 328.51 Q 798.41 328.49 799.01 328.43 Q 799.61 328.37 800.08 328.25 Q 800.06 328.55 800.05 328.84 Q 800.04 329.12 800.04 329.4 M 800.04 332.1 M 799.26 324.96 Q 799.64 324.96 799.91 325.22 Q 800.18 325.49 800.18 325.88 Q 800.18 326.28 799.91 326.54 Q 799.64 326.81 799.26 326.81 Q 798.88 326.81 798.61 326.54 Q 798.34 326.28 798.34 325.88 Q 798.34 325.49 798.61 325.22 Q 798.88 324.96 799.26 324.96 M 799.26 324.96 M 807.04 332.16 Q 807.04 332.47 807.24 332.62 Q 807.45 332.76 807.9 332.76 L 807.9 333 Q 807.26 333.02 806.66 333.05 Q 806.07 333.08 805.62 333.19 L 805.62 332.48 Q 805.24 332.76 804.8 332.98 Q 804.35 333.19 803.82 333.19 Q 803.18 333.19 802.78 332.8 Q 802.38 332.4 802.38 331.61 L 802.38 329.35 Q 802.38 328.75 801.59 328.75 L 801.59 328.51 Q 802.18 328.49 802.77 328.46 Q 803.36 328.43 803.8 328.32 L 803.8 331.52 Q 803.8 331.94 804.02 332.17 Q 804.23 332.4 804.6 332.4 Q 804.94 332.4 805.18 332.29 Q 805.42 332.18 805.62 331.99 L 805.62 329.35 Q 805.62 329.04 805.42 328.9 Q 805.22 328.75 804.76 328.75 L 804.76 328.51 Q 805.41 328.49 806 328.46 Q 806.6 328.43 807.04 328.32 M 807.04 332.16 M 808.23 331.32 Q 808.55 331.94 809.09 332.38 Q 809.62 332.81 810.35 332.81 Q 810.62 332.81 810.82 332.69 Q 811.02 332.57 811.02 332.29 Q 811.02 332.04 810.8 331.87 Q 810.58 331.7 810.25 331.57 Q 809.92 331.43 809.53 331.29 Q 809.14 331.15 808.81 330.95 Q 808.48 330.76 808.26 330.47 Q 808.04 330.18 808.04 329.75 Q 808.04 329.34 808.18 329.07 Q 808.32 328.8 808.56 328.63 Q 808.79 328.46 809.09 328.39 Q 809.39 328.32 809.69 328.32 Q 810.08 328.32 810.55 328.43 Q 811.02 328.54 811.47 328.54 Q 811.54 328.54 811.64 328.51 L 811.73 330 L 811.44 330 Q 811.34 329.78 811.16 329.56 Q 810.99 329.33 810.77 329.14 Q 810.54 328.96 810.29 328.83 Q 810.04 328.7 809.79 328.7 Q 809.54 328.7 809.33 328.81 Q 809.12 328.91 809.12 329.22 Q 809.12 329.47 809.33 329.64 Q 809.55 329.81 809.87 329.95 Q 810.2 330.08 810.57 330.22 Q 810.95 330.36 811.28 330.56 Q 811.6 330.76 811.82 331.04 Q 812.03 331.32 812.03 331.74 Q 812.03 332.15 811.88 332.42 Q 811.72 332.7 811.46 332.87 Q 811.2 333.05 810.87 333.12 Q 810.54 333.19 810.2 333.19 Q 809.64 333.19 809.1 333.09 Q 808.56 332.99 808.06 332.78 L 807.95 331.32 M 808.23 331.32"/></g><line x1="918.8" y1="322" x2="918.8" y2="317" style="stroke-width: 0.5;stroke: rgb(192,208,224);stroke-opacity: 1;" transform="matrix(1,0,0,1,0,0)" clip-path="url(#clip-0)"/><g style="fill: rgb(102,102,102);fill-opacity: 1; stroke: none" transform="matrix(0,-1,1,0,695.900024,1353.900024)" clip-path="url(#clip-5)"><path d="M 993.42 326.58 Q 993.42 326.24 993.33 326.04 Q 993.24 325.84 993.08 325.71 Q 992.92 325.58 992.69 325.52 Q 992.46 325.45 992.18 325.42 L 992.18 325.13 Q 993.26 325.2 994.35 325.2 Q 995.45 325.2 996.57 325.13 L 996.57 325.42 Q 996.29 325.45 996.02 325.52 Q 995.74 325.58 995.52 325.71 Q 995.31 325.84 995.17 326.04 Q 995.03 326.24 995.03 326.58 L 995.03 332.51 Q 995.2 332.56 995.5 332.57 Q 995.8 332.59 996.15 332.59 Q 996.82 332.59 997.32 332.46 Q 997.83 332.33 998.24 332.05 Q 998.64 331.76 998.97 331.34 Q 999.29 330.91 999.59 330.34 L 999.89 330.47 Q 999.58 331.09 999.35 331.73 Q 999.11 332.38 998.94 333.05 Q 998.12 333.02 997.28 333.01 Q 996.45 333 995.62 333 Q 994.76 333 993.89 333.01 Q 993.02 333.02 992.15 333.05 L 992.15 332.76 Q 992.39 332.76 992.62 332.74 Q 992.85 332.71 993.03 332.62 Q 993.21 332.53 993.32 332.36 Q 993.42 332.2 993.42 331.91 M 993.42 326.58 M 1002.24 332.1 Q 1002.24 332.53 1002.5 332.67 Q 1002.77 332.81 1003.12 332.81 L 1003.12 333.05 Q 1002.96 333.04 1002.8 333.03 Q 1002.65 333.02 1002.47 333.02 Q 1002.29 333.01 1002.06 333.01 Q 1001.83 333 1001.52 333 Q 1000.93 333 1000.58 333.01 Q 1000.24 333.02 999.96 333.05 L 999.96 332.81 Q 1000.3 332.81 1000.56 332.67 Q 1000.82 332.53 1000.82 332.1 L 1000.82 329.35 Q 1000.82 329.04 1000.62 328.9 Q 1000.42 328.75 999.96 328.75 L 999.96 328.51 Q 1000.61 328.49 1001.21 328.43 Q 1001.81 328.37 1002.28 328.25 Q 1002.26 328.55 1002.25 328.84 Q 1002.24 329.12 1002.24 329.4 M 1002.24 332.1 M 1001.46 324.96 Q 1001.84 324.96 1002.11 325.22 Q 1002.38 325.49 1002.38 325.88 Q 1002.38 326.28 1002.11 326.54 Q 1001.84 326.81 1001.46 326.81 Q 1001.08 326.81 1000.81 326.54 Q 1000.54 326.28 1000.54 325.88 Q 1000.54 325.49 1000.81 325.22 Q 1001.08 324.96 1001.46 324.96 M 1001.46 324.96 M 1009.84 328.7 Q 1009.68 328.73 1009.55 328.78 Q 1009.42 328.82 1009.28 328.97 Q 1009.13 329.11 1008.95 329.39 Q 1008.77 329.68 1008.51 330.16 Q 1008.24 330.65 1007.87 331.38 Q 1007.5 332.11 1006.97 333.17 L 1006.26 333.17 Q 1005.69 331.76 1005.3 330.91 Q 1004.92 330.05 1004.63 329.57 Q 1004.34 329.09 1004.1 328.91 Q 1003.86 328.74 1003.58 328.7 L 1003.58 328.46 Q 1003.96 328.49 1004.35 328.5 Q 1004.74 328.51 1005.12 328.51 Q 1005.54 328.51 1005.97 328.5 Q 1006.4 328.49 1006.82 328.46 L 1006.82 328.7 Q 1006.54 328.73 1006.33 328.84 Q 1006.12 328.96 1006.12 329.21 Q 1006.12 329.38 1006.26 329.75 Q 1006.41 330.13 1006.59 330.56 Q 1006.77 330.98 1006.94 331.38 Q 1007.12 331.78 1007.18 331.97 Q 1007.27 331.74 1007.46 331.37 Q 1007.66 331.01 1007.85 330.61 Q 1008.04 330.22 1008.18 329.86 Q 1008.32 329.5 1008.32 329.28 Q 1008.32 328.94 1008.12 328.85 Q 1007.93 328.75 1007.66 328.7 L 1007.66 328.46 Q 1007.94 328.49 1008.24 328.5 Q 1008.53 328.51 1008.82 328.51 Q 1009.07 328.51 1009.33 328.5 Q 1009.59 328.49 1009.84 328.46 M 1009.84 328.7 M 1012.24 332.1 Q 1012.24 332.53 1012.5 332.67 Q 1012.77 332.81 1013.12 332.81 L 1013.12 333.05 Q 1012.96 333.04 1012.8 333.03 Q 1012.65 333.02 1012.47 333.02 Q 1012.29 333.01 1012.06 333.01 Q 1011.83 333 1011.52 333 Q 1010.93 333 1010.58 333.01 Q 1010.24 333.02 1009.96 333.05 L 1009.96 332.81 Q 1010.3 332.81 1010.56 332.67 Q 1010.82 332.53 1010.82 332.1 L 1010.82 329.35 Q 1010.82 329.04 1010.62 328.9 Q 1010.42 328.75 1009.96 328.75 L 1009.96 328.51 Q 1010.61 328.49 1011.21 328.43 Q 1011.81 328.37 1012.28 328.25 Q 1012.26 328.55 1012.25 328.84 Q 1012.24 329.12 1012.24 329.4 M 1012.24 332.1 M 1011.46 324.96 Q 1011.84 324.96 1012.11 325.22 Q 1012.38 325.49 1012.38 325.88 Q 1012.38 326.28 1012.11 326.54 Q 1011.84 326.81 1011.46 326.81 Q 1011.08 326.81 1010.81 326.54 Q 1010.54 326.28 1010.54 325.88 Q 1010.54 325.49 1010.81 325.22 Q 1011.08 324.96 1011.46 324.96 M 1011.46 324.96 M 1019.24 332.16 Q 1019.24 332.47 1019.44 332.62 Q 1019.65 332.76 1020.1 332.76 L 1020.1 333 Q 1019.46 333.02 1018.86 333.05 Q 1018.27 333.08 1017.82 333.19 L 1017.82 332.48 Q 1017.44 332.76 1017 332.98 Q 1016.55 333.19 1016.02 333.19 Q 1015.38 333.19 1014.98 332.8 Q 1014.58 332.4 1014.58 331.61 L 1014.58 329.35 Q 1014.58 328.75 1013.79 328.75 L 1013.79 328.51 Q 1014.38 328.49 1014.97 328.46 Q 1015.56 328.43 1016 328.32 L 1016 331.52 Q 1016 331.94 1016.22 332.17 Q 1016.43 332.4 1016.8 332.4 Q 1017.14 332.4 1017.38 332.29 Q 1017.62 332.18 1017.82 331.99 L 1017.82 329.35 Q 1017.82 329.04 1017.62 328.9 Q 1017.42 328.75 1016.96 328.75 L 1016.96 328.51 Q 1017.61 328.49 1018.2 328.46 Q 1018.8 328.43 1019.24 328.32 M 1019.24 332.16 M 1020.43 331.32 Q 1020.75 331.94 1021.29 332.38 Q 1021.82 332.81 1022.55 332.81 Q 1022.82 332.81 1023.02 332.69 Q 1023.22 332.57 1023.22 332.29 Q 1023.22 332.04 1023 331.87 Q 1022.78 331.7 1022.45 331.57 Q 1022.12 331.43 1021.73 331.29 Q 1021.34 331.15 1021.01 330.95 Q 1020.68 330.76 1020.46 330.47 Q 1020.24 330.18 1020.24 329.75 Q 1020.24 329.34 1020.38 329.07 Q 1020.52 328.8 1020.76 328.63 Q 1020.99 328.46 1021.29 328.39 Q 1021.59 328.32 1021.89 328.32 Q 1022.28 328.32 1022.75 328.43 Q 1023.22 328.54 1023.67 328.54 Q 1023.74 328.54 1023.84 328.51 L 1023.93 330 L 1023.64 330 Q 1023.54 329.78 1023.36 329.56 Q 1023.19 329.33 1022.97 329.14 Q 1022.74 328.96 1022.49 328.83 Q 1022.24 328.7 1021.99 328.7 Q 1021.74 328.7 1021.53 328.81 Q 1021.32 328.91 1021.32 329.22 Q 1021.32 329.47 1021.53 329.64 Q 1021.75 329.81 1022.07 329.95 Q 1022.4 330.08 1022.77 330.22 Q 1023.15 330.36 1023.48 330.56 Q 1023.8 330.76 1024.02 331.04 Q 1024.23 331.32 1024.23 331.74 Q 1024.23 332.15 1024.08 332.42 Q 1023.92 332.7 1023.66 332.87 Q 1023.4 333.05 1023.07 333.12 Q 1022.74 333.19 1022.4 333.19 Q 1021.84 333.19 1021.3 333.09 Q 1020.76 332.99 1020.26 332.78 L 1020.15 331.32 M 1020.43 331.32"/></g><line x1="1131" y1="322" x2="1131" y2="317" style="stroke-width: 0.5;stroke: rgb(192,208,224);stroke-opacity: 1;" transform="matrix(1,0,0,1,0,0)" clip-path="url(#clip-0)"/><g transform="matrix(1,0,0,1,0,0)"><text x="576" y="391" style="fill: rgb(77,117,158); font-family: Cochin; font-size: 16px; font-weight: bold; " text-rendering="auto" clip-path="url(#clip-0)">Auteur</text></g><g transform="matrix(1,0,0,1,0,0)"><text x="58" y="321" style="fill: rgb(102,102,102); font-family: Cochin; font-size: 12px; font-weight: bold; " text-rendering="auto" clip-path="url(#clip-0)">0</text></g><g transform="matrix(1,0,0,1,0,0)"><text x="46" y="302.84" style="fill: rgb(102,102,102); font-family: Cochin; font-size: 12px; font-weight: bold; " text-rendering="auto" clip-path="url(#clip-0)">200</text></g><g transform="matrix(1,0,0,1,0,0)"><text x="46" y="284.68" style="fill: rgb(102,102,102); font-family: Cochin; font-size: 12px; font-weight: bold; " text-rendering="auto" clip-path="url(#clip-0)">400</text></g><g transform="matrix(1,0,0,1,0,0)"><text x="46" y="266.52" style="fill: rgb(102,102,102); font-family: Cochin; font-size: 12px; font-weight: bold; " text-rendering="auto" clip-path="url(#clip-0)">600</text></g><g transform="matrix(1,0,0,1,0,0)"><text x="46" y="248.37" style="fill: rgb(102,102,102); font-family: Cochin; font-size: 12px; font-weight: bold; " text-rendering="auto" clip-path="url(#clip-0)">800</text></g><g transform="matrix(1,0,0,1,0,0)"><text x="37" y="230.21" style="fill: rgb(102,102,102); font-family: Cochin; font-size: 12px; font-weight: bold; " text-rendering="auto" clip-path="url(#clip-0)">1&apos;000</text></g><g transform="matrix(1,0,0,1,0,0)"><text x="37" y="212.05" style="fill: rgb(102,102,102); font-family: Cochin; font-size: 12px; font-weight: bold; " text-rendering="auto" clip-path="url(#clip-0)">1&apos;200</text></g><g transform="matrix(1,0,0,1,0,0)"><text x="37" y="193.89" style="fill: rgb(102,102,102); font-family: Cochin; font-size: 12px; font-weight: bold; " text-rendering="auto" clip-path="url(#clip-0)">1&apos;400</text></g><g transform="matrix(1,0,0,1,0,0)"><text x="37" y="175.73" style="fill: rgb(102,102,102); font-family: Cochin; font-size: 12px; font-weight: bold; " text-rendering="auto" clip-path="url(#clip-0)">1&apos;600</text></g><g transform="matrix(1,0,0,1,0,0)"><text x="37" y="157.57" style="fill: rgb(102,102,102); font-family: Cochin; font-size: 12px; font-weight: bold; " text-rendering="auto" clip-path="url(#clip-0)">1&apos;800</text></g><g transform="matrix(1,0,0,1,0,0)"><text x="37" y="139.41" style="fill: rgb(102,102,102); font-family: Cochin; font-size: 12px; font-weight: bold; " text-rendering="auto" clip-path="url(#clip-0)">2&apos;000</text></g><g transform="matrix(1,0,0,1,0,0)"><text x="37" y="121.25" style="fill: rgb(102,102,102); font-family: Cochin; font-size: 12px; font-weight: bold; " text-rendering="auto" clip-path="url(#clip-0)">2&apos;200</text></g><g transform="matrix(1,0,0,1,0,0)"><text x="37" y="103.1" style="fill: rgb(102,102,102); font-family: Cochin; font-size: 12px; font-weight: bold; " text-rendering="auto" clip-path="url(#clip-0)">2&apos;400</text></g><g transform="matrix(1,0,0,1,0,0)"><text x="37" y="84.94" style="fill: rgb(102,102,102); font-family: Cochin; font-size: 12px; font-weight: bold; " text-rendering="auto" clip-path="url(#clip-0)">2&apos;600</text></g><g transform="matrix(1,0,0,1,0,0)"><text x="37" y="66.78" style="fill: rgb(102,102,102); font-family: Cochin; font-size: 12px; font-weight: bold; " text-rendering="auto" clip-path="url(#clip-0)">2&apos;800</text></g><g transform="matrix(1,0,0,1,0,0)"><text x="37" y="48.62" style="fill: rgb(102,102,102); font-family: Cochin; font-size: 12px; font-weight: bold; " text-rendering="auto" clip-path="url(#clip-0)">3&apos;000</text></g><g style="fill: rgb(77,117,158);fill-opacity: 1; stroke: none" transform="matrix(0,-1,1,0,-151.5,196.5)" clip-path="url(#clip-6)"><path d="M -35 179.18 Q -34.25 179.07 -33.82 178.94 Q -33.38 178.81 -33.16 178.55 Q -32.94 178.28 -32.87 177.85 Q -32.81 177.42 -32.81 176.7 L -32.74 170.48 Q -32.95 170.24 -33.22 170.06 Q -33.48 169.88 -33.77 169.76 Q -34.06 169.64 -34.36 169.56 Q -34.66 169.47 -34.97 169.39 L -34.97 169 Q -34.55 169.04 -34.13 169.07 Q -33.7 169.1 -33.29 169.1 Q -32.18 169.1 -31.11 169 Q -29.51 170.99 -27.87 172.88 Q -26.23 174.76 -24.71 176.8 L -24.68 176.8 Q -24.68 176.27 -24.68 175.5 Q -24.68 174.72 -24.7 173.88 Q -24.73 173.04 -24.78 172.24 Q -24.82 171.45 -24.92 170.91 Q -24.98 170.49 -25.14 170.23 Q -25.29 169.96 -25.53 169.8 Q -25.77 169.63 -26.08 169.54 Q -26.39 169.45 -26.78 169.39 L -26.78 169 Q -26.22 169.04 -25.65 169.07 Q -25.08 169.1 -24.52 169.1 Q -23.4 169.1 -22.3 169 L -22.3 169.39 Q -22.92 169.42 -23.29 169.56 Q -23.66 169.71 -23.84 170.04 Q -24.02 170.38 -24.08 170.95 Q -24.14 171.52 -24.14 172.4 L -24.14 179.74 L -25.08 179.74 Q -25.56 179 -26.17 178.17 Q -26.78 177.34 -27.44 176.5 Q -28.1 175.66 -28.78 174.84 Q -29.46 174.03 -30.09 173.31 Q -30.71 172.59 -31.24 171.99 Q -31.77 171.39 -32.14 171 L -32.14 176.43 Q -32.14 177.24 -32.07 177.73 Q -32.01 178.22 -31.79 178.51 Q -31.58 178.8 -31.16 178.93 Q -30.74 179.07 -30.04 179.18 L -30.04 179.56 Q -30.63 179.53 -31.21 179.52 Q -31.78 179.5 -32.38 179.5 Q -33.05 179.5 -33.69 179.52 Q -34.33 179.53 -35 179.56 M -35 179.18 M -19.71 176.2 Q -19.71 176.96 -19.57 177.52 Q -19.42 178.08 -19.18 178.44 Q -18.93 178.8 -18.61 178.97 Q -18.29 179.15 -17.95 179.15 Q -17.28 179.15 -16.9 178.56 Q -16.51 177.96 -16.51 176.81 Q -16.51 176.06 -16.66 175.5 Q -16.8 174.94 -17.05 174.58 Q -17.3 174.22 -17.62 174.04 Q -17.94 173.87 -18.27 173.87 Q -18.94 173.87 -19.33 174.46 Q -19.71 175.05 -19.71 176.2 M -19.71 176.2 M -18.11 173.26 Q -17.39 173.26 -16.72 173.48 Q -16.05 173.69 -15.53 174.11 Q -15.01 174.52 -14.69 175.13 Q -14.37 175.74 -14.37 176.51 Q -14.37 177.28 -14.69 177.88 Q -15.01 178.49 -15.53 178.91 Q -16.05 179.32 -16.72 179.54 Q -17.39 179.76 -18.11 179.76 Q -18.83 179.76 -19.5 179.54 Q -20.18 179.32 -20.7 178.91 Q -21.22 178.49 -21.54 177.88 Q -21.86 177.28 -21.86 176.51 Q -21.86 175.74 -21.54 175.13 Q -21.22 174.52 -20.7 174.11 Q -20.18 173.69 -19.5 173.48 Q -18.83 173.26 -18.11 173.26 M -18.11 173.26 M -11.1 174.27 Q -10.64 173.85 -10.06 173.56 Q -9.47 173.26 -8.85 173.26 Q -8.18 173.26 -7.7 173.46 Q -7.22 173.66 -6.93 174.32 Q -6.62 174.08 -6.36 173.88 Q -6.1 173.68 -5.81 173.54 Q -5.52 173.4 -5.2 173.33 Q -4.88 173.26 -4.48 173.26 Q -3.9 173.26 -3.52 173.45 Q -3.14 173.64 -2.9 173.96 Q -2.67 174.27 -2.57 174.65 Q -2.46 175.04 -2.46 175.42 L -2.46 178.3 Q -2.46 178.59 -2.37 178.77 Q -2.27 178.96 -2.12 179.06 Q -1.97 179.16 -1.78 179.2 Q -1.6 179.24 -1.42 179.24 L -1.42 179.56 Q -1.58 179.55 -1.76 179.54 Q -1.94 179.53 -2.17 179.52 Q -2.4 179.52 -2.7 179.51 Q -3.01 179.5 -3.42 179.5 Q -4.21 179.5 -4.64 179.52 Q -5.07 179.53 -5.3 179.56 L -5.3 179.24 Q -5.15 179.24 -4.98 179.2 Q -4.82 179.16 -4.68 179.06 Q -4.54 178.96 -4.45 178.77 Q -4.35 178.59 -4.35 178.3 L -4.35 175.6 Q -4.35 174.92 -4.68 174.62 Q -5.01 174.32 -5.58 174.32 Q -5.9 174.32 -6.21 174.44 Q -6.51 174.57 -6.78 174.78 L -6.78 178.3 Q -6.78 178.59 -6.69 178.77 Q -6.59 178.96 -6.46 179.06 Q -6.32 179.16 -6.16 179.2 Q -6 179.24 -5.86 179.24 L -5.86 179.56 Q -6.1 179.53 -6.5 179.52 Q -6.91 179.5 -7.74 179.5 Q -8.53 179.5 -8.97 179.52 Q -9.41 179.53 -9.65 179.56 L -9.65 179.24 Q -9.49 179.24 -9.32 179.2 Q -9.15 179.16 -9.01 179.06 Q -8.86 178.96 -8.77 178.77 Q -8.67 178.59 -8.67 178.3 L -8.67 175.45 Q -8.67 175.04 -8.96 174.68 Q -9.25 174.32 -9.79 174.32 Q -10.14 174.32 -10.5 174.5 Q -10.85 174.68 -11.1 174.92 L -11.1 178.3 Q -11.1 178.59 -11.01 178.77 Q -10.91 178.96 -10.78 179.06 Q -10.64 179.16 -10.48 179.2 Q -10.32 179.24 -10.19 179.24 L -10.19 179.56 Q -10.42 179.53 -10.82 179.52 Q -11.23 179.5 -12.06 179.5 Q -12.85 179.5 -13.3 179.52 Q -13.74 179.53 -14.06 179.56 L -14.06 179.24 Q -13.87 179.24 -13.68 179.2 Q -13.49 179.16 -13.34 179.06 Q -13.18 178.96 -13.09 178.77 Q -12.99 178.59 -12.99 178.3 L -12.99 174.64 Q -12.99 173.84 -14.05 173.84 L -14.05 173.52 Q -13.26 173.48 -12.48 173.44 Q -11.7 173.4 -11.1 173.26 M -11.1 174.27 M 4.76 176.62 Q 4.76 175.26 4.39 174.63 Q 4.02 174 3.14 174 Q 2.26 174 1.9 174.63 Q 1.53 175.26 1.53 176.62 Q 1.53 177.98 1.9 178.61 Q 2.26 179.24 3.14 179.24 Q 4.02 179.24 4.39 178.61 Q 4.76 177.98 4.76 176.62 M 4.76 176.62 M 1.62 173.9 Q 2.07 173.63 2.62 173.44 Q 3.18 173.26 3.7 173.26 Q 4.41 173.26 5 173.51 Q 5.59 173.76 6.02 174.19 Q 6.46 174.62 6.7 175.21 Q 6.94 175.8 6.94 176.51 Q 6.94 177.28 6.62 177.88 Q 6.3 178.49 5.78 178.91 Q 5.26 179.32 4.58 179.54 Q 3.91 179.76 3.19 179.76 Q 2.34 179.76 1.37 179.45 Q 0.39 179.15 -0.41 178.68 Q -0.36 178.4 -0.33 177.98 Q -0.3 177.56 -0.28 177.08 Q -0.26 176.6 -0.26 176.11 Q -0.26 175.6 -0.26 175.16 L -0.26 169.58 Q -0.26 169.16 -0.55 168.97 Q -0.84 168.78 -1.58 168.78 L -1.58 168.46 Q -0.6 168.43 0.22 168.35 Q 1.03 168.27 1.62 168.11 M 1.62 173.9 M 10.94 178.12 Q 10.94 178.7 11.3 178.96 Q 11.65 179.21 12.51 179.24 L 12.51 179.56 Q 11.95 179.53 11.39 179.52 Q 10.83 179.5 10.27 179.5 Q 9.71 179.5 9.15 179.52 Q 8.59 179.53 8.03 179.56 L 8.03 179.24 Q 8.56 179.21 8.86 178.96 Q 9.15 178.7 9.15 178.12 L 9.15 174.96 Q 9.15 174.38 8.86 174.12 Q 8.56 173.87 8.03 173.84 L 8.03 173.52 Q 8.26 173.52 8.66 173.48 Q 9.07 173.44 9.51 173.39 Q 9.95 173.34 10.34 173.28 Q 10.74 173.23 10.94 173.2 L 10.94 174.32 Q 11.22 174.09 11.49 173.87 Q 11.76 173.64 12.05 173.46 Q 12.34 173.28 12.66 173.16 Q 12.98 173.04 13.34 173.04 Q 13.94 173.04 14.17 173.4 Q 14.4 173.77 14.4 174.49 Q 14.21 174.59 13.94 174.71 Q 13.68 174.83 13.42 174.95 Q 13.15 175.07 12.92 175.19 Q 12.69 175.31 12.54 175.39 L 12.35 175.26 Q 12.46 175.18 12.62 175.03 Q 12.77 174.88 12.77 174.72 Q 12.77 174.43 12.6 174.29 Q 12.43 174.16 12.16 174.16 Q 12.05 174.16 11.88 174.23 Q 11.71 174.3 11.54 174.4 Q 11.36 174.51 11.2 174.64 Q 11.04 174.78 10.94 174.91 M 10.94 178.12 M 19.22 175.88 Q 19.54 175.88 19.66 175.8 Q 19.77 175.72 19.77 175.44 Q 19.77 174.73 19.48 174.3 Q 19.19 173.87 18.49 173.87 Q 18.12 173.87 17.87 174.07 Q 17.62 174.27 17.47 174.57 Q 17.32 174.88 17.26 175.23 Q 17.19 175.58 17.19 175.88 M 19.22 175.88 M 17.19 176.49 Q 17.19 177.5 17.76 178.15 Q 18.33 178.8 19.37 178.8 Q 19.93 178.8 20.46 178.56 Q 21 178.32 21.37 177.87 L 21.75 178.28 Q 21.13 178.99 20.3 179.37 Q 19.46 179.76 18.55 179.76 Q 17.77 179.76 17.14 179.52 Q 16.52 179.29 16.07 178.87 Q 15.62 178.44 15.38 177.84 Q 15.14 177.24 15.14 176.51 Q 15.14 175.77 15.38 175.17 Q 15.62 174.57 16.07 174.15 Q 16.52 173.72 17.14 173.49 Q 17.77 173.26 18.55 173.26 Q 19.32 173.26 19.9 173.51 Q 20.49 173.76 20.9 174.2 Q 21.3 174.64 21.53 175.23 Q 21.75 175.82 21.82 176.49 M 17.19 176.49 M 33.33 177.8 Q 33.33 178.14 33.36 178.39 Q 33.39 178.64 33.52 178.8 Q 33.65 178.96 33.92 179.04 Q 34.19 179.12 34.67 179.12 L 34.67 179.45 Q 34.24 179.45 33.78 179.47 Q 33.31 179.48 32.89 179.51 Q 32.46 179.53 32.11 179.56 Q 31.76 179.6 31.52 179.63 L 31.52 179 Q 30.96 179.34 30.42 179.55 Q 29.89 179.76 29.2 179.76 Q 28.5 179.76 27.93 179.52 Q 27.36 179.28 26.95 178.84 Q 26.54 178.41 26.33 177.81 Q 26.11 177.21 26.11 176.51 Q 26.11 175.74 26.43 175.13 Q 26.75 174.52 27.27 174.11 Q 27.79 173.69 28.46 173.48 Q 29.14 173.26 29.86 173.26 Q 30.06 173.26 30.55 173.4 Q 31.04 173.53 31.44 173.77 L 31.44 169.58 Q 31.44 169.16 31.17 168.97 Q 30.9 168.78 30.22 168.78 L 30.22 168.46 Q 31.14 168.43 31.94 168.35 Q 32.74 168.27 33.33 168.11 M 33.33 177.8 M 31.52 175.07 Q 31.26 174.56 30.97 174.24 Q 30.67 173.93 30.06 173.93 Q 29.52 173.93 29.18 174.16 Q 28.83 174.38 28.63 174.73 Q 28.43 175.08 28.36 175.52 Q 28.29 175.96 28.29 176.4 Q 28.29 176.78 28.36 177.22 Q 28.43 177.66 28.62 178.02 Q 28.8 178.38 29.11 178.62 Q 29.42 178.86 29.9 178.86 Q 30.56 178.86 30.96 178.56 Q 31.36 178.25 31.52 177.79 M 31.52 175.07 M 39.22 175.88 Q 39.54 175.88 39.66 175.8 Q 39.77 175.72 39.77 175.44 Q 39.77 174.73 39.48 174.3 Q 39.19 173.87 38.49 173.87 Q 38.12 173.87 37.87 174.07 Q 37.62 174.27 37.47 174.57 Q 37.32 174.88 37.26 175.23 Q 37.19 175.58 37.19 175.88 M 39.22 175.88 M 37.19 176.49 Q 37.19 177.5 37.76 178.15 Q 38.33 178.8 39.37 178.8 Q 39.93 178.8 40.46 178.56 Q 41 178.32 41.37 177.87 L 41.75 178.28 Q 41.13 178.99 40.3 179.37 Q 39.46 179.76 38.55 179.76 Q 37.77 179.76 37.14 179.52 Q 36.52 179.29 36.07 178.87 Q 35.62 178.44 35.38 177.84 Q 35.14 177.24 35.14 176.51 Q 35.14 175.77 35.38 175.17 Q 35.62 174.57 36.07 174.15 Q 36.52 173.72 37.14 173.49 Q 37.77 173.26 38.55 173.26 Q 39.32 173.26 39.9 173.51 Q 40.49 173.76 40.9 174.2 Q 41.3 174.64 41.53 175.23 Q 41.75 175.82 41.82 176.49 M 37.19 176.49 M 48.9 174.27 Q 49.36 173.85 49.94 173.56 Q 50.53 173.26 51.15 173.26 Q 51.82 173.26 52.3 173.46 Q 52.78 173.66 53.07 174.32 Q 53.38 174.08 53.64 173.88 Q 53.9 173.68 54.19 173.54 Q 54.48 173.4 54.8 173.33 Q 55.12 173.26 55.52 173.26 Q 56.1 173.26 56.48 173.45 Q 56.86 173.64 57.1 173.96 Q 57.33 174.27 57.43 174.65 Q 57.54 175.04 57.54 175.42 L 57.54 178.3 Q 57.54 178.59 57.63 178.77 Q 57.73 178.96 57.88 179.06 Q 58.03 179.16 58.22 179.2 Q 58.4 179.24 58.58 179.24 L 58.58 179.56 Q 58.42 179.55 58.24 179.54 Q 58.06 179.53 57.83 179.52 Q 57.6 179.52 57.3 179.51 Q 56.99 179.5 56.58 179.5 Q 55.79 179.5 55.36 179.52 Q 54.93 179.53 54.7 179.56 L 54.7 179.24 Q 54.85 179.24 55.02 179.2 Q 55.18 179.16 55.32 179.06 Q 55.46 178.96 55.55 178.77 Q 55.65 178.59 55.65 178.3 L 55.65 175.6 Q 55.65 174.92 55.32 174.62 Q 54.99 174.32 54.42 174.32 Q 54.1 174.32 53.79 174.44 Q 53.49 174.57 53.22 174.78 L 53.22 178.3 Q 53.22 178.59 53.31 178.77 Q 53.41 178.96 53.54 179.06 Q 53.68 179.16 53.84 179.2 Q 54 179.24 54.14 179.24 L 54.14 179.56 Q 53.9 179.53 53.5 179.52 Q 53.09 179.5 52.26 179.5 Q 51.47 179.5 51.03 179.52 Q 50.59 179.53 50.35 179.56 L 50.35 179.24 Q 50.51 179.24 50.68 179.2 Q 50.85 179.16 50.99 179.06 Q 51.14 178.96 51.23 178.77 Q 51.33 178.59 51.33 178.3 L 51.33 175.45 Q 51.33 175.04 51.04 174.68 Q 50.75 174.32 50.21 174.32 Q 49.86 174.32 49.5 174.5 Q 49.15 174.68 48.9 174.92 L 48.9 178.3 Q 48.9 178.59 48.99 178.77 Q 49.09 178.96 49.22 179.06 Q 49.36 179.16 49.52 179.2 Q 49.68 179.24 49.81 179.24 L 49.81 179.56 Q 49.58 179.53 49.18 179.52 Q 48.77 179.5 47.94 179.5 Q 47.15 179.5 46.7 179.52 Q 46.26 179.53 45.94 179.56 L 45.94 179.24 Q 46.13 179.24 46.32 179.2 Q 46.51 179.16 46.66 179.06 Q 46.82 178.96 46.91 178.77 Q 47.01 178.59 47.01 178.3 L 47.01 174.64 Q 47.01 173.84 45.95 173.84 L 45.95 173.52 Q 46.74 173.48 47.52 173.44 Q 48.3 173.4 48.9 173.26 M 48.9 174.27 M 61.29 176.2 Q 61.29 176.96 61.43 177.52 Q 61.58 178.08 61.82 178.44 Q 62.07 178.8 62.39 178.97 Q 62.71 179.15 63.05 179.15 Q 63.72 179.15 64.1 178.56 Q 64.49 177.96 64.49 176.81 Q 64.49 176.06 64.34 175.5 Q 64.2 174.94 63.95 174.58 Q 63.7 174.22 63.38 174.04 Q 63.06 173.87 62.73 173.87 Q 62.06 173.87 61.67 174.46 Q 61.29 175.05 61.29 176.2 M 61.29 176.2 M 62.89 173.26 Q 63.61 173.26 64.28 173.48 Q 64.95 173.69 65.47 174.11 Q 65.99 174.52 66.31 175.13 Q 66.63 175.74 66.63 176.51 Q 66.63 177.28 66.31 177.88 Q 65.99 178.49 65.47 178.91 Q 64.95 179.32 64.28 179.54 Q 63.61 179.76 62.89 179.76 Q 62.17 179.76 61.5 179.54 Q 60.82 179.32 60.3 178.91 Q 59.78 178.49 59.46 177.88 Q 59.14 177.28 59.14 176.51 Q 59.14 175.74 59.46 175.13 Q 59.78 174.52 60.3 174.11 Q 60.82 173.69 61.5 173.48 Q 62.17 173.26 62.89 173.26 M 62.89 173.26 M 66.79 174.06 L 66.79 173.69 Q 67.3 173.66 67.71 173.45 Q 68.12 173.24 68.43 172.92 Q 68.74 172.6 68.98 172.2 Q 69.22 171.79 69.4 171.36 L 69.72 171.36 L 69.72 173.52 L 71.93 173.52 L 71.93 174.06 L 69.72 174.06 L 69.72 177.45 Q 69.72 178.16 69.94 178.43 Q 70.15 178.7 70.7 178.7 Q 70.98 178.7 71.31 178.51 Q 71.64 178.32 71.91 178.04 L 72.25 178.41 Q 72.01 178.62 71.7 178.86 Q 71.4 179.1 71.06 179.3 Q 70.71 179.5 70.37 179.63 Q 70.02 179.76 69.7 179.76 Q 68.87 179.76 68.4 179.35 Q 67.93 178.94 67.93 178.12 L 67.93 174.06 M 66.79 174.06 M 73.7 177.26 Q 74.14 178.09 74.85 178.67 Q 75.56 179.24 76.54 179.24 Q 76.89 179.24 77.16 179.08 Q 77.43 178.92 77.43 178.56 Q 77.43 178.22 77.14 178 Q 76.84 177.77 76.4 177.59 Q 75.96 177.4 75.44 177.22 Q 74.92 177.04 74.48 176.77 Q 74.04 176.51 73.74 176.12 Q 73.45 175.74 73.45 175.16 Q 73.45 174.62 73.64 174.26 Q 73.83 173.9 74.14 173.68 Q 74.46 173.45 74.86 173.36 Q 75.26 173.26 75.66 173.26 Q 76.17 173.26 76.8 173.4 Q 77.43 173.55 78.02 173.55 Q 78.12 173.55 78.25 173.52 L 78.38 175.5 L 77.99 175.5 Q 77.85 175.21 77.62 174.91 Q 77.38 174.6 77.09 174.36 Q 76.79 174.11 76.46 173.94 Q 76.12 173.77 75.78 173.77 Q 75.45 173.77 75.17 173.91 Q 74.89 174.04 74.89 174.46 Q 74.89 174.8 75.18 175.02 Q 75.46 175.24 75.9 175.43 Q 76.33 175.61 76.83 175.8 Q 77.34 175.98 77.77 176.24 Q 78.2 176.51 78.49 176.88 Q 78.78 177.26 78.78 177.82 Q 78.78 178.36 78.57 178.73 Q 78.36 179.1 78.02 179.33 Q 77.67 179.56 77.23 179.66 Q 76.79 179.76 76.33 179.76 Q 75.59 179.76 74.87 179.62 Q 74.15 179.48 73.48 179.21 L 73.34 177.26 M 73.7 177.26"/></g><line x1="70" y1="298.84" x2="1131" y2="298.84" style="stroke-width: 1.0;stroke: rgb(192,192,192);stroke-opacity: 1;" transform="matrix(1,0,0,1,0,0)" clip-path="url(#clip-7)"/><line x1="70" y1="280.68" x2="1131" y2="280.68" style="stroke-width: 1.0;stroke: rgb(192,192,192);stroke-opacity: 1;" transform="matrix(1,0,0,1,0,0)" clip-path="url(#clip-7)"/><line x1="70" y1="262.52" x2="1131" y2="262.52" style="stroke-width: 1.0;stroke: rgb(192,192,192);stroke-opacity: 1;" transform="matrix(1,0,0,1,0,0)" clip-path="url(#clip-7)"/><line x1="70" y1="244.37" x2="1131" y2="244.37" style="stroke-width: 1.0;stroke: rgb(192,192,192);stroke-opacity: 1;" transform="matrix(1,0,0,1,0,0)" clip-path="url(#clip-7)"/><line x1="70" y1="226.21" x2="1131" y2="226.21" style="stroke-width: 1.0;stroke: rgb(192,192,192);stroke-opacity: 1;" transform="matrix(1,0,0,1,0,0)" clip-path="url(#clip-7)"/><line x1="70" y1="208.05" x2="1131" y2="208.05" style="stroke-width: 1.0;stroke: rgb(192,192,192);stroke-opacity: 1;" transform="matrix(1,0,0,1,0,0)" clip-path="url(#clip-7)"/><line x1="70" y1="189.89" x2="1131" y2="189.89" style="stroke-width: 1.0;stroke: rgb(192,192,192);stroke-opacity: 1;" transform="matrix(1,0,0,1,0,0)" clip-path="url(#clip-7)"/><line x1="70" y1="171.73" x2="1131" y2="171.73" style="stroke-width: 1.0;stroke: rgb(192,192,192);stroke-opacity: 1;" transform="matrix(1,0,0,1,0,0)" clip-path="url(#clip-7)"/><line x1="70" y1="153.57" x2="1131" y2="153.57" style="stroke-width: 1.0;stroke: rgb(192,192,192);stroke-opacity: 1;" transform="matrix(1,0,0,1,0,0)" clip-path="url(#clip-7)"/><line x1="70" y1="135.41" x2="1131" y2="135.41" style="stroke-width: 1.0;stroke: rgb(192,192,192);stroke-opacity: 1;" transform="matrix(1,0,0,1,0,0)" clip-path="url(#clip-7)"/><line x1="70" y1="117.25" x2="1131" y2="117.25" style="stroke-width: 1.0;stroke: rgb(192,192,192);stroke-opacity: 1;" transform="matrix(1,0,0,1,0,0)" clip-path="url(#clip-7)"/><line x1="70" y1="99.1" x2="1131" y2="99.1" style="stroke-width: 1.0;stroke: rgb(192,192,192);stroke-opacity: 1;" transform="matrix(1,0,0,1,0,0)" clip-path="url(#clip-7)"/><line x1="70" y1="80.94" x2="1131" y2="80.94" style="stroke-width: 1.0;stroke: rgb(192,192,192);stroke-opacity: 1;" transform="matrix(1,0,0,1,0,0)" clip-path="url(#clip-7)"/><line x1="70" y1="62.78" x2="1131" y2="62.78" style="stroke-width: 1.0;stroke: rgb(192,192,192);stroke-opacity: 1;" transform="matrix(1,0,0,1,0,0)" clip-path="url(#clip-7)"/><line x1="70" y1="44.62" x2="1131" y2="44.62" style="stroke-width: 1.0;stroke: rgb(192,192,192);stroke-opacity: 1;" transform="matrix(1,0,0,1,0,0)" clip-path="url(#clip-7)"/><line x1="70" y1="317" x2="1131" y2="317" style="stroke-width: 0.5;stroke: rgb(134,145,156);stroke-opacity: 1;" transform="matrix(1,0,0,1,0,0)" clip-path="url(#clip-7)"/><rect x="101.83" y="44.62" width="148.54" height="272.38" style="fill: rgb(128,128,128);fill-opacity: 1" transform="matrix(1,0,0,1,0,0)" clip-path="url(#clip-7)"/><rect x="314.03" y="127.88" width="148.54" height="189.12" style="fill: rgb(128,128,128);fill-opacity: 1" transform="matrix(1,0,0,1,0,0)" clip-path="url(#clip-7)"/><rect x="526.23" y="193.52" width="148.54" height="123.48" style="fill: rgb(128,128,128);fill-opacity: 1" transform="matrix(1,0,0,1,0,0)" clip-path="url(#clip-7)"/><rect x="738.43" y="292.85" width="148.54" height="24.15" style="fill: rgb(128,128,128);fill-opacity: 1" transform="matrix(1,0,0,1,0,0)" clip-path="url(#clip-7)"/><rect x="950.63" y="310.74" width="148.54" height="6.26" style="fill: rgb(128,128,128);fill-opacity: 1" transform="matrix(1,0,0,1,0,0)" clip-path="url(#clip-7)"/></svg>
