<!DOCTYPE svg PUBLIC "-//W3C//DTD SVG 1.1//EN" "http://www.w3.org/Graphics/SVG/1.1/DTD/svg11.dtd">
<svg style="stroke-linecap:square;" xmlns="http://www.w3.org/2000/svg" xmlns:xlink="http://www.w3.org/1999/xlink" width="1069" height="617">
<defs><clipPath id="clip-0"><path d="M 0 0 L 1069 0 L 1069 617 L 0 617 L 0 0 M 0 0"/></clipPath>
<clipPath id="clip-1"><path d="M 694.4 373.6 L 694.4 1442.6 L 77.4 1442.6 L 77.4 373.6 L 694.4 373.6 M 694.4 373.6"/></clipPath>
<clipPath id="clip-2"><path d="M 881.2 186.8 L 881.2 1255.8 L 264.2 1255.8 L 264.2 186.8 L 881.2 186.8 M 881.2 186.8"/></clipPath>
<clipPath id="clip-3"><path d="M 1068 0 L 1068 1069 L 451 1069 L 451 0 L 1068 0 M 1068 0"/></clipPath>
<clipPath id="clip-4"><path d="M 1254.8 -186.8 L 1254.8 882.2 L 637.8 882.2 L 637.8 -186.8 L 1254.8 -186.8 M 1254.8 -186.8"/></clipPath>
<clipPath id="clip-5"><path d="M 1441.6 -373.6 L 1441.6 695.4 L 824.6 695.4 L 824.6 -373.6 L 1441.6 -373.6 M 1441.6 -373.6"/></clipPath>
<clipPath id="clip-6"><path d="M 304.5 259.5 L 304.5 1328.5 L -312.5 1328.5 L -312.5 259.5 L 304.5 259.5 M 304.5 259.5"/></clipPath>
<clipPath id="clip-7"><path d="M 67 42 L 67 522 L 1001 522 L 1001 42 M 67 42"/></clipPath>
</defs>
<rect x="0" y="0" width="1069" height="617" style="fill: rgb(255,255,255);fill-opacity: 1" transform="matrix(1,0,0,1,0,0)" clip-path="url(#clip-0)"/><g transform="matrix(1,0,0,1,0,0)"><text x="461.5" y="26.24" style="fill: rgb(75,75,109); font-family: Lucida Sans; font-size: 16px; font-weight: bold; " text-rendering="auto" clip-path="url(#clip-0)">[ego, tu, nos, uos]</text></g><rect x="1021" y="286.5" width="38" height="76" style="fill: rgb(255,255,255);fill-opacity: 1" transform="matrix(1,0,0,1,0,0)" clip-path="url(#clip-0)"/><g style="stroke-width: 1.0;stroke: rgb(192,192,192);stroke-opacity: 1; fill: none" transform="matrix(1,0,0,1,0,0)" clip-path="url(#clip-0)"><path d="M 1021 291.5 L 1021 357.5 C 1021 360.26 1023.24 362.5 1026 362.5 L 1054 362.5 C 1056.76 362.5 1059 360.26 1059 357.5 L 1059 291.5 C 1059 288.74 1056.76 286.5 1054 286.5 L 1026 286.5 C 1023.24 286.5 1021 288.74 1021 291.5 M 1021 291.5"/></g><g style="fill: rgb(255,0,0);fill-opacity: 1; stroke: none" transform="matrix(1,0,0,1,0,0)" clip-path="url(#clip-0)"><path d="M 1025 292.5 L 1031 292.5 L 1031 302.5 L 1025 302.5 L 1025 292.5 M 1025 292.5"/></g><g transform="matrix(1,0,0,1,0,0)"><text x="1035" y="300.98" style="fill: rgb(39,75,109); font-family: Lucida Sans; font-size: 11px; font-weight: bold; " text-rendering="auto" clip-path="url(#clip-0)">ego</text></g><g style="fill: rgb(0,0,255);fill-opacity: 1; stroke: none" transform="matrix(1,0,0,1,0,0)" clip-path="url(#clip-0)"><path d="M 1025 310.5 L 1031 310.5 L 1031 320.5 L 1025 320.5 L 1025 310.5 M 1025 310.5"/></g><g transform="matrix(1,0,0,1,0,0)"><text x="1035" y="318.98" style="fill: rgb(39,75,109); font-family: Lucida Sans; font-size: 11px; font-weight: bold; " text-rendering="auto" clip-path="url(#clip-0)">tu</text></g><g style="fill: rgb(0,139,0);fill-opacity: 1; stroke: none" transform="matrix(1,0,0,1,0,0)" clip-path="url(#clip-0)"><path d="M 1025 328.5 L 1031 328.5 L 1031 338.5 L 1025 338.5 L 1025 328.5 M 1025 328.5"/></g><g transform="matrix(1,0,0,1,0,0)"><text x="1035" y="336.98" style="fill: rgb(39,75,109); font-family: Lucida Sans; font-size: 11px; font-weight: bold; " text-rendering="auto" clip-path="url(#clip-0)">nos</text></g><g style="fill: rgb(255,215,0);fill-opacity: 1; stroke: none" transform="matrix(1,0,0,1,0,0)" clip-path="url(#clip-0)"><path d="M 1025 346.5 L 1031 346.5 L 1031 356.5 L 1025 356.5 L 1025 346.5 M 1025 346.5"/></g><g transform="matrix(1,0,0,1,0,0)"><text x="1035" y="354.98" style="fill: rgb(39,75,109); font-family: Lucida Sans; font-size: 11px; font-weight: bold; " text-rendering="auto" clip-path="url(#clip-0)">uos</text></g><rect x="67" y="42" width="934" height="480" style="fill: rgb(255,255,255);fill-opacity: 1" transform="matrix(1,0,0,1,0,0)" clip-path="url(#clip-0)"/><line x1="67" y1="522" x2="1001" y2="522" style="stroke-width: 0.5;stroke: rgb(192,208,224);stroke-opacity: 1;" transform="matrix(1,0,0,1,0,0)" clip-path="url(#clip-0)"/><g style="fill: rgb(102,102,102);fill-opacity: 1; stroke: none" transform="matrix(0,-1,1,0,-373.600006,694.399994)" clip-path="url(#clip-1)"><path d="M 123.52 538.68 L 126.62 530.73 L 128.27 530.73 L 131.37 538.68 L 129.67 538.68 L 128.84 536.55 L 125.56 536.55 L 124.73 538.68 L 123.52 538.68 M 123.52 538.68 M 125.96 535.49 L 128.43 535.49 L 127.2 532.34 L 125.96 535.49 M 125.96 535.49 M 136.74 538.55 Q 135.76 538.82 134.92 538.82 Q 133.49 538.82 132.68 537.98 Q 131.87 537.15 131.87 535.73 Q 131.87 534.27 132.71 533.46 Q 133.56 532.65 135.04 532.65 Q 135.76 532.65 136.7 532.88 L 136.7 534.02 Q 135.71 533.71 135.13 533.71 Q 134.42 533.71 133.99 534.26 Q 133.56 534.8 133.56 535.71 Q 133.56 536.65 134.02 537.2 Q 134.49 537.76 135.27 537.76 Q 135.99 537.76 136.74 537.45 L 136.74 538.55 M 136.74 538.55 M 142.74 538.55 Q 141.76 538.82 140.92 538.82 Q 139.49 538.82 138.68 537.98 Q 137.87 537.15 137.87 535.73 Q 137.87 534.27 138.71 533.46 Q 139.56 532.65 141.04 532.65 Q 141.76 532.65 142.7 532.88 L 142.7 534.02 Q 141.71 533.71 141.13 533.71 Q 140.42 533.71 139.99 534.26 Q 139.56 534.8 139.56 535.71 Q 139.56 536.65 140.02 537.2 Q 140.49 537.76 141.27 537.76 Q 141.99 537.76 142.74 537.45 L 142.74 538.55 M 142.74 538.55 M 144.4 538.68 L 144.4 532.79 L 145.98 532.79 L 145.98 538.68 L 144.4 538.68 M 144.4 538.68 M 144.4 531.79 L 144.4 530.46 L 145.98 530.46 L 145.98 531.79 L 144.4 531.79 M 144.4 531.79 M 152.04 538.68 L 152.04 537.57 Q 151.27 538.82 150.02 538.82 Q 149.24 538.82 148.78 538.32 Q 148.32 537.82 148.32 536.95 L 148.32 532.79 L 149.92 532.79 L 149.92 536.55 Q 149.92 537.55 150.59 537.55 Q 151.34 537.55 152.04 536.49 L 152.04 532.79 L 153.63 532.79 L 153.63 538.68 L 152.04 538.68 M 152.04 538.68 M 155.24 538.49 L 155.24 537.32 Q 156.42 537.82 157.26 537.82 Q 158.23 537.82 158.23 537.15 Q 158.23 536.73 157.43 536.4 L 156.9 536.18 Q 156.01 535.84 155.63 535.43 Q 155.26 535.02 155.26 534.41 Q 155.26 533.57 155.9 533.11 Q 156.54 532.65 157.7 532.65 Q 158.42 532.65 159.4 532.85 L 159.4 533.98 Q 158.45 533.65 157.82 533.65 Q 156.84 533.65 156.84 534.26 Q 156.84 534.66 157.56 534.93 L 158.02 535.12 Q 159.06 535.51 159.46 535.91 Q 159.87 536.3 159.87 536.95 Q 159.87 537.77 159.18 538.3 Q 158.49 538.82 157.38 538.82 Q 156.32 538.82 155.24 538.49 M 155.24 538.49"/></g><line x1="253.8" y1="527" x2="253.8" y2="522" style="stroke-width: 0.5;stroke: rgb(192,208,224);stroke-opacity: 1;" transform="matrix(1,0,0,1,0,0)" clip-path="url(#clip-0)"/><line x1="67" y1="527" x2="67" y2="522" style="stroke-width: 0.5;stroke: rgb(192,208,224);stroke-opacity: 1;" transform="matrix(1,0,0,1,0,0)" clip-path="url(#clip-0)"/><g style="fill: rgb(102,102,102);fill-opacity: 1; stroke: none" transform="matrix(0,-1,1,0,-186.799988,881.200012)" clip-path="url(#clip-2)"><path d="M 310.2 538.68 L 310.2 530.73 L 315.17 530.73 L 315.17 531.82 L 311.84 531.82 L 311.84 534.04 L 314.56 534.04 L 314.56 535.1 L 311.84 535.1 L 311.84 537.55 L 315.42 537.55 L 315.42 538.68 L 310.2 538.68 M 310.2 538.68 M 317.2 538.68 L 317.2 532.79 L 318.78 532.79 L 318.78 533.9 Q 319.56 532.65 320.79 532.65 Q 321.58 532.65 322.04 533.15 Q 322.5 533.65 322.5 534.51 L 322.5 538.68 L 320.9 538.68 L 320.9 534.9 Q 320.9 533.9 320.25 533.9 Q 319.48 533.9 318.78 534.96 L 318.78 538.68 L 317.2 538.68 M 317.2 538.68 M 324.2 538.68 L 324.2 532.79 L 325.78 532.79 L 325.78 533.9 Q 326.56 532.65 327.79 532.65 Q 328.58 532.65 329.04 533.15 Q 329.5 533.65 329.5 534.51 L 329.5 538.68 L 327.9 538.68 L 327.9 534.9 Q 327.9 533.9 327.25 533.9 Q 326.48 533.9 325.78 534.96 L 325.78 538.68 L 324.2 538.68 M 324.2 538.68 M 331.2 538.68 L 331.2 532.79 L 332.78 532.79 L 332.78 538.68 L 331.2 538.68 M 331.2 538.68 M 331.2 531.79 L 331.2 530.46 L 332.78 530.46 L 332.78 531.79 L 331.2 531.79 M 331.2 531.79 M 338.84 538.68 L 338.84 537.57 Q 338.08 538.82 336.83 538.82 Q 336.04 538.82 335.58 538.32 Q 335.12 537.82 335.12 536.95 L 335.12 532.79 L 336.72 532.79 L 336.72 536.55 Q 336.72 537.55 337.39 537.55 Q 338.14 537.55 338.84 536.49 L 338.84 532.79 L 340.43 532.79 L 340.43 538.68 L 338.84 538.68 M 338.84 538.68 M 342.04 538.49 L 342.04 537.32 Q 343.22 537.82 344.06 537.82 Q 345.03 537.82 345.03 537.15 Q 345.03 536.73 344.23 536.4 L 343.7 536.18 Q 342.81 535.84 342.43 535.43 Q 342.06 535.02 342.06 534.41 Q 342.06 533.57 342.7 533.11 Q 343.34 532.65 344.5 532.65 Q 345.22 532.65 346.2 532.85 L 346.2 533.98 Q 345.25 533.65 344.62 533.65 Q 343.64 533.65 343.64 534.26 Q 343.64 534.66 344.36 534.93 L 344.83 535.12 Q 345.86 535.51 346.26 535.91 Q 346.67 536.3 346.67 536.95 Q 346.67 537.77 345.98 538.3 Q 345.29 538.82 344.18 538.82 Q 343.12 538.82 342.04 538.49 M 342.04 538.49"/></g><line x1="440.6" y1="527" x2="440.6" y2="522" style="stroke-width: 0.5;stroke: rgb(192,208,224);stroke-opacity: 1;" transform="matrix(1,0,0,1,0,0)" clip-path="url(#clip-0)"/><g style="fill: rgb(102,102,102);fill-opacity: 1; stroke: none" transform="matrix(0,-1,1,0,0,1068)" clip-path="url(#clip-3)"><path d="M 501 538.68 L 501 530.73 L 502.64 530.73 L 502.64 537.55 L 506.23 537.55 L 506.23 538.68 L 501 538.68 M 501 538.68 M 507 538.68 L 507 532.79 L 508.58 532.79 L 508.58 538.68 L 507 538.68 M 507 538.68 M 507 531.79 L 507 530.46 L 508.58 530.46 L 508.58 531.79 L 507 531.79 M 507 531.79 M 512.45 538.68 L 510.2 532.79 L 511.88 532.79 L 513.53 537.04 L 515.16 532.79 L 516.31 532.79 L 514.05 538.68 L 512.45 538.68 M 512.45 538.68 M 518 538.68 L 518 532.79 L 519.58 532.79 L 519.58 538.68 L 518 538.68 M 518 538.68 M 518 531.79 L 518 530.46 L 519.58 530.46 L 519.58 531.79 L 518 531.79 M 518 531.79 M 525.64 538.68 L 525.64 537.57 Q 524.88 538.82 523.62 538.82 Q 522.84 538.82 522.38 538.32 Q 521.92 537.82 521.92 536.95 L 521.92 532.79 L 523.52 532.79 L 523.52 536.55 Q 523.52 537.55 524.19 537.55 Q 524.94 537.55 525.64 536.49 L 525.64 532.79 L 527.23 532.79 L 527.23 538.68 L 525.64 538.68 M 525.64 538.68 M 528.84 538.49 L 528.84 537.32 Q 530.02 537.82 530.86 537.82 Q 531.83 537.82 531.83 537.15 Q 531.83 536.73 531.03 536.4 L 530.5 536.18 Q 529.61 535.84 529.23 535.43 Q 528.86 535.02 528.86 534.41 Q 528.86 533.57 529.5 533.11 Q 530.14 532.65 531.3 532.65 Q 532.02 532.65 533 532.85 L 533 533.98 Q 532.05 533.65 531.42 533.65 Q 530.44 533.65 530.44 534.26 Q 530.44 534.66 531.16 534.93 L 531.62 535.12 Q 532.66 535.51 533.06 535.91 Q 533.47 536.3 533.47 536.95 Q 533.47 537.77 532.78 538.3 Q 532.09 538.82 530.98 538.82 Q 529.92 538.82 528.84 538.49 M 528.84 538.49"/></g><line x1="627.4" y1="527" x2="627.4" y2="522" style="stroke-width: 0.5;stroke: rgb(192,208,224);stroke-opacity: 1;" transform="matrix(1,0,0,1,0,0)" clip-path="url(#clip-0)"/><g style="fill: rgb(102,102,102);fill-opacity: 1; stroke: none" transform="matrix(0,-1,1,0,186.799988,1254.799988)" clip-path="url(#clip-4)"><path d="M 679.8 538.68 L 679.8 530.73 L 681.25 530.73 L 684.94 536.16 L 684.94 530.73 L 686.25 530.73 L 686.25 538.68 L 684.78 538.68 L 681.13 533.24 L 681.13 538.68 L 679.8 538.68 M 679.8 538.68 M 691.1 537.65 Q 690.28 538.82 689.02 538.82 Q 688.22 538.82 687.73 538.35 Q 687.24 537.88 687.24 537.12 Q 687.24 536.15 688.02 535.62 Q 688.8 535.1 690.25 535.1 L 690.69 535.1 L 690.69 534.54 Q 690.69 533.63 689.64 533.63 Q 688.71 533.63 687.75 534.15 L 687.75 533.05 Q 688.83 532.65 689.86 532.65 Q 690.78 532.65 691.64 533.3 Q 692.46 532.65 693.42 532.65 Q 694.67 532.65 695.27 533.48 Q 695.86 534.3 695.86 536.05 L 692.21 536.05 Q 692.38 537.73 694.07 537.73 Q 694.86 537.73 695.86 537.37 L 695.86 538.48 Q 694.74 538.82 693.61 538.82 Q 692 538.82 691.1 537.65 M 691.1 537.65 M 690.69 537.2 L 690.69 535.99 L 690.3 535.99 Q 689.6 535.99 689.18 536.25 Q 688.77 536.51 688.77 536.96 Q 688.77 537.29 688.99 537.51 Q 689.21 537.73 689.53 537.73 Q 690.1 537.73 690.69 537.2 M 690.69 537.2 M 692.19 535.15 L 694.3 535.15 Q 694.3 533.63 693.33 533.63 Q 692.35 533.63 692.19 535.15 M 692.19 535.15 M 699.25 538.68 L 697 532.79 L 698.67 532.79 L 700.33 537.04 L 701.96 532.79 L 703.11 532.79 L 700.85 538.68 L 699.25 538.68 M 699.25 538.68 M 704.8 538.68 L 704.8 532.79 L 706.38 532.79 L 706.38 538.68 L 704.8 538.68 M 704.8 538.68 M 704.8 531.79 L 704.8 530.46 L 706.38 530.46 L 706.38 531.79 L 704.8 531.79 M 704.8 531.79 M 712.44 538.68 L 712.44 537.57 Q 711.67 538.82 710.42 538.82 Q 709.64 538.82 709.18 538.32 Q 708.72 537.82 708.72 536.95 L 708.72 532.79 L 710.32 532.79 L 710.32 536.55 Q 710.32 537.55 710.99 537.55 Q 711.74 537.55 712.44 536.49 L 712.44 532.79 L 714.03 532.79 L 714.03 538.68 L 712.44 538.68 M 712.44 538.68 M 715.64 538.49 L 715.64 537.32 Q 716.82 537.82 717.66 537.82 Q 718.63 537.82 718.63 537.15 Q 718.63 536.73 717.83 536.4 L 717.3 536.18 Q 716.41 535.84 716.03 535.43 Q 715.66 535.02 715.66 534.41 Q 715.66 533.57 716.3 533.11 Q 716.94 532.65 718.1 532.65 Q 718.82 532.65 719.8 532.85 L 719.8 533.98 Q 718.85 533.65 718.22 533.65 Q 717.24 533.65 717.24 534.26 Q 717.24 534.66 717.96 534.93 L 718.42 535.12 Q 719.46 535.51 719.86 535.91 Q 720.27 536.3 720.27 536.95 Q 720.27 537.77 719.58 538.3 Q 718.89 538.82 717.78 538.82 Q 716.72 538.82 715.64 538.49 M 715.64 538.49"/></g><line x1="814.2" y1="527" x2="814.2" y2="522" style="stroke-width: 0.5;stroke: rgb(192,208,224);stroke-opacity: 1;" transform="matrix(1,0,0,1,0,0)" clip-path="url(#clip-0)"/><g style="fill: rgb(102,102,102);fill-opacity: 1; stroke: none" transform="matrix(0,-1,1,0,373.599976,1441.599976)" clip-path="url(#clip-5)"><path d="M 858.6 538.68 L 858.6 530.73 L 861.37 530.73 Q 862.82 530.73 863.44 531.21 Q 864.05 531.7 864.05 532.84 Q 864.05 534.13 863.22 534.85 Q 862.4 535.57 860.9 535.57 L 860.21 535.57 L 860.21 538.68 L 858.6 538.68 M 858.6 538.68 M 860.21 534.48 L 860.54 534.48 Q 861.38 534.48 861.87 534.08 Q 862.37 533.68 862.37 533.01 Q 862.37 531.82 860.87 531.82 L 860.21 531.82 L 860.21 534.48 M 860.21 534.48 M 868.49 538.04 Q 867.69 538.82 866.79 538.82 Q 866.01 538.82 865.52 538.34 Q 865.04 537.87 865.04 537.12 Q 865.04 536.13 865.82 535.61 Q 866.6 535.09 868.05 535.09 L 868.49 535.09 L 868.49 534.54 Q 868.49 533.63 867.44 533.63 Q 866.51 533.63 865.55 534.15 L 865.55 533.05 Q 866.63 532.65 867.69 532.65 Q 870.01 532.65 870.01 534.49 L 870.01 537.1 Q 870.01 537.79 870.46 537.79 Q 870.54 537.79 870.66 537.77 L 870.71 538.66 Q 870.19 538.82 869.8 538.82 Q 868.83 538.82 868.55 538.04 L 868.49 538.04 M 868.49 538.04 M 868.49 537.2 L 868.49 535.99 L 868.1 535.99 Q 866.57 535.99 866.57 536.96 Q 866.57 537.29 866.79 537.51 Q 867.01 537.73 867.33 537.73 Q 867.9 537.73 868.49 537.2 M 868.49 537.2 M 875.94 538.55 Q 874.96 538.82 874.12 538.82 Q 872.69 538.82 871.88 537.98 Q 871.07 537.15 871.07 535.73 Q 871.07 534.27 871.91 533.46 Q 872.76 532.65 874.24 532.65 Q 874.96 532.65 875.9 532.88 L 875.9 534.02 Q 874.91 533.71 874.33 533.71 Q 873.62 533.71 873.19 534.26 Q 872.76 534.8 872.76 535.71 Q 872.76 536.65 873.22 537.2 Q 873.69 537.76 874.47 537.76 Q 875.19 537.76 875.94 537.45 L 875.94 538.55 M 875.94 538.55 M 881.24 538.68 L 881.24 537.57 Q 880.47 538.82 879.22 538.82 Q 878.44 538.82 877.98 538.32 Q 877.52 537.82 877.52 536.95 L 877.52 532.79 L 879.12 532.79 L 879.12 536.55 Q 879.12 537.55 879.79 537.55 Q 880.54 537.55 881.24 536.49 L 881.24 532.79 L 882.83 532.79 L 882.83 538.68 L 881.24 538.68 M 881.24 538.68 M 886.05 538.68 L 883.8 532.79 L 885.47 532.79 L 887.13 537.04 L 888.76 532.79 L 889.91 532.79 L 887.65 538.68 L 886.05 538.68 M 886.05 538.68 M 891.6 538.68 L 891.6 532.79 L 893.18 532.79 L 893.18 538.68 L 891.6 538.68 M 891.6 538.68 M 891.6 531.79 L 891.6 530.46 L 893.18 530.46 L 893.18 531.79 L 891.6 531.79 M 891.6 531.79 M 899.24 538.68 L 899.24 537.57 Q 898.47 538.82 897.22 538.82 Q 896.44 538.82 895.98 538.32 Q 895.52 537.82 895.52 536.95 L 895.52 532.79 L 897.12 532.79 L 897.12 536.55 Q 897.12 537.55 897.79 537.55 Q 898.54 537.55 899.24 536.49 L 899.24 532.79 L 900.83 532.79 L 900.83 538.68 L 899.24 538.68 M 899.24 538.68 M 902.44 538.49 L 902.44 537.32 Q 903.62 537.82 904.46 537.82 Q 905.43 537.82 905.43 537.15 Q 905.43 536.73 904.63 536.4 L 904.1 536.18 Q 903.21 535.84 902.83 535.43 Q 902.46 535.02 902.46 534.41 Q 902.46 533.57 903.1 533.11 Q 903.74 532.65 904.9 532.65 Q 905.62 532.65 906.6 532.85 L 906.6 533.98 Q 905.65 533.65 905.02 533.65 Q 904.04 533.65 904.04 534.26 Q 904.04 534.66 904.76 534.93 L 905.22 535.12 Q 906.26 535.51 906.66 535.91 Q 907.07 536.3 907.07 536.95 Q 907.07 537.77 906.38 538.3 Q 905.69 538.82 904.58 538.82 Q 903.52 538.82 902.44 538.49 M 902.44 538.49"/></g><line x1="1001" y1="527" x2="1001" y2="522" style="stroke-width: 0.5;stroke: rgb(192,208,224);stroke-opacity: 1;" transform="matrix(1,0,0,1,0,0)" clip-path="url(#clip-0)"/><g transform="matrix(1,0,0,1,0,0)"><text x="511.5" y="600.84" style="fill: rgb(77,117,158); font-family: Lucida Sans; font-size: 15px; font-weight: bold; " text-rendering="auto" clip-path="url(#clip-0)">Partie</text></g><g transform="matrix(1,0,0,1,0,0)"><text x="37" y="486.23" style="fill: rgb(102,102,102); font-family: Lucida Sans; font-size: 11px; font-weight: bold; " text-rendering="auto" clip-path="url(#clip-0)">-1.0</text></g><g transform="matrix(1,0,0,1,0,0)"><text x="37" y="459.54" style="fill: rgb(102,102,102); font-family: Lucida Sans; font-size: 11px; font-weight: bold; " text-rendering="auto" clip-path="url(#clip-0)">-0.8</text></g><g transform="matrix(1,0,0,1,0,0)"><text x="37" y="432.85" style="fill: rgb(102,102,102); font-family: Lucida Sans; font-size: 11px; font-weight: bold; " text-rendering="auto" clip-path="url(#clip-0)">-0.6</text></g><g transform="matrix(1,0,0,1,0,0)"><text x="37" y="406.16" style="fill: rgb(102,102,102); font-family: Lucida Sans; font-size: 11px; font-weight: bold; " text-rendering="auto" clip-path="url(#clip-0)">-0.4</text></g><g transform="matrix(1,0,0,1,0,0)"><text x="37" y="379.47" style="fill: rgb(102,102,102); font-family: Lucida Sans; font-size: 11px; font-weight: bold; " text-rendering="auto" clip-path="url(#clip-0)">-0.2</text></g><g transform="matrix(1,0,0,1,0,0)"><text x="44" y="352.78" style="fill: rgb(102,102,102); font-family: Lucida Sans; font-size: 11px; font-weight: bold; " text-rendering="auto" clip-path="url(#clip-0)">0.0</text></g><g transform="matrix(1,0,0,1,0,0)"><text x="44" y="326.09" style="fill: rgb(102,102,102); font-family: Lucida Sans; font-size: 11px; font-weight: bold; " text-rendering="auto" clip-path="url(#clip-0)">0.2</text></g><g transform="matrix(1,0,0,1,0,0)"><text x="44" y="299.4" style="fill: rgb(102,102,102); font-family: Lucida Sans; font-size: 11px; font-weight: bold; " text-rendering="auto" clip-path="url(#clip-0)">0.4</text></g><g transform="matrix(1,0,0,1,0,0)"><text x="44" y="272.71" style="fill: rgb(102,102,102); font-family: Lucida Sans; font-size: 11px; font-weight: bold; " text-rendering="auto" clip-path="url(#clip-0)">0.6</text></g><g transform="matrix(1,0,0,1,0,0)"><text x="44" y="246.02" style="fill: rgb(102,102,102); font-family: Lucida Sans; font-size: 11px; font-weight: bold; " text-rendering="auto" clip-path="url(#clip-0)">0.8</text></g><g transform="matrix(1,0,0,1,0,0)"><text x="44" y="219.33" style="fill: rgb(102,102,102); font-family: Lucida Sans; font-size: 11px; font-weight: bold; " text-rendering="auto" clip-path="url(#clip-0)">1.0</text></g><g transform="matrix(1,0,0,1,0,0)"><text x="44" y="192.64" style="fill: rgb(102,102,102); font-family: Lucida Sans; font-size: 11px; font-weight: bold; " text-rendering="auto" clip-path="url(#clip-0)">1.2</text></g><g transform="matrix(1,0,0,1,0,0)"><text x="44" y="165.95" style="fill: rgb(102,102,102); font-family: Lucida Sans; font-size: 11px; font-weight: bold; " text-rendering="auto" clip-path="url(#clip-0)">1.4</text></g><g transform="matrix(1,0,0,1,0,0)"><text x="44" y="139.25" style="fill: rgb(102,102,102); font-family: Lucida Sans; font-size: 11px; font-weight: bold; " text-rendering="auto" clip-path="url(#clip-0)">1.6</text></g><g transform="matrix(1,0,0,1,0,0)"><text x="44" y="112.56" style="fill: rgb(102,102,102); font-family: Lucida Sans; font-size: 11px; font-weight: bold; " text-rendering="auto" clip-path="url(#clip-0)">1.8</text></g><g transform="matrix(1,0,0,1,0,0)"><text x="44" y="85.87" style="fill: rgb(102,102,102); font-family: Lucida Sans; font-size: 11px; font-weight: bold; " text-rendering="auto" clip-path="url(#clip-0)">2.0</text></g><g style="fill: rgb(77,117,158);fill-opacity: 1; stroke: none" transform="matrix(0,-1,1,0,-259.5,304.5)" clip-path="url(#clip-6)"><path d="M 0.36 288.34 L 0.36 277.49 L 2.61 277.49 L 2.61 288.34 L 0.36 288.34 M 0.36 288.34 M 5.36 288.34 L 5.36 280.29 L 7.52 280.29 L 7.52 281.8 Q 8.58 280.12 10.27 280.12 Q 11.34 280.12 11.96 280.8 Q 12.58 281.48 12.58 282.65 L 12.58 288.34 L 10.42 288.34 L 10.42 283.18 Q 10.42 281.82 9.52 281.82 Q 8.47 281.82 7.52 283.27 L 7.52 288.34 L 5.36 288.34 M 5.36 288.34 M 20.42 288.34 L 20.42 286.82 Q 19.58 288.52 17.78 288.52 Q 16.34 288.52 15.52 287.46 Q 14.69 286.4 14.69 284.54 Q 14.69 282.51 15.62 281.31 Q 16.55 280.12 18.12 280.12 Q 19.39 280.12 20.42 281.1 L 20.42 276.77 L 22.59 276.77 L 22.59 288.34 L 20.42 288.34 M 20.42 288.34 M 20.42 282.4 Q 19.62 281.52 18.73 281.52 Q 17.94 281.52 17.46 282.29 Q 16.98 283.05 16.98 284.35 Q 16.98 286.82 18.58 286.82 Q 19.53 286.82 20.42 285.59 L 20.42 282.4 M 20.42 282.4 M 25.36 288.34 L 25.36 280.29 L 27.52 280.29 L 27.52 288.34 L 25.36 288.34 M 25.36 288.34 M 25.36 278.95 L 25.36 277.13 L 27.52 277.13 L 27.52 278.95 L 25.36 278.95 M 25.36 278.95 M 36.28 288.16 Q 34.94 288.52 33.8 288.52 Q 31.86 288.52 30.74 287.39 Q 29.62 286.26 29.62 284.3 Q 29.62 282.34 30.78 281.23 Q 31.94 280.12 33.95 280.12 Q 34.94 280.12 36.22 280.43 L 36.22 281.99 Q 34.89 281.55 34.09 281.55 Q 33.11 281.55 32.52 282.3 Q 31.94 283.05 31.94 284.29 Q 31.94 285.55 32.58 286.32 Q 33.22 287.09 34.28 287.09 Q 35.25 287.09 36.28 286.66 L 36.28 288.16 M 36.28 288.16 M 44.91 288.07 Q 43.36 288.52 41.97 288.52 Q 39.95 288.52 38.79 287.38 Q 37.62 286.23 37.62 284.26 Q 37.62 282.38 38.7 281.25 Q 39.77 280.12 41.52 280.12 Q 43.28 280.12 44.09 281.23 Q 44.91 282.34 44.91 284.74 L 39.92 284.74 Q 40.14 287.04 42.44 287.04 Q 43.53 287.04 44.91 286.54 L 44.91 288.07 M 44.91 288.07 M 39.89 283.52 L 42.77 283.52 Q 42.77 281.46 41.45 281.46 Q 40.09 281.46 39.89 283.52 M 39.89 283.52"/></g><line x1="67" y1="481.55" x2="1001" y2="481.55" style="stroke-width: 1.0;stroke: rgb(192,192,192);stroke-opacity: 1;" transform="matrix(1,0,0,1,0,0)" clip-path="url(#clip-7)"/><line x1="67" y1="454.86" x2="1001" y2="454.86" style="stroke-width: 1.0;stroke: rgb(192,192,192);stroke-opacity: 1;" transform="matrix(1,0,0,1,0,0)" clip-path="url(#clip-7)"/><line x1="67" y1="428.17" x2="1001" y2="428.17" style="stroke-width: 1.0;stroke: rgb(192,192,192);stroke-opacity: 1;" transform="matrix(1,0,0,1,0,0)" clip-path="url(#clip-7)"/><line x1="67" y1="401.48" x2="1001" y2="401.48" style="stroke-width: 1.0;stroke: rgb(192,192,192);stroke-opacity: 1;" transform="matrix(1,0,0,1,0,0)" clip-path="url(#clip-7)"/><line x1="67" y1="374.79" x2="1001" y2="374.79" style="stroke-width: 1.0;stroke: rgb(192,192,192);stroke-opacity: 1;" transform="matrix(1,0,0,1,0,0)" clip-path="url(#clip-7)"/><line x1="67" y1="321.41" x2="1001" y2="321.41" style="stroke-width: 1.0;stroke: rgb(192,192,192);stroke-opacity: 1;" transform="matrix(1,0,0,1,0,0)" clip-path="url(#clip-7)"/><line x1="67" y1="294.72" x2="1001" y2="294.72" style="stroke-width: 1.0;stroke: rgb(192,192,192);stroke-opacity: 1;" transform="matrix(1,0,0,1,0,0)" clip-path="url(#clip-7)"/><line x1="67" y1="268.03" x2="1001" y2="268.03" style="stroke-width: 1.0;stroke: rgb(192,192,192);stroke-opacity: 1;" transform="matrix(1,0,0,1,0,0)" clip-path="url(#clip-7)"/><line x1="67" y1="241.34" x2="1001" y2="241.34" style="stroke-width: 1.0;stroke: rgb(192,192,192);stroke-opacity: 1;" transform="matrix(1,0,0,1,0,0)" clip-path="url(#clip-7)"/><line x1="67" y1="214.65" x2="1001" y2="214.65" style="stroke-width: 1.0;stroke: rgb(192,192,192);stroke-opacity: 1;" transform="matrix(1,0,0,1,0,0)" clip-path="url(#clip-7)"/><line x1="67" y1="187.96" x2="1001" y2="187.96" style="stroke-width: 1.0;stroke: rgb(192,192,192);stroke-opacity: 1;" transform="matrix(1,0,0,1,0,0)" clip-path="url(#clip-7)"/><line x1="67" y1="161.27" x2="1001" y2="161.27" style="stroke-width: 1.0;stroke: rgb(192,192,192);stroke-opacity: 1;" transform="matrix(1,0,0,1,0,0)" clip-path="url(#clip-7)"/><line x1="67" y1="134.57" x2="1001" y2="134.57" style="stroke-width: 1.0;stroke: rgb(192,192,192);stroke-opacity: 1;" transform="matrix(1,0,0,1,0,0)" clip-path="url(#clip-7)"/><line x1="67" y1="107.88" x2="1001" y2="107.88" style="stroke-width: 1.0;stroke: rgb(192,192,192);stroke-opacity: 1;" transform="matrix(1,0,0,1,0,0)" clip-path="url(#clip-7)"/><line x1="67" y1="81.19" x2="1001" y2="81.19" style="stroke-width: 1.0;stroke: rgb(192,192,192);stroke-opacity: 1;" transform="matrix(1,0,0,1,0,0)" clip-path="url(#clip-7)"/><line x1="67" y1="348.1" x2="1001" y2="348.1" style="stroke-width: 0.5;stroke: rgb(134,145,156);stroke-opacity: 1;" transform="matrix(1,0,0,1,0,0)" clip-path="url(#clip-7)"/><rect x="193.09" y="348.1" width="32.69" height="132.36" style="fill: rgb(255,215,0);fill-opacity: 1" transform="matrix(1,0,0,1,0,0)" clip-path="url(#clip-7)"/><rect x="379.89" y="348.1" width="32.69" height="40.28" style="fill: rgb(255,215,0);fill-opacity: 1" transform="matrix(1,0,0,1,0,0)" clip-path="url(#clip-7)"/><rect x="566.69" y="63.82" width="32.69" height="284.28" style="fill: rgb(255,215,0);fill-opacity: 1" transform="matrix(1,0,0,1,0,0)" clip-path="url(#clip-7)"/><rect x="753.49" y="208.56" width="32.69" height="139.54" style="fill: rgb(255,215,0);fill-opacity: 1" transform="matrix(1,0,0,1,0,0)" clip-path="url(#clip-7)"/><rect x="940.29" y="318.7" width="32.69" height="29.4" style="fill: rgb(255,215,0);fill-opacity: 1" transform="matrix(1,0,0,1,0,0)" clip-path="url(#clip-7)"/><rect x="160.4" y="348.1" width="32.69" height="30.91" style="fill: rgb(0,139,0);fill-opacity: 1" transform="matrix(1,0,0,1,0,0)" clip-path="url(#clip-7)"/><rect x="347.2" y="348.1" width="32.69" height="30.04" style="fill: rgb(0,139,0);fill-opacity: 1" transform="matrix(1,0,0,1,0,0)" clip-path="url(#clip-7)"/><rect x="534" y="348.1" width="32.69" height="9.5" style="fill: rgb(0,139,0);fill-opacity: 1" transform="matrix(1,0,0,1,0,0)" clip-path="url(#clip-7)"/><rect x="720.8" y="229.14" width="32.69" height="118.96" style="fill: rgb(0,139,0);fill-opacity: 1" transform="matrix(1,0,0,1,0,0)" clip-path="url(#clip-7)"/><rect x="907.6" y="348.1" width="32.69" height="49.67" style="fill: rgb(0,139,0);fill-opacity: 1" transform="matrix(1,0,0,1,0,0)" clip-path="url(#clip-7)"/><rect x="127.71" y="271.83" width="32.69" height="76.27" style="fill: rgb(0,0,255);fill-opacity: 1" transform="matrix(1,0,0,1,0,0)" clip-path="url(#clip-7)"/><rect x="314.51" y="348.1" width="32.69" height="83.06" style="fill: rgb(0,0,255);fill-opacity: 1" transform="matrix(1,0,0,1,0,0)" clip-path="url(#clip-7)"/><rect x="501.31" y="348.1" width="32.69" height="63.96" style="fill: rgb(0,0,255);fill-opacity: 1" transform="matrix(1,0,0,1,0,0)" clip-path="url(#clip-7)"/><rect x="688.11" y="348.1" width="32.69" height="152.08" style="fill: rgb(0,0,255);fill-opacity: 1" transform="matrix(1,0,0,1,0,0)" clip-path="url(#clip-7)"/><rect x="874.91" y="260.57" width="32.69" height="87.53" style="fill: rgb(0,0,255);fill-opacity: 1" transform="matrix(1,0,0,1,0,0)" clip-path="url(#clip-7)"/><rect x="95.02" y="301.31" width="32.69" height="46.79" style="fill: rgb(255,0,0);fill-opacity: 1" transform="matrix(1,0,0,1,0,0)" clip-path="url(#clip-7)"/><rect x="281.82" y="348.1" width="32.69" height="60.61" style="fill: rgb(255,0,0);fill-opacity: 1" transform="matrix(1,0,0,1,0,0)" clip-path="url(#clip-7)"/><rect x="468.62" y="348.1" width="32.69" height="26.64" style="fill: rgb(255,0,0);fill-opacity: 1" transform="matrix(1,0,0,1,0,0)" clip-path="url(#clip-7)"/><rect x="655.42" y="348.1" width="32.69" height="46.88" style="fill: rgb(255,0,0);fill-opacity: 1" transform="matrix(1,0,0,1,0,0)" clip-path="url(#clip-7)"/><rect x="842.22" y="288.98" width="32.69" height="59.12" style="fill: rgb(255,0,0);fill-opacity: 1" transform="matrix(1,0,0,1,0,0)" clip-path="url(#clip-7)"/><line x1="67" y1="214.65" x2="1001" y2="214.65" style="stroke-width: 0.5;stroke: rgb(255,0,0);stroke-opacity: 1;" transform="matrix(1,0,0,1,0,0)" clip-path="url(#clip-7)"/><rect x="939" y="201.05" width="59" height="11" style="fill: rgb(100,100,100);fill-opacity: 0.392157" transform="matrix(1,0,0,1,0,0)" clip-path="url(#clip-7)"/><g transform="matrix(1,0,0,1,0,0)"><text x="939" y="209.75" style="fill: rgb(0,0,0); font-family: sans-serif; font-size: 9px; " text-rendering="auto" clip-path="url(#clip-7)">Banalité : 1.0</text></g><line x1="67" y1="481.55" x2="1001" y2="481.55" style="stroke-width: 0.5;stroke: rgb(255,0,0);stroke-opacity: 1;" transform="matrix(1,0,0,1,0,0)" clip-path="url(#clip-7)"/><rect x="934" y="467.95" width="64" height="11" style="fill: rgb(100,100,100);fill-opacity: 0.392157" transform="matrix(1,0,0,1,0,0)" clip-path="url(#clip-7)"/><g transform="matrix(1,0,0,1,0,0)"><text x="934" y="476.65" style="fill: rgb(0,0,0); font-family: sans-serif; font-size: 9px; " text-rendering="auto" clip-path="url(#clip-7)">Banalité : -1.0</text></g></svg>
