<!DOCTYPE svg PUBLIC "-//W3C//DTD SVG 1.1//EN" "http://www.w3.org/Graphics/SVG/1.1/DTD/svg11.dtd">
<svg style="stroke-linecap:square;" xmlns="http://www.w3.org/2000/svg" xmlns:xlink="http://www.w3.org/1999/xlink" width="1053" height="789">
<defs><clipPath id="clip-0"><path d="M 0 0 L 1053 0 L 1053 789 L 0 789 L 0 0 M 0 0"/></clipPath>
<clipPath id="clip-1"><path d="M 876.4 559.6 L 876.4 1612.6 L 87.4 1612.6 L 87.4 559.6 L 876.4 559.6 M 876.4 559.6"/></clipPath>
<clipPath id="clip-2"><path d="M 1059.2 376.8 L 1059.2 1429.8 L 270.2 1429.8 L 270.2 376.8 L 1059.2 376.8 M 1059.2 376.8"/></clipPath>
<clipPath id="clip-3"><path d="M 1242 194 L 1242 1247 L 453 1247 L 453 194 L 1242 194 M 1242 194"/></clipPath>
<clipPath id="clip-4"><path d="M 1424.8 11.2 L 1424.8 1064.2 L 635.8 1064.2 L 635.8 11.2 L 1424.8 11.2 M 1424.8 11.2"/></clipPath>
<clipPath id="clip-5"><path d="M 1607.6 -171.6 L 1607.6 881.4 L 818.6 881.4 L 818.6 -171.6 L 1607.6 -171.6 M 1607.6 -171.6"/></clipPath>
<clipPath id="clip-6"><path d="M 400.5 344.5 L 400.5 1397.5 L -388.5 1397.5 L -388.5 344.5 L 400.5 344.5 M 400.5 344.5"/></clipPath>
<clipPath id="clip-7"><path d="M 67 39 L 67 706 L 981 706 L 981 39 M 67 39"/></clipPath>
</defs>
<rect x="0" y="0" width="1053" height="789" style="fill: rgb(255,255,255);fill-opacity: 1" transform="matrix(1,0,0,1,0,0)" clip-path="url(#clip-0)"/><g transform="matrix(1,0,0,1,0,0)"><text x="459.5" y="22.54" style="fill: rgb(75,75,109); font-family: Hoefler Text; font-size: 16px; font-weight: bold; " text-rendering="auto" clip-path="url(#clip-0)">[ego, tu, meus, tuus]</text></g><rect x="1001" y="375" width="42" height="68" style="fill: rgb(255,255,255);fill-opacity: 1" transform="matrix(1,0,0,1,0,0)" clip-path="url(#clip-0)"/><g style="stroke-width: 1.0;stroke: rgb(192,192,192);stroke-opacity: 1; fill: none" transform="matrix(1,0,0,1,0,0)" clip-path="url(#clip-0)"><path d="M 1001 380 L 1001 438 C 1001 440.76 1003.24 443 1006 443 L 1038 443 C 1040.76 443 1043 440.76 1043 438 L 1043 380 C 1043 377.24 1040.76 375 1038 375 L 1006 375 C 1003.24 375 1001 377.24 1001 380 M 1001 380"/></g><g style="fill: rgb(255,0,0);fill-opacity: 1; stroke: none" transform="matrix(1,0,0,1,0,0)" clip-path="url(#clip-0)"><path d="M 1005 380 L 1011 380 L 1011 390 L 1005 390 L 1005 380 M 1005 380"/></g><g transform="matrix(1,0,0,1,0,0)"><text x="1015" y="386.93" style="fill: rgb(39,75,109); font-family: Hoefler Text; font-size: 11px; font-weight: bold; " text-rendering="auto" clip-path="url(#clip-0)">ego</text></g><g style="fill: rgb(0,0,255);fill-opacity: 1; stroke: none" transform="matrix(1,0,0,1,0,0)" clip-path="url(#clip-0)"><path d="M 1005 396 L 1011 396 L 1011 406 L 1005 406 L 1005 396 M 1005 396"/></g><g transform="matrix(1,0,0,1,0,0)"><text x="1015" y="402.93" style="fill: rgb(39,75,109); font-family: Hoefler Text; font-size: 11px; font-weight: bold; " text-rendering="auto" clip-path="url(#clip-0)">tu</text></g><g style="fill: rgb(0,139,0);fill-opacity: 1; stroke: none" transform="matrix(1,0,0,1,0,0)" clip-path="url(#clip-0)"><path d="M 1005 412 L 1011 412 L 1011 422 L 1005 422 L 1005 412 M 1005 412"/></g><g transform="matrix(1,0,0,1,0,0)"><text x="1015" y="418.93" style="fill: rgb(39,75,109); font-family: Hoefler Text; font-size: 11px; font-weight: bold; " text-rendering="auto" clip-path="url(#clip-0)">meus</text></g><g style="fill: rgb(255,215,0);fill-opacity: 1; stroke: none" transform="matrix(1,0,0,1,0,0)" clip-path="url(#clip-0)"><path d="M 1005 428 L 1011 428 L 1011 438 L 1005 438 L 1005 428 M 1005 428"/></g><g transform="matrix(1,0,0,1,0,0)"><text x="1015" y="434.93" style="fill: rgb(39,75,109); font-family: Hoefler Text; font-size: 11px; font-weight: bold; " text-rendering="auto" clip-path="url(#clip-0)">tuus</text></g><rect x="67" y="39" width="914" height="667" style="fill: rgb(255,255,255);fill-opacity: 1" transform="matrix(1,0,0,1,0,0)" clip-path="url(#clip-0)"/><line x1="67" y1="706" x2="981" y2="706" style="stroke-width: 0.5;stroke: rgb(192,208,224);stroke-opacity: 1;" transform="matrix(1,0,0,1,0,0)" clip-path="url(#clip-0)"/><g style="fill: rgb(102,102,102);fill-opacity: 1; stroke: none" transform="matrix(0,-1,1,0,-559.600006,876.399994)" clip-path="url(#clip-1)"><path d="M 135.46 720.84 Q 135.46 721 135.37 721 Q 134.99 721 134.51 720.96 Q 134.1 720.93 133.81 720.93 Q 133.47 720.93 132.98 720.96 Q 132.45 721 132.09 721 Q 132 721 132 720.84 Q 132 720.69 132.06 720.69 Q 132.55 720.67 132.77 720.56 Q 132.98 720.45 132.98 720.23 Q 132.98 720.08 132.87 719.77 L 132.25 717.93 L 129.99 717.93 L 129.36 719.63 Q 129.24 719.97 129.24 720.16 Q 129.24 720.65 130.13 720.69 Q 130.19 720.69 130.19 720.84 Q 130.19 721 130.11 721 Q 129.78 721 129.37 720.96 Q 128.99 720.93 128.7 720.93 Q 128.46 720.93 128.1 720.96 Q 127.73 721 127.47 721 Q 127.38 721 127.38 720.86 Q 127.38 720.71 127.51 720.69 Q 127.97 720.65 128.23 720.44 Q 128.5 720.23 128.79 719.59 L 131.36 713.27 Q 131.39 713.18 131.51 713.18 Q 131.65 713.18 131.68 713.26 L 133.95 719.59 Q 134.14 720.12 134.47 720.38 Q 134.8 720.63 135.35 720.69 Q 135.46 720.71 135.46 720.84 M 135.46 720.84 M 132.13 717.58 L 131.16 714.77 L 130.12 717.58 M 132.13 717.58 M 140.03 716.95 Q 140.03 717.4 139.58 717.4 Q 139.39 717.4 139.26 717.32 Q 139.14 717.24 139.01 716.96 Q 138.86 716.64 138.7 716.53 Q 138.53 716.43 138.26 716.43 Q 137.59 716.43 137.25 716.98 Q 136.9 717.54 136.9 718.6 Q 136.9 719.48 137.34 720.03 Q 137.78 720.57 138.51 720.57 Q 139.35 720.57 139.84 720.05 L 139.87 720.03 Q 139.92 720.03 139.96 720.1 Q 140.01 720.16 140.01 720.24 Q 140.01 720.35 139.69 720.62 Q 139.37 720.89 138.98 721.02 Q 138.6 721.16 138.17 721.16 Q 137.19 721.16 136.49 720.44 Q 135.78 719.72 135.78 718.61 Q 135.78 717.52 136.52 716.8 Q 137.25 716.08 138.26 716.08 Q 139 716.08 139.52 716.34 Q 140.03 716.59 140.03 716.95 M 140.03 716.95 M 145.03 716.95 Q 145.03 717.4 144.58 717.4 Q 144.39 717.4 144.26 717.32 Q 144.14 717.24 144.01 716.96 Q 143.86 716.64 143.7 716.53 Q 143.53 716.43 143.26 716.43 Q 142.59 716.43 142.25 716.98 Q 141.9 717.54 141.9 718.6 Q 141.9 719.48 142.34 720.03 Q 142.78 720.57 143.51 720.57 Q 144.35 720.57 144.84 720.05 L 144.87 720.03 Q 144.92 720.03 144.96 720.1 Q 145.01 720.16 145.01 720.24 Q 145.01 720.35 144.69 720.62 Q 144.37 720.89 143.98 721.02 Q 143.6 721.16 143.17 721.16 Q 142.19 721.16 141.49 720.44 Q 140.78 719.72 140.78 718.61 Q 140.78 717.52 141.52 716.8 Q 142.25 716.08 143.26 716.08 Q 144 716.08 144.52 716.34 Q 145.03 716.59 145.03 716.95 M 145.03 716.95 M 147.56 714.19 Q 147.56 714.42 147.39 714.6 Q 147.22 714.77 146.98 714.77 Q 146.75 714.77 146.58 714.6 Q 146.41 714.42 146.41 714.19 Q 146.41 713.95 146.58 713.79 Q 146.74 713.62 146.98 713.62 Q 147.22 713.62 147.39 713.79 Q 147.56 713.95 147.56 714.19 M 147.56 714.19 M 148.33 720.84 Q 148.33 721 148.24 721 Q 148.01 721 147.66 720.96 Q 147.26 720.93 146.99 720.93 Q 146.72 720.93 146.33 720.96 Q 145.99 721 145.76 721 Q 145.67 721 145.67 720.84 Q 145.67 720.71 145.76 720.69 Q 146.23 720.63 146.37 720.47 Q 146.5 720.3 146.5 719.77 L 146.5 717.73 Q 146.5 717.29 146.39 717.15 Q 146.27 717.02 145.89 716.97 Q 145.81 716.97 145.81 716.83 Q 145.81 716.7 145.89 716.7 Q 146.47 716.55 146.84 716.38 Q 147.21 716.21 147.3 716.1 Q 147.36 716.04 147.42 716.04 Q 147.58 716.04 147.58 716.12 Q 147.49 717.36 147.49 718.04 L 147.49 719.77 Q 147.49 720.3 147.62 720.47 Q 147.76 720.63 148.24 720.69 Q 148.33 720.71 148.33 720.84 M 148.33 720.84 M 154.03 720.63 Q 154.03 720.75 153.94 720.76 Q 152.94 720.87 152.57 721.15 Q 152.49 721.21 152.41 721.21 Q 152.3 721.21 152.3 721.12 L 152.35 720.43 Q 151.53 721.16 150.88 721.16 Q 150.12 721.16 149.7 720.74 Q 149.28 720.31 149.28 719.58 L 149.28 717.52 Q 149.28 717.03 149.15 716.87 Q 149.03 716.71 148.65 716.71 Q 148.58 716.71 148.49 716.72 Q 148.41 716.72 148.41 716.58 Q 148.41 716.4 148.5 716.4 Q 149.14 716.4 150.17 716.15 Q 150.27 716.15 150.27 716.29 L 150.27 719.31 Q 150.27 719.94 150.51 720.22 Q 150.74 720.5 151.25 720.5 Q 151.57 720.5 151.82 720.38 Q 152.07 720.26 152.35 719.95 L 152.35 717.52 Q 152.35 717.04 152.22 716.87 Q 152.09 716.71 151.71 716.71 Q 151.64 716.71 151.55 716.72 Q 151.47 716.72 151.47 716.58 Q 151.47 716.4 151.56 716.4 Q 152.19 716.4 153.23 716.15 Q 153.33 716.15 153.33 716.29 L 153.33 719.8 Q 153.33 720.18 153.44 720.31 Q 153.54 720.44 153.94 720.49 Q 154.03 720.49 154.03 720.63 M 154.03 720.63 M 158.25 719.58 Q 158.25 720.25 157.72 720.71 Q 157.19 721.16 156.45 721.16 Q 156.18 721.16 155.63 721.05 Q 155.22 720.96 155.07 720.96 Q 155.03 720.58 154.87 719.79 Q 154.87 719.71 155.03 719.71 Q 155.16 719.71 155.19 719.8 Q 155.31 720.21 155.69 720.51 Q 156.06 720.81 156.46 720.81 Q 156.87 720.81 157.1 720.58 Q 157.33 720.36 157.33 719.95 Q 157.33 719.69 157.14 719.5 Q 156.95 719.3 156.31 719.01 Q 155.48 718.63 155.22 718.29 Q 154.95 717.96 154.95 717.49 Q 154.95 716.91 155.45 716.5 Q 155.95 716.08 156.63 716.08 Q 156.92 716.08 157.44 716.18 Q 157.72 716.23 157.81 716.23 Q 157.83 716.88 157.88 717.34 Q 157.88 717.42 157.72 717.42 Q 157.58 717.42 157.57 717.33 Q 157.51 716.93 157.27 716.68 Q 157.02 716.43 156.69 716.43 Q 155.83 716.43 155.83 717.18 Q 155.83 717.43 156.03 717.65 Q 156.24 717.86 156.92 718.2 Q 157.73 718.61 157.99 718.91 Q 158.25 719.2 158.25 719.58 M 158.25 719.58"/></g><line x1="249.8" y1="711" x2="249.8" y2="706" style="stroke-width: 0.5;stroke: rgb(192,208,224);stroke-opacity: 1;" transform="matrix(1,0,0,1,0,0)" clip-path="url(#clip-0)"/><line x1="67" y1="711" x2="67" y2="706" style="stroke-width: 0.5;stroke: rgb(192,208,224);stroke-opacity: 1;" transform="matrix(1,0,0,1,0,0)" clip-path="url(#clip-0)"/><g style="fill: rgb(102,102,102);fill-opacity: 1; stroke: none" transform="matrix(0,-1,1,0,-376.799988,1059.200012)" clip-path="url(#clip-2)"><path d="M 316.23 719.18 Q 315.79 720.13 315.51 721 Q 313.43 720.93 312.56 720.93 Q 311.69 720.93 309.61 721 Q 309.52 721 309.52 720.84 Q 309.52 720.71 309.61 720.69 Q 310.06 720.64 310.31 720.55 Q 310.55 720.46 310.64 720.3 Q 310.74 720.15 310.74 719.77 L 310.74 714.59 Q 310.74 714.21 310.65 714.05 Q 310.56 713.9 310.32 713.8 Q 310.07 713.71 309.61 713.65 Q 309.52 713.65 309.52 713.5 Q 309.52 713.35 309.61 713.35 Q 310.99 713.41 312.45 713.41 Q 313.91 713.41 315.29 713.35 Q 315.42 714.2 315.66 715.03 Q 315.66 715.14 315.46 715.14 Q 315.37 715.14 315.35 715.06 Q 314.94 713.76 313.61 713.76 L 312.5 713.76 Q 311.86 713.76 311.86 714.42 L 311.86 716.87 L 313.25 716.87 Q 313.8 716.87 313.99 716.62 Q 314.19 716.37 314.27 715.72 Q 314.27 715.63 314.42 715.63 Q 314.57 715.63 314.57 715.72 Q 314.57 716 314.54 716.42 Q 314.51 716.82 314.51 717.07 Q 314.51 717.33 314.54 717.73 Q 314.57 718.16 314.57 718.43 Q 314.57 718.52 314.42 718.52 Q 314.27 718.52 314.27 718.43 Q 314.18 717.76 313.98 717.49 Q 313.77 717.22 313.25 717.22 L 311.86 717.22 L 311.86 719.93 Q 311.86 720.58 312.5 720.58 L 313.7 720.58 Q 314.35 720.58 315 720.15 Q 315.64 719.73 315.94 719.09 Q 315.97 719.04 316.04 719.04 Q 316.11 719.04 316.17 719.08 Q 316.23 719.12 316.23 719.18 M 316.23 719.18 M 322.17 720.84 Q 322.17 721 322.08 721 Q 321.86 721 321.54 720.96 Q 321.19 720.93 320.92 720.93 Q 320.64 720.93 320.29 720.96 Q 319.96 721 319.74 721 Q 319.65 721 319.65 720.84 Q 319.65 720.71 319.74 720.69 Q 320.12 720.65 320.24 720.48 Q 320.36 720.31 320.36 719.77 L 320.36 717.93 Q 320.36 717.31 320.12 717.03 Q 319.87 716.74 319.37 716.74 Q 319.05 716.74 318.8 716.86 Q 318.56 716.98 318.28 717.29 L 318.28 719.77 Q 318.28 720.31 318.4 720.48 Q 318.52 720.65 318.9 720.69 Q 318.98 720.71 318.98 720.84 Q 318.98 721 318.9 721 Q 318.67 721 318.35 720.96 Q 317.99 720.93 317.72 720.93 Q 317.45 720.93 317.1 720.96 Q 316.78 721 316.55 721 Q 316.46 721 316.46 720.84 Q 316.46 720.71 316.55 720.69 Q 317.03 720.63 317.16 720.47 Q 317.3 720.3 317.3 719.77 L 317.3 717.73 Q 317.3 717.29 317.19 717.15 Q 317.07 717.02 316.68 716.97 Q 316.6 716.97 316.6 716.83 Q 316.6 716.7 316.68 716.7 Q 317.23 716.56 317.59 716.39 Q 317.95 716.21 318.05 716.1 Q 318.1 716.04 318.17 716.04 Q 318.32 716.04 318.32 716.12 L 318.28 716.82 Q 319.07 716.08 319.75 716.08 Q 320.5 716.08 320.92 716.51 Q 321.34 716.94 321.34 717.66 L 321.34 719.77 Q 321.34 720.3 321.48 720.47 Q 321.61 720.63 322.08 720.69 Q 322.17 720.71 322.17 720.84 M 322.17 720.84 M 328.17 720.84 Q 328.17 721 328.08 721 Q 327.86 721 327.54 720.96 Q 327.19 720.93 326.92 720.93 Q 326.64 720.93 326.29 720.96 Q 325.96 721 325.74 721 Q 325.65 721 325.65 720.84 Q 325.65 720.71 325.74 720.69 Q 326.12 720.65 326.24 720.48 Q 326.36 720.31 326.36 719.77 L 326.36 717.93 Q 326.36 717.31 326.12 717.03 Q 325.87 716.74 325.37 716.74 Q 325.05 716.74 324.8 716.86 Q 324.56 716.98 324.28 717.29 L 324.28 719.77 Q 324.28 720.31 324.4 720.48 Q 324.52 720.65 324.9 720.69 Q 324.98 720.71 324.98 720.84 Q 324.98 721 324.9 721 Q 324.67 721 324.35 720.96 Q 323.99 720.93 323.72 720.93 Q 323.45 720.93 323.1 720.96 Q 322.78 721 322.55 721 Q 322.46 721 322.46 720.84 Q 322.46 720.71 322.55 720.69 Q 323.03 720.63 323.16 720.47 Q 323.3 720.3 323.3 719.77 L 323.3 717.73 Q 323.3 717.29 323.19 717.15 Q 323.07 717.02 322.68 716.97 Q 322.6 716.97 322.6 716.83 Q 322.6 716.7 322.68 716.7 Q 323.23 716.56 323.59 716.39 Q 323.95 716.21 324.05 716.1 Q 324.1 716.04 324.17 716.04 Q 324.32 716.04 324.32 716.12 L 324.28 716.82 Q 325.07 716.08 325.75 716.08 Q 326.5 716.08 326.92 716.51 Q 327.34 716.94 327.34 717.66 L 327.34 719.77 Q 327.34 720.3 327.48 720.47 Q 327.61 720.63 328.08 720.69 Q 328.17 720.71 328.17 720.84 M 328.17 720.84 M 330.36 714.19 Q 330.36 714.42 330.19 714.6 Q 330.02 714.77 329.78 714.77 Q 329.55 714.77 329.38 714.6 Q 329.21 714.42 329.21 714.19 Q 329.21 713.95 329.38 713.79 Q 329.54 713.62 329.78 713.62 Q 330.02 713.62 330.19 713.79 Q 330.36 713.95 330.36 714.19 M 330.36 714.19 M 331.13 720.84 Q 331.13 721 331.04 721 Q 330.81 721 330.46 720.96 Q 330.06 720.93 329.8 720.93 Q 329.52 720.93 329.14 720.96 Q 328.79 721 328.56 721 Q 328.48 721 328.48 720.84 Q 328.48 720.71 328.56 720.69 Q 329.03 720.63 329.17 720.47 Q 329.3 720.3 329.3 719.77 L 329.3 717.73 Q 329.3 717.29 329.19 717.15 Q 329.07 717.02 328.7 716.97 Q 328.61 716.97 328.61 716.83 Q 328.61 716.7 328.7 716.7 Q 329.27 716.55 329.64 716.38 Q 330.01 716.21 330.1 716.1 Q 330.16 716.04 330.22 716.04 Q 330.38 716.04 330.38 716.12 Q 330.29 717.36 330.29 718.04 L 330.29 719.77 Q 330.29 720.3 330.42 720.47 Q 330.56 720.63 331.04 720.69 Q 331.13 720.71 331.13 720.84 M 331.13 720.84 M 336.83 720.63 Q 336.83 720.75 336.74 720.76 Q 335.74 720.87 335.37 721.15 Q 335.29 721.21 335.22 721.21 Q 335.11 721.21 335.11 721.12 L 335.15 720.43 Q 334.34 721.16 333.68 721.16 Q 332.92 721.16 332.5 720.74 Q 332.08 720.31 332.08 719.58 L 332.08 717.52 Q 332.08 717.03 331.95 716.87 Q 331.83 716.71 331.45 716.71 Q 331.38 716.71 331.29 716.72 Q 331.21 716.72 331.21 716.58 Q 331.21 716.4 331.3 716.4 Q 331.94 716.4 332.97 716.15 Q 333.07 716.15 333.07 716.29 L 333.07 719.31 Q 333.07 719.94 333.31 720.22 Q 333.54 720.5 334.05 720.5 Q 334.37 720.5 334.62 720.38 Q 334.87 720.26 335.15 719.95 L 335.15 717.52 Q 335.15 717.04 335.02 716.87 Q 334.89 716.71 334.51 716.71 Q 334.44 716.71 334.35 716.72 Q 334.27 716.72 334.27 716.58 Q 334.27 716.4 334.36 716.4 Q 335 716.4 336.03 716.15 Q 336.13 716.15 336.13 716.29 L 336.13 719.8 Q 336.13 720.18 336.24 720.31 Q 336.34 720.44 336.74 720.49 Q 336.83 720.49 336.83 720.63 M 336.83 720.63 M 341.05 719.58 Q 341.05 720.25 340.52 720.71 Q 339.99 721.16 339.25 721.16 Q 338.98 721.16 338.43 721.05 Q 338.02 720.96 337.87 720.96 Q 337.83 720.58 337.67 719.79 Q 337.67 719.71 337.83 719.71 Q 337.96 719.71 337.99 719.8 Q 338.11 720.21 338.49 720.51 Q 338.86 720.81 339.26 720.81 Q 339.67 720.81 339.9 720.58 Q 340.13 720.36 340.13 719.95 Q 340.13 719.69 339.94 719.5 Q 339.75 719.3 339.11 719.01 Q 338.28 718.63 338.02 718.29 Q 337.75 717.96 337.75 717.49 Q 337.75 716.91 338.25 716.5 Q 338.75 716.08 339.43 716.08 Q 339.72 716.08 340.24 716.18 Q 340.52 716.23 340.61 716.23 Q 340.63 716.88 340.68 717.34 Q 340.68 717.42 340.52 717.42 Q 340.38 717.42 340.37 717.33 Q 340.31 716.93 340.07 716.68 Q 339.82 716.43 339.49 716.43 Q 338.63 716.43 338.63 717.18 Q 338.63 717.43 338.83 717.65 Q 339.04 717.86 339.72 718.2 Q 340.53 718.61 340.79 718.91 Q 341.05 719.2 341.05 719.58 M 341.05 719.58"/></g><line x1="432.6" y1="711" x2="432.6" y2="706" style="stroke-width: 0.5;stroke: rgb(192,208,224);stroke-opacity: 1;" transform="matrix(1,0,0,1,0,0)" clip-path="url(#clip-0)"/><g style="fill: rgb(102,102,102);fill-opacity: 1; stroke: none" transform="matrix(0,-1,1,0,-194,1242)" clip-path="url(#clip-3)"><path d="M 502.76 718.97 Q 502.5 719.94 502.35 721 Q 500.25 720.93 499.36 720.93 Q 498.48 720.93 496.4 721 Q 496.31 721 496.31 720.84 Q 496.31 720.71 496.4 720.69 Q 497.06 720.62 497.3 720.45 Q 497.54 720.28 497.54 719.77 L 497.54 714.59 Q 497.54 714.2 497.44 714.05 Q 497.35 713.89 497.11 713.8 Q 496.86 713.71 496.4 713.65 Q 496.31 713.65 496.31 713.5 Q 496.31 713.35 496.4 713.35 Q 496.76 713.35 497.28 713.38 Q 497.77 713.41 498.1 713.41 Q 498.44 713.41 498.92 713.38 Q 499.43 713.35 499.8 713.35 Q 499.88 713.35 499.88 713.5 Q 499.88 713.65 499.8 713.65 Q 499.33 713.71 499.09 713.8 Q 498.85 713.89 498.76 714.05 Q 498.66 714.2 498.66 714.59 L 498.66 719.93 Q 498.66 720.58 499.3 720.58 L 500.39 720.58 Q 501.07 720.58 501.53 720.22 Q 502 719.86 502.46 718.87 Q 502.48 718.83 502.56 718.83 Q 502.63 718.83 502.7 718.87 Q 502.76 718.92 502.76 718.97 M 502.76 718.97 M 505.16 714.19 Q 505.16 714.42 504.99 714.6 Q 504.82 714.77 504.58 714.77 Q 504.35 714.77 504.18 714.6 Q 504.01 714.42 504.01 714.19 Q 504.01 713.95 504.18 713.79 Q 504.34 713.62 504.58 713.62 Q 504.82 713.62 504.99 713.79 Q 505.16 713.95 505.16 714.19 M 505.16 714.19 M 505.93 720.84 Q 505.93 721 505.84 721 Q 505.61 721 505.26 720.96 Q 504.86 720.93 504.6 720.93 Q 504.32 720.93 503.93 720.96 Q 503.59 721 503.36 721 Q 503.27 721 503.27 720.84 Q 503.27 720.71 503.36 720.69 Q 503.83 720.63 503.97 720.47 Q 504.1 720.3 504.1 719.77 L 504.1 717.73 Q 504.1 717.29 503.99 717.15 Q 503.87 717.02 503.49 716.97 Q 503.41 716.97 503.41 716.83 Q 503.41 716.7 503.49 716.7 Q 504.07 716.55 504.44 716.38 Q 504.81 716.21 504.9 716.1 Q 504.96 716.04 505.02 716.04 Q 505.18 716.04 505.18 716.12 Q 505.09 717.36 505.09 718.04 L 505.09 719.77 Q 505.09 720.3 505.22 720.47 Q 505.36 720.63 505.84 720.69 Q 505.93 720.71 505.93 720.84 M 505.93 720.84 M 511.22 716.41 Q 511.22 716.55 511.13 716.56 Q 510.67 716.61 510.51 716.78 Q 510.36 716.95 510.12 717.49 L 508.54 721.09 Q 508.5 721.17 508.41 721.17 Q 508.31 721.17 508.27 721.09 L 506.79 717.49 Q 506.59 716.98 506.38 716.8 Q 506.17 716.61 505.81 716.56 Q 505.73 716.55 505.73 716.41 Q 505.73 716.26 505.81 716.26 Q 506.04 716.26 506.37 716.29 Q 506.74 716.32 507 716.32 Q 507.27 716.32 507.66 716.29 Q 508 716.26 508.22 716.26 Q 508.31 716.26 508.31 716.41 Q 508.31 716.55 508.22 716.56 Q 507.89 716.6 507.77 716.68 Q 507.64 716.75 507.64 716.89 Q 507.64 717.06 507.8 717.48 L 508.71 719.82 L 509.62 717.49 Q 509.78 717.08 509.78 716.89 Q 509.78 716.75 509.66 716.68 Q 509.54 716.6 509.22 716.56 Q 509.14 716.55 509.14 716.41 Q 509.14 716.26 509.22 716.26 Q 509.45 716.26 509.74 716.29 Q 510.01 716.32 510.22 716.32 Q 510.33 716.32 510.58 716.29 Q 510.92 716.26 511.13 716.26 Q 511.22 716.26 511.22 716.41 M 511.22 716.41 M 513.16 714.19 Q 513.16 714.42 512.99 714.6 Q 512.82 714.77 512.58 714.77 Q 512.35 714.77 512.18 714.6 Q 512.01 714.42 512.01 714.19 Q 512.01 713.95 512.18 713.79 Q 512.34 713.62 512.58 713.62 Q 512.82 713.62 512.99 713.79 Q 513.16 713.95 513.16 714.19 M 513.16 714.19 M 513.93 720.84 Q 513.93 721 513.84 721 Q 513.61 721 513.26 720.96 Q 512.86 720.93 512.59 720.93 Q 512.32 720.93 511.93 720.96 Q 511.59 721 511.36 721 Q 511.27 721 511.27 720.84 Q 511.27 720.71 511.36 720.69 Q 511.83 720.63 511.97 720.47 Q 512.1 720.3 512.1 719.77 L 512.1 717.73 Q 512.1 717.29 511.99 717.15 Q 511.87 717.02 511.49 716.97 Q 511.41 716.97 511.41 716.83 Q 511.41 716.7 511.49 716.7 Q 512.07 716.55 512.44 716.38 Q 512.81 716.21 512.9 716.1 Q 512.96 716.04 513.02 716.04 Q 513.18 716.04 513.18 716.12 Q 513.09 717.36 513.09 718.04 L 513.09 719.77 Q 513.09 720.3 513.22 720.47 Q 513.36 720.63 513.84 720.69 Q 513.93 720.71 513.93 720.84 M 513.93 720.84 M 519.63 720.63 Q 519.63 720.75 519.54 720.76 Q 518.54 720.87 518.17 721.15 Q 518.09 721.21 518.02 721.21 Q 517.91 721.21 517.91 721.12 L 517.95 720.43 Q 517.14 721.16 516.47 721.16 Q 515.72 721.16 515.3 720.74 Q 514.88 720.31 514.88 719.58 L 514.88 717.52 Q 514.88 717.03 514.75 716.87 Q 514.63 716.71 514.25 716.71 Q 514.18 716.71 514.09 716.72 Q 514.01 716.72 514.01 716.58 Q 514.01 716.4 514.1 716.4 Q 514.74 716.4 515.77 716.15 Q 515.87 716.15 515.87 716.29 L 515.87 719.31 Q 515.87 719.94 516.11 720.22 Q 516.34 720.5 516.85 720.5 Q 517.17 720.5 517.42 720.38 Q 517.67 720.26 517.95 719.95 L 517.95 717.52 Q 517.95 717.04 517.82 716.87 Q 517.69 716.71 517.31 716.71 Q 517.24 716.71 517.15 716.72 Q 517.07 716.72 517.07 716.58 Q 517.07 716.4 517.16 716.4 Q 517.79 716.4 518.83 716.15 Q 518.93 716.15 518.93 716.29 L 518.93 719.8 Q 518.93 720.18 519.04 720.31 Q 519.14 720.44 519.54 720.49 Q 519.63 720.49 519.63 720.63 M 519.63 720.63 M 523.85 719.58 Q 523.85 720.25 523.32 720.71 Q 522.79 721.16 522.05 721.16 Q 521.78 721.16 521.23 721.05 Q 520.82 720.96 520.67 720.96 Q 520.63 720.58 520.47 719.79 Q 520.47 719.71 520.63 719.71 Q 520.76 719.71 520.79 719.8 Q 520.91 720.21 521.29 720.51 Q 521.66 720.81 522.06 720.81 Q 522.47 720.81 522.7 720.58 Q 522.93 720.36 522.93 719.95 Q 522.93 719.69 522.74 719.5 Q 522.55 719.3 521.91 719.01 Q 521.08 718.63 520.82 718.29 Q 520.55 717.96 520.55 717.49 Q 520.55 716.91 521.05 716.5 Q 521.55 716.08 522.23 716.08 Q 522.52 716.08 523.04 716.18 Q 523.32 716.23 523.41 716.23 Q 523.43 716.88 523.48 717.34 Q 523.48 717.42 523.32 717.42 Q 523.18 717.42 523.17 717.33 Q 523.11 716.93 522.87 716.68 Q 522.62 716.43 522.29 716.43 Q 521.43 716.43 521.43 717.18 Q 521.43 717.43 521.63 717.65 Q 521.84 717.86 522.52 718.2 Q 523.33 718.61 523.59 718.91 Q 523.85 719.2 523.85 719.58 M 523.85 719.58"/></g><line x1="615.4" y1="711" x2="615.4" y2="706" style="stroke-width: 0.5;stroke: rgb(192,208,224);stroke-opacity: 1;" transform="matrix(1,0,0,1,0,0)" clip-path="url(#clip-0)"/><g style="fill: rgb(102,102,102);fill-opacity: 1; stroke: none" transform="matrix(0,-1,1,0,-11.200012,1424.799988)" clip-path="url(#clip-4)"><path d="M 681.23 713.51 Q 681.23 713.65 681.14 713.66 Q 680.46 713.74 680.2 713.91 Q 679.95 714.09 679.93 714.59 L 679.81 721.06 Q 679.81 721.17 679.68 721.17 Q 679.62 721.17 679.51 721.09 L 673.83 714.68 L 673.76 719.77 Q 673.75 719.81 673.75 719.85 Q 673.75 720.27 674.02 720.44 Q 674.28 720.61 674.97 720.69 Q 675.06 720.71 675.06 720.84 Q 675.06 721 674.97 721 Q 674.68 721 674.18 720.96 Q 673.71 720.93 673.46 720.93 Q 673.19 720.93 672.72 720.96 Q 672.27 721 672.02 721 Q 671.93 721 671.93 720.84 Q 671.93 720.71 672.03 720.69 Q 672.71 720.61 672.97 720.44 Q 673.22 720.27 673.24 719.77 L 673.43 714.59 L 673.43 714.54 Q 673.43 714.09 673.17 713.92 Q 672.91 713.74 672.21 713.65 Q 672.13 713.65 672.13 713.5 Q 672.13 713.35 672.22 713.35 Q 672.41 713.35 672.76 713.38 Q 673.07 713.41 673.22 713.41 Q 673.41 713.41 673.68 713.38 Q 673.96 713.35 674.15 713.35 L 679.45 719.27 L 679.45 714.59 Q 679.45 714.12 679.18 713.93 Q 678.92 713.74 678.2 713.66 Q 678.11 713.65 678.11 713.51 Q 678.11 713.36 678.2 713.36 Q 678.49 713.36 678.99 713.39 Q 679.45 713.41 679.7 713.41 Q 679.98 713.41 680.45 713.39 Q 680.9 713.36 681.14 713.36 Q 681.23 713.36 681.23 713.51 M 681.23 713.51 M 688.11 719.93 Q 688.11 720.05 687.76 720.41 Q 687.41 720.78 687 720.97 Q 686.58 721.16 686.13 721.16 Q 685 721.16 684.3 720.25 Q 683.59 721.16 682.45 721.16 Q 681.95 721.16 681.62 720.85 Q 681.29 720.55 681.29 720.1 Q 681.29 719.56 681.87 719.14 Q 682.44 718.73 683.81 718.38 Q 683.88 718.37 683.91 718.36 L 683.91 717.41 Q 683.91 717 683.71 716.76 Q 683.51 716.52 683.18 716.52 Q 682.86 716.52 682.64 716.68 Q 682.42 716.83 682.42 717.07 Q 682.42 717.42 682.24 717.62 Q 682.07 717.82 681.78 717.82 Q 681.6 717.82 681.48 717.71 Q 681.37 717.61 681.37 717.43 Q 681.37 716.99 682.12 716.53 Q 682.87 716.08 683.53 716.08 Q 684.28 716.08 684.66 716.62 Q 685.29 716.08 686.13 716.08 Q 686.64 716.08 687.06 716.32 Q 687.48 716.57 687.76 716.98 Q 688.03 717.4 688.03 717.6 Q 688.03 717.77 687.74 717.83 L 684.9 718.49 L 684.9 718.64 Q 684.9 719.53 685.32 720 Q 685.74 720.48 686.51 720.48 Q 686.9 720.48 687.3 720.27 Q 687.69 720.06 687.93 719.74 L 687.97 719.73 Q 688.02 719.73 688.07 719.79 Q 688.11 719.85 688.11 719.93 M 688.11 719.93 M 686.13 716.43 Q 685.66 716.43 685.33 716.89 Q 685 717.34 684.91 718.13 L 686.73 717.66 Q 686.98 717.61 686.98 717.46 Q 686.98 717.05 686.76 716.74 Q 686.54 716.43 686.13 716.43 M 686.13 716.43 M 683.91 720.12 L 683.91 718.71 Q 683.02 718.91 682.68 719.17 Q 682.34 719.44 682.34 719.84 Q 682.34 720.21 682.51 720.42 Q 682.68 720.62 682.98 720.62 Q 683.26 720.62 683.54 720.48 Q 683.82 720.33 683.91 720.12 M 683.91 720.12 M 694.02 716.41 Q 694.02 716.55 693.93 716.56 Q 693.47 716.61 693.31 716.78 Q 693.16 716.95 692.92 717.49 L 691.34 721.09 Q 691.3 721.17 691.21 721.17 Q 691.11 721.17 691.07 721.09 L 689.59 717.49 Q 689.39 716.98 689.18 716.8 Q 688.97 716.61 688.61 716.56 Q 688.52 716.55 688.52 716.41 Q 688.52 716.26 688.61 716.26 Q 688.84 716.26 689.17 716.29 Q 689.54 716.32 689.8 716.32 Q 690.07 716.32 690.46 716.29 Q 690.8 716.26 691.02 716.26 Q 691.11 716.26 691.11 716.41 Q 691.11 716.55 691.02 716.56 Q 690.69 716.6 690.57 716.68 Q 690.44 716.75 690.44 716.89 Q 690.44 717.06 690.6 717.48 L 691.51 719.82 L 692.42 717.49 Q 692.58 717.08 692.58 716.89 Q 692.58 716.75 692.46 716.68 Q 692.34 716.6 692.02 716.56 Q 691.93 716.55 691.93 716.41 Q 691.93 716.26 692.02 716.26 Q 692.25 716.26 692.54 716.29 Q 692.81 716.32 693.02 716.32 Q 693.13 716.32 693.38 716.29 Q 693.72 716.26 693.93 716.26 Q 694.02 716.26 694.02 716.41 M 694.02 716.41 M 695.96 714.19 Q 695.96 714.42 695.79 714.6 Q 695.62 714.77 695.38 714.77 Q 695.15 714.77 694.98 714.6 Q 694.81 714.42 694.81 714.19 Q 694.81 713.95 694.98 713.79 Q 695.14 713.62 695.38 713.62 Q 695.62 713.62 695.79 713.79 Q 695.96 713.95 695.96 714.19 M 695.96 714.19 M 696.73 720.84 Q 696.73 721 696.64 721 Q 696.41 721 696.06 720.96 Q 695.66 720.93 695.39 720.93 Q 695.12 720.93 694.73 720.96 Q 694.39 721 694.16 721 Q 694.08 721 694.08 720.84 Q 694.08 720.71 694.16 720.69 Q 694.63 720.63 694.77 720.47 Q 694.9 720.3 694.9 719.77 L 694.9 717.73 Q 694.9 717.29 694.79 717.15 Q 694.67 717.02 694.29 716.97 Q 694.21 716.97 694.21 716.83 Q 694.21 716.7 694.29 716.7 Q 694.87 716.55 695.24 716.38 Q 695.61 716.21 695.7 716.1 Q 695.76 716.04 695.82 716.04 Q 695.98 716.04 695.98 716.12 Q 695.89 717.36 695.89 718.04 L 695.89 719.77 Q 695.89 720.3 696.02 720.47 Q 696.16 720.63 696.64 720.69 Q 696.73 720.71 696.73 720.84 M 696.73 720.84 M 702.43 720.63 Q 702.43 720.75 702.34 720.76 Q 701.34 720.87 700.97 721.15 Q 700.89 721.21 700.82 721.21 Q 700.71 721.21 700.71 721.12 L 700.75 720.43 Q 699.93 721.16 699.27 721.16 Q 698.52 721.16 698.1 720.74 Q 697.68 720.31 697.68 719.58 L 697.68 717.52 Q 697.68 717.03 697.55 716.87 Q 697.43 716.71 697.05 716.71 Q 696.98 716.71 696.89 716.72 Q 696.81 716.72 696.81 716.58 Q 696.81 716.4 696.9 716.4 Q 697.54 716.4 698.57 716.15 Q 698.67 716.15 698.67 716.29 L 698.67 719.31 Q 698.67 719.94 698.91 720.22 Q 699.14 720.5 699.65 720.5 Q 699.97 720.5 700.22 720.38 Q 700.47 720.26 700.75 719.95 L 700.75 717.52 Q 700.75 717.04 700.62 716.87 Q 700.49 716.71 700.11 716.71 Q 700.04 716.71 699.95 716.72 Q 699.87 716.72 699.87 716.58 Q 699.87 716.4 699.96 716.4 Q 700.59 716.4 701.63 716.15 Q 701.73 716.15 701.73 716.29 L 701.73 719.8 Q 701.73 720.18 701.84 720.31 Q 701.94 720.44 702.34 720.49 Q 702.43 720.49 702.43 720.63 M 702.43 720.63 M 706.65 719.58 Q 706.65 720.25 706.12 720.71 Q 705.59 721.16 704.85 721.16 Q 704.58 721.16 704.03 721.05 Q 703.62 720.96 703.47 720.96 Q 703.43 720.58 703.27 719.79 Q 703.27 719.71 703.43 719.71 Q 703.56 719.71 703.59 719.8 Q 703.71 720.21 704.09 720.51 Q 704.46 720.81 704.86 720.81 Q 705.27 720.81 705.5 720.58 Q 705.73 720.36 705.73 719.95 Q 705.73 719.69 705.54 719.5 Q 705.35 719.3 704.71 719.01 Q 703.88 718.63 703.62 718.29 Q 703.35 717.96 703.35 717.49 Q 703.35 716.91 703.85 716.5 Q 704.35 716.08 705.03 716.08 Q 705.32 716.08 705.84 716.18 Q 706.12 716.23 706.21 716.23 Q 706.23 716.88 706.28 717.34 Q 706.28 717.42 706.12 717.42 Q 705.98 717.42 705.97 717.33 Q 705.91 716.93 705.67 716.68 Q 705.42 716.43 705.09 716.43 Q 704.23 716.43 704.23 717.18 Q 704.23 717.43 704.43 717.65 Q 704.64 717.86 705.32 718.2 Q 706.13 718.61 706.39 718.91 Q 706.65 719.2 706.65 719.58 M 706.65 719.58"/></g><line x1="798.2" y1="711" x2="798.2" y2="706" style="stroke-width: 0.5;stroke: rgb(192,208,224);stroke-opacity: 1;" transform="matrix(1,0,0,1,0,0)" clip-path="url(#clip-0)"/><g style="fill: rgb(102,102,102);fill-opacity: 1; stroke: none" transform="matrix(0,-1,1,0,171.599976,1607.599976)" clip-path="url(#clip-5)"><path d="M 855.15 715.59 Q 855.15 716.56 854.41 717.22 Q 853.66 717.87 852.56 717.87 Q 851.9 717.87 851.26 717.82 L 851.26 719.77 Q 851.26 720.15 851.36 720.3 Q 851.45 720.46 851.69 720.55 Q 851.93 720.64 852.39 720.69 Q 852.48 720.71 852.48 720.84 Q 852.48 721 852.39 721 Q 852.03 721 851.52 720.96 Q 851.04 720.93 850.7 720.93 Q 850.37 720.93 849.88 720.96 Q 849.36 721 849 721 Q 848.91 721 848.91 720.84 Q 848.91 720.71 849 720.69 Q 849.66 720.62 849.9 720.45 Q 850.14 720.28 850.14 719.77 L 850.14 714.59 Q 850.14 714.2 850.04 714.05 Q 849.95 713.89 849.71 713.8 Q 849.46 713.71 849 713.65 Q 848.91 713.65 848.91 713.5 Q 848.91 713.35 849 713.35 Q 849.36 713.35 849.88 713.38 Q 850.37 713.41 850.7 713.41 Q 851.04 713.41 851.52 713.38 Q 852.03 713.35 852.39 713.35 Q 853.75 713.35 854.45 713.92 Q 855.15 714.49 855.15 715.59 M 855.15 715.59 M 853.93 715.59 Q 853.93 714.71 853.5 714.22 Q 853.07 713.72 852.35 713.72 Q 851.92 713.72 851.69 713.79 Q 851.45 713.85 851.36 714 Q 851.26 714.15 851.26 714.59 L 851.26 717.11 Q 851.26 717.35 851.41 717.43 Q 851.56 717.51 852.05 717.51 Q 852.95 717.51 853.44 717 Q 853.93 716.49 853.93 715.59 M 853.93 715.59 M 859.53 721.12 Q 859.22 721.12 858.99 720.97 Q 858.76 720.82 858.68 720.56 Q 858.09 721.16 857.14 721.16 Q 856.64 721.16 856.33 720.86 Q 856.02 720.55 856.02 720.1 Q 856.02 718.97 858.69 718.27 L 858.72 717.41 L 858.72 717.38 Q 858.72 716.99 858.53 716.75 Q 858.33 716.52 858.01 716.52 Q 857.68 716.52 857.46 716.68 Q 857.23 716.83 857.23 717.07 Q 857.22 717.42 857.04 717.62 Q 856.86 717.82 856.57 717.82 Q 856.39 717.82 856.28 717.71 Q 856.17 717.61 856.17 717.43 Q 856.17 717.01 856.94 716.54 Q 857.71 716.08 858.37 716.08 Q 858.97 716.08 859.33 716.43 Q 859.7 716.78 859.7 717.38 L 859.7 717.44 L 859.63 719.93 L 859.63 719.97 Q 859.63 720.55 860 720.55 Q 860.18 720.55 860.42 720.33 L 860.46 720.32 Q 860.51 720.32 860.54 720.37 Q 860.58 720.43 860.58 720.5 Q 860.58 720.66 860.25 720.89 Q 859.92 721.12 859.53 721.12 M 859.53 721.12 M 858.68 718.64 Q 857.07 719.01 857.07 719.84 Q 857.07 720.62 857.68 720.62 Q 857.97 720.62 858.25 720.48 Q 858.54 720.33 858.64 720.12 M 858.68 718.64 M 865.23 716.95 Q 865.23 717.4 864.78 717.4 Q 864.59 717.4 864.46 717.32 Q 864.34 717.24 864.21 716.96 Q 864.07 716.64 863.9 716.53 Q 863.73 716.43 863.46 716.43 Q 862.79 716.43 862.45 716.98 Q 862.1 717.54 862.1 718.6 Q 862.1 719.48 862.54 720.03 Q 862.98 720.57 863.71 720.57 Q 864.55 720.57 865.04 720.05 L 865.07 720.03 Q 865.12 720.03 865.16 720.1 Q 865.21 720.16 865.21 720.24 Q 865.21 720.35 864.89 720.62 Q 864.57 720.89 864.18 721.02 Q 863.8 721.16 863.37 721.16 Q 862.39 721.16 861.69 720.44 Q 860.98 719.72 860.98 718.61 Q 860.98 717.52 861.72 716.8 Q 862.45 716.08 863.46 716.08 Q 864.2 716.08 864.72 716.34 Q 865.23 716.59 865.23 716.95 M 865.23 716.95 M 871.23 720.63 Q 871.23 720.75 871.14 720.76 Q 870.14 720.87 869.77 721.15 Q 869.69 721.21 869.61 721.21 Q 869.51 721.21 869.51 721.12 L 869.55 720.43 Q 868.73 721.16 868.07 721.16 Q 867.32 721.16 866.9 720.74 Q 866.48 720.31 866.48 719.58 L 866.48 717.52 Q 866.48 717.03 866.35 716.87 Q 866.23 716.71 865.85 716.71 Q 865.78 716.71 865.69 716.72 Q 865.61 716.72 865.61 716.58 Q 865.61 716.4 865.7 716.4 Q 866.34 716.4 867.37 716.15 Q 867.47 716.15 867.47 716.29 L 867.47 719.31 Q 867.47 719.94 867.71 720.22 Q 867.94 720.5 868.45 720.5 Q 868.77 720.5 869.02 720.38 Q 869.27 720.26 869.55 719.95 L 869.55 717.52 Q 869.55 717.04 869.42 716.87 Q 869.29 716.71 868.91 716.71 Q 868.84 716.71 868.75 716.72 Q 868.67 716.72 868.67 716.58 Q 868.67 716.4 868.76 716.4 Q 869.39 716.4 870.43 716.15 Q 870.53 716.15 870.53 716.29 L 870.53 719.8 Q 870.53 720.18 870.64 720.31 Q 870.74 720.44 871.14 720.49 Q 871.23 720.49 871.23 720.63 M 871.23 720.63 M 876.82 716.41 Q 876.82 716.55 876.73 716.56 Q 876.27 716.61 876.11 716.78 Q 875.96 716.95 875.72 717.49 L 874.14 721.09 Q 874.1 721.17 874.01 721.17 Q 873.91 721.17 873.87 721.09 L 872.39 717.49 Q 872.19 716.98 871.98 716.8 Q 871.77 716.61 871.41 716.56 Q 871.32 716.55 871.32 716.41 Q 871.32 716.26 871.41 716.26 Q 871.64 716.26 871.97 716.29 Q 872.34 716.32 872.6 716.32 Q 872.87 716.32 873.26 716.29 Q 873.6 716.26 873.82 716.26 Q 873.91 716.26 873.91 716.41 Q 873.91 716.55 873.82 716.56 Q 873.49 716.6 873.37 716.68 Q 873.24 716.75 873.24 716.89 Q 873.24 717.06 873.4 717.48 L 874.31 719.82 L 875.22 717.49 Q 875.38 717.08 875.38 716.89 Q 875.38 716.75 875.26 716.68 Q 875.14 716.6 874.82 716.56 Q 874.73 716.55 874.73 716.41 Q 874.73 716.26 874.82 716.26 Q 875.05 716.26 875.34 716.29 Q 875.61 716.32 875.82 716.32 Q 875.93 716.32 876.18 716.29 Q 876.52 716.26 876.73 716.26 Q 876.82 716.26 876.82 716.41 M 876.82 716.41 M 878.76 714.19 Q 878.76 714.42 878.59 714.6 Q 878.42 714.77 878.18 714.77 Q 877.95 714.77 877.78 714.6 Q 877.61 714.42 877.61 714.19 Q 877.61 713.95 877.78 713.79 Q 877.94 713.62 878.18 713.62 Q 878.42 713.62 878.59 713.79 Q 878.76 713.95 878.76 714.19 M 878.76 714.19 M 879.53 720.84 Q 879.53 721 879.44 721 Q 879.21 721 878.86 720.96 Q 878.46 720.93 878.19 720.93 Q 877.92 720.93 877.53 720.96 Q 877.19 721 876.96 721 Q 876.88 721 876.88 720.84 Q 876.88 720.71 876.96 720.69 Q 877.43 720.63 877.57 720.47 Q 877.7 720.3 877.7 719.77 L 877.7 717.73 Q 877.7 717.29 877.59 717.15 Q 877.47 717.02 877.09 716.97 Q 877.01 716.97 877.01 716.83 Q 877.01 716.7 877.09 716.7 Q 877.67 716.55 878.04 716.38 Q 878.41 716.21 878.5 716.1 Q 878.56 716.04 878.62 716.04 Q 878.78 716.04 878.78 716.12 Q 878.69 717.36 878.69 718.04 L 878.69 719.77 Q 878.69 720.3 878.82 720.47 Q 878.96 720.63 879.44 720.69 Q 879.53 720.71 879.53 720.84 M 879.53 720.84 M 885.23 720.63 Q 885.23 720.75 885.14 720.76 Q 884.14 720.87 883.77 721.15 Q 883.69 721.21 883.61 721.21 Q 883.51 721.21 883.51 721.12 L 883.55 720.43 Q 882.73 721.16 882.07 721.16 Q 881.32 721.16 880.9 720.74 Q 880.48 720.31 880.48 719.58 L 880.48 717.52 Q 880.48 717.03 880.35 716.87 Q 880.23 716.71 879.85 716.71 Q 879.78 716.71 879.69 716.72 Q 879.61 716.72 879.61 716.58 Q 879.61 716.4 879.7 716.4 Q 880.34 716.4 881.37 716.15 Q 881.47 716.15 881.47 716.29 L 881.47 719.31 Q 881.47 719.94 881.71 720.22 Q 881.94 720.5 882.45 720.5 Q 882.77 720.5 883.02 720.38 Q 883.27 720.26 883.55 719.95 L 883.55 717.52 Q 883.55 717.04 883.42 716.87 Q 883.29 716.71 882.91 716.71 Q 882.84 716.71 882.75 716.72 Q 882.67 716.72 882.67 716.58 Q 882.67 716.4 882.76 716.4 Q 883.39 716.4 884.43 716.15 Q 884.53 716.15 884.53 716.29 L 884.53 719.8 Q 884.53 720.18 884.64 720.31 Q 884.74 720.44 885.14 720.49 Q 885.23 720.49 885.23 720.63 M 885.23 720.63 M 889.45 719.58 Q 889.45 720.25 888.92 720.71 Q 888.39 721.16 887.65 721.16 Q 887.38 721.16 886.83 721.05 Q 886.42 720.96 886.27 720.96 Q 886.23 720.58 886.07 719.79 Q 886.07 719.71 886.23 719.71 Q 886.36 719.71 886.39 719.8 Q 886.51 720.21 886.89 720.51 Q 887.26 720.81 887.66 720.81 Q 888.07 720.81 888.3 720.58 Q 888.53 720.36 888.53 719.95 Q 888.53 719.69 888.34 719.5 Q 888.15 719.3 887.51 719.01 Q 886.68 718.63 886.42 718.29 Q 886.15 717.96 886.15 717.49 Q 886.15 716.91 886.65 716.5 Q 887.15 716.08 887.83 716.08 Q 888.12 716.08 888.64 716.18 Q 888.92 716.23 889.01 716.23 Q 889.03 716.88 889.08 717.34 Q 889.08 717.42 888.92 717.42 Q 888.78 717.42 888.77 717.33 Q 888.71 716.93 888.47 716.68 Q 888.22 716.43 887.89 716.43 Q 887.03 716.43 887.03 717.18 Q 887.03 717.43 887.23 717.65 Q 887.44 717.86 888.12 718.2 Q 888.93 718.61 889.19 718.91 Q 889.45 719.2 889.45 719.58 M 889.45 719.58"/></g><line x1="981" y1="711" x2="981" y2="706" style="stroke-width: 0.5;stroke: rgb(192,208,224);stroke-opacity: 1;" transform="matrix(1,0,0,1,0,0)" clip-path="url(#clip-0)"/><g transform="matrix(1,0,0,1,0,0)"><text x="504.5" y="771.82" style="fill: rgb(77,117,158); font-family: Hoefler Text; font-size: 15px; font-weight: bold; " text-rendering="auto" clip-path="url(#clip-0)">Partie</text></g><g transform="matrix(1,0,0,1,0,0)"><text x="46" y="667" style="fill: rgb(102,102,102); font-family: Hoefler Text; font-size: 11px; font-weight: bold; " text-rendering="auto" clip-path="url(#clip-0)">-1.1</text></g><g transform="matrix(1,0,0,1,0,0)"><text x="43" y="637.68" style="fill: rgb(102,102,102); font-family: Hoefler Text; font-size: 11px; font-weight: bold; " text-rendering="auto" clip-path="url(#clip-0)">-1.0</text></g><g transform="matrix(1,0,0,1,0,0)"><text x="41" y="608.36" style="fill: rgb(102,102,102); font-family: Hoefler Text; font-size: 11px; font-weight: bold; " text-rendering="auto" clip-path="url(#clip-0)">-0.9</text></g><g transform="matrix(1,0,0,1,0,0)"><text x="42" y="579.03" style="fill: rgb(102,102,102); font-family: Hoefler Text; font-size: 11px; font-weight: bold; " text-rendering="auto" clip-path="url(#clip-0)">-0.8</text></g><g transform="matrix(1,0,0,1,0,0)"><text x="42" y="549.71" style="fill: rgb(102,102,102); font-family: Hoefler Text; font-size: 11px; font-weight: bold; " text-rendering="auto" clip-path="url(#clip-0)">-0.7</text></g><g transform="matrix(1,0,0,1,0,0)"><text x="41" y="520.39" style="fill: rgb(102,102,102); font-family: Hoefler Text; font-size: 11px; font-weight: bold; " text-rendering="auto" clip-path="url(#clip-0)">-0.6</text></g><g transform="matrix(1,0,0,1,0,0)"><text x="42" y="491.06" style="fill: rgb(102,102,102); font-family: Hoefler Text; font-size: 11px; font-weight: bold; " text-rendering="auto" clip-path="url(#clip-0)">-0.5</text></g><g transform="matrix(1,0,0,1,0,0)"><text x="41" y="461.74" style="fill: rgb(102,102,102); font-family: Hoefler Text; font-size: 11px; font-weight: bold; " text-rendering="auto" clip-path="url(#clip-0)">-0.4</text></g><g transform="matrix(1,0,0,1,0,0)"><text x="43" y="432.42" style="fill: rgb(102,102,102); font-family: Hoefler Text; font-size: 11px; font-weight: bold; " text-rendering="auto" clip-path="url(#clip-0)">-0.3</text></g><g transform="matrix(1,0,0,1,0,0)"><text x="42" y="403.1" style="fill: rgb(102,102,102); font-family: Hoefler Text; font-size: 11px; font-weight: bold; " text-rendering="auto" clip-path="url(#clip-0)">-0.2</text></g><g transform="matrix(1,0,0,1,0,0)"><text x="43" y="373.77" style="fill: rgb(102,102,102); font-family: Hoefler Text; font-size: 11px; font-weight: bold; " text-rendering="auto" clip-path="url(#clip-0)">-0.1</text></g><g transform="matrix(1,0,0,1,0,0)"><text x="44" y="344.45" style="fill: rgb(102,102,102); font-family: Hoefler Text; font-size: 11px; font-weight: bold; " text-rendering="auto" clip-path="url(#clip-0)">0.0</text></g><g transform="matrix(1,0,0,1,0,0)"><text x="47" y="315.13" style="fill: rgb(102,102,102); font-family: Hoefler Text; font-size: 11px; font-weight: bold; " text-rendering="auto" clip-path="url(#clip-0)">0.1</text></g><g transform="matrix(1,0,0,1,0,0)"><text x="46" y="285.81" style="fill: rgb(102,102,102); font-family: Hoefler Text; font-size: 11px; font-weight: bold; " text-rendering="auto" clip-path="url(#clip-0)">0.2</text></g><g transform="matrix(1,0,0,1,0,0)"><text x="47" y="256.48" style="fill: rgb(102,102,102); font-family: Hoefler Text; font-size: 11px; font-weight: bold; " text-rendering="auto" clip-path="url(#clip-0)">0.3</text></g><g transform="matrix(1,0,0,1,0,0)"><text x="45" y="227.16" style="fill: rgb(102,102,102); font-family: Hoefler Text; font-size: 11px; font-weight: bold; " text-rendering="auto" clip-path="url(#clip-0)">0.4</text></g><g transform="matrix(1,0,0,1,0,0)"><text x="46" y="197.84" style="fill: rgb(102,102,102); font-family: Hoefler Text; font-size: 11px; font-weight: bold; " text-rendering="auto" clip-path="url(#clip-0)">0.5</text></g><g transform="matrix(1,0,0,1,0,0)"><text x="45" y="168.52" style="fill: rgb(102,102,102); font-family: Hoefler Text; font-size: 11px; font-weight: bold; " text-rendering="auto" clip-path="url(#clip-0)">0.6</text></g><g transform="matrix(1,0,0,1,0,0)"><text x="46" y="139.19" style="fill: rgb(102,102,102); font-family: Hoefler Text; font-size: 11px; font-weight: bold; " text-rendering="auto" clip-path="url(#clip-0)">0.7</text></g><g transform="matrix(1,0,0,1,0,0)"><text x="46" y="109.87" style="fill: rgb(102,102,102); font-family: Hoefler Text; font-size: 11px; font-weight: bold; " text-rendering="auto" clip-path="url(#clip-0)">0.8</text></g><g transform="matrix(1,0,0,1,0,0)"><text x="45" y="80.55" style="fill: rgb(102,102,102); font-family: Hoefler Text; font-size: 11px; font-weight: bold; " text-rendering="auto" clip-path="url(#clip-0)">0.9</text></g><g style="fill: rgb(77,117,158);fill-opacity: 1; stroke: none" transform="matrix(0,-1,1,0,-344.5,400.5)" clip-path="url(#clip-6)"><path d="M 13.24 376.2 Q 13.24 376.4 13.12 376.4 Q 12.62 376.4 11.93 376.36 Q 11.27 376.32 10.81 376.32 Q 10.36 376.32 9.7 376.36 Q 9 376.4 8.49 376.4 Q 8.37 376.4 8.37 376.2 Q 8.37 376.01 8.49 375.99 Q 9.4 375.89 9.72 375.65 Q 10.05 375.42 10.05 374.73 L 10.05 367.67 Q 10.05 367.14 9.92 366.93 Q 9.79 366.71 9.46 366.59 Q 9.13 366.47 8.49 366.39 Q 8.37 366.39 8.37 366.18 Q 8.37 365.97 8.49 365.97 Q 9 365.97 9.7 366.02 Q 10.36 366.06 10.81 366.06 Q 11.27 366.06 11.93 366.02 Q 12.62 365.97 13.12 365.97 Q 13.24 365.97 13.24 366.18 Q 13.24 366.39 13.12 366.39 Q 12.49 366.47 12.16 366.59 Q 11.84 366.71 11.71 366.92 Q 11.58 367.14 11.58 367.67 L 11.58 374.73 Q 11.58 375.24 11.71 375.46 Q 11.84 375.67 12.16 375.79 Q 12.49 375.92 13.12 375.99 Q 13.24 376.01 13.24 376.2 M 13.24 376.2 M 22.64 376.2 Q 22.64 376.4 22.52 376.4 Q 22.22 376.4 21.78 376.36 Q 21.3 376.32 20.93 376.32 Q 20.56 376.32 20.07 376.36 Q 19.63 376.4 19.33 376.4 Q 19.21 376.4 19.21 376.2 Q 19.21 376.01 19.33 375.99 Q 19.85 375.93 20.01 375.7 Q 20.17 375.47 20.17 374.73 L 20.17 372.22 Q 20.17 371.38 19.84 370.99 Q 19.51 370.6 18.82 370.6 Q 18.39 370.6 18.05 370.77 Q 17.72 370.93 17.33 371.35 L 17.33 374.73 Q 17.33 375.47 17.5 375.7 Q 17.66 375.93 18.17 375.99 Q 18.3 376.01 18.3 376.2 Q 18.3 376.4 18.17 376.4 Q 17.87 376.4 17.42 376.36 Q 16.94 376.32 16.57 376.32 Q 16.21 376.32 15.73 376.36 Q 15.29 376.4 14.98 376.4 Q 14.86 376.4 14.86 376.2 Q 14.86 376.01 14.98 375.99 Q 15.62 375.91 15.81 375.68 Q 16 375.45 16 374.73 L 16 371.95 Q 16 371.35 15.85 371.16 Q 15.69 370.98 15.16 370.92 Q 15.04 370.92 15.04 370.72 Q 15.04 370.54 15.16 370.54 Q 15.9 370.35 16.4 370.12 Q 16.89 369.88 17.02 369.73 Q 17.09 369.64 17.18 369.64 Q 17.4 369.64 17.4 369.76 L 17.33 370.71 Q 18.42 369.7 19.34 369.7 Q 20.36 369.7 20.94 370.29 Q 21.51 370.87 21.51 371.86 L 21.51 374.73 Q 21.51 375.46 21.7 375.68 Q 21.88 375.91 22.52 375.99 Q 22.64 376.01 22.64 376.2 M 22.64 376.2 M 30.53 375.91 Q 30.53 376.07 30.41 376.08 Q 29.99 376.14 29.42 376.29 Q 28.86 376.45 28.55 376.61 Q 28.38 376.69 28.31 376.69 Q 28.18 376.69 28.18 376.57 L 28.25 375.76 Q 27.45 376.63 26.22 376.63 Q 24.92 376.63 24.01 375.63 Q 23.1 374.64 23.1 373.24 Q 23.1 371.66 24.11 370.68 Q 25.12 369.7 26.64 369.7 Q 27.51 369.7 28.25 370.24 L 28.25 367.74 Q 28.25 367.14 28.09 366.95 Q 27.94 366.76 27.41 366.7 Q 27.28 366.68 27.28 366.51 Q 27.28 366.32 27.41 366.32 Q 28.11 366.15 28.63 365.92 Q 29.15 365.69 29.33 365.51 Q 29.4 365.43 29.48 365.43 Q 29.69 365.43 29.69 365.55 Q 29.57 367.19 29.57 368.16 L 29.57 374.77 Q 29.57 375.29 29.72 375.46 Q 29.87 375.64 30.41 375.71 Q 30.53 375.71 30.53 375.91 M 30.53 375.91 M 28.25 375.1 L 28.25 371.26 Q 28.25 370.87 27.79 370.52 Q 27.34 370.18 26.81 370.18 Q 24.61 370.18 24.61 373.26 Q 24.61 374.47 25.14 375.27 Q 25.67 376.08 26.52 376.08 Q 27.01 376.08 27.41 375.85 Q 27.8 375.63 28.25 375.1 M 28.25 375.1 M 33.44 367.13 Q 33.44 367.44 33.21 367.67 Q 32.98 367.91 32.66 367.91 Q 32.34 367.91 32.11 367.67 Q 31.88 367.44 31.88 367.13 Q 31.88 366.8 32.1 366.57 Q 32.33 366.35 32.66 366.35 Q 32.98 366.35 33.21 366.57 Q 33.44 366.8 33.44 367.13 M 33.44 367.13 M 34.49 376.2 Q 34.49 376.4 34.37 376.4 Q 34.06 376.4 33.58 376.36 Q 33.04 376.32 32.67 376.32 Q 32.3 376.32 31.77 376.36 Q 31.3 376.4 31 376.4 Q 30.88 376.4 30.88 376.2 Q 30.88 376.01 31 375.99 Q 31.63 375.91 31.82 375.68 Q 32 375.46 32 374.73 L 32 371.95 Q 32 371.35 31.85 371.16 Q 31.69 370.98 31.17 370.92 Q 31.06 370.92 31.06 370.72 Q 31.06 370.54 31.17 370.54 Q 31.96 370.34 32.47 370.11 Q 32.97 369.88 33.1 369.73 Q 33.17 369.64 33.26 369.64 Q 33.47 369.64 33.47 369.76 Q 33.35 371.44 33.35 372.37 L 33.35 374.73 Q 33.35 375.46 33.53 375.68 Q 33.72 375.91 34.37 375.99 Q 34.49 376.01 34.49 376.2 M 34.49 376.2 M 40.81 370.89 Q 40.81 371.5 40.2 371.5 Q 39.94 371.5 39.77 371.39 Q 39.6 371.27 39.43 370.9 Q 39.22 370.46 39 370.32 Q 38.77 370.18 38.4 370.18 Q 37.49 370.18 37.02 370.93 Q 36.54 371.69 36.54 373.14 Q 36.54 374.34 37.14 375.08 Q 37.74 375.82 38.74 375.82 Q 39.88 375.82 40.55 375.11 L 40.59 375.09 Q 40.66 375.09 40.72 375.18 Q 40.78 375.27 40.78 375.37 Q 40.78 375.52 40.35 375.89 Q 39.91 376.26 39.39 376.44 Q 38.87 376.63 38.28 376.63 Q 36.94 376.63 35.98 375.64 Q 35.03 374.66 35.03 373.15 Q 35.03 371.66 36.03 370.68 Q 37.03 369.7 38.4 369.7 Q 39.41 369.7 40.11 370.05 Q 40.81 370.4 40.81 370.89 M 40.81 370.89 M 47.97 372.14 Q 47.97 372.36 47.69 372.36 L 43.58 372.36 Q 43.54 372.76 43.54 373.2 Q 43.54 374.4 44.11 375.05 Q 44.69 375.7 45.74 375.7 Q 46.28 375.7 46.82 375.42 Q 47.36 375.13 47.69 374.69 L 47.72 374.67 Q 47.79 374.67 47.86 374.76 Q 47.92 374.84 47.92 374.95 Q 47.92 375.11 47.44 375.61 Q 46.96 376.11 46.4 376.37 Q 45.83 376.63 45.22 376.63 Q 43.87 376.63 42.95 375.64 Q 42.03 374.65 42.03 373.21 Q 42.03 371.74 42.93 370.72 Q 43.83 369.7 45.22 369.7 Q 46.38 369.7 47.17 370.46 Q 47.97 371.22 47.97 372.14 M 47.97 372.14 M 46.6 371.49 Q 46.6 370.92 46.21 370.55 Q 45.83 370.18 45.22 370.18 Q 44.64 370.18 44.22 370.66 Q 43.79 371.15 43.65 371.93 L 45.73 371.88 Q 46.2 371.87 46.4 371.79 Q 46.6 371.7 46.6 371.49 M 46.6 371.49"/></g><line x1="67" y1="664.07" x2="981" y2="664.07" style="stroke-width: 1.0;stroke: rgb(192,192,192);stroke-opacity: 1;" transform="matrix(1,0,0,1,0,0)" clip-path="url(#clip-7)"/><line x1="67" y1="634.75" x2="981" y2="634.75" style="stroke-width: 1.0;stroke: rgb(192,192,192);stroke-opacity: 1;" transform="matrix(1,0,0,1,0,0)" clip-path="url(#clip-7)"/><line x1="67" y1="605.42" x2="981" y2="605.42" style="stroke-width: 1.0;stroke: rgb(192,192,192);stroke-opacity: 1;" transform="matrix(1,0,0,1,0,0)" clip-path="url(#clip-7)"/><line x1="67" y1="576.1" x2="981" y2="576.1" style="stroke-width: 1.0;stroke: rgb(192,192,192);stroke-opacity: 1;" transform="matrix(1,0,0,1,0,0)" clip-path="url(#clip-7)"/><line x1="67" y1="546.78" x2="981" y2="546.78" style="stroke-width: 1.0;stroke: rgb(192,192,192);stroke-opacity: 1;" transform="matrix(1,0,0,1,0,0)" clip-path="url(#clip-7)"/><line x1="67" y1="517.46" x2="981" y2="517.46" style="stroke-width: 1.0;stroke: rgb(192,192,192);stroke-opacity: 1;" transform="matrix(1,0,0,1,0,0)" clip-path="url(#clip-7)"/><line x1="67" y1="488.13" x2="981" y2="488.13" style="stroke-width: 1.0;stroke: rgb(192,192,192);stroke-opacity: 1;" transform="matrix(1,0,0,1,0,0)" clip-path="url(#clip-7)"/><line x1="67" y1="458.81" x2="981" y2="458.81" style="stroke-width: 1.0;stroke: rgb(192,192,192);stroke-opacity: 1;" transform="matrix(1,0,0,1,0,0)" clip-path="url(#clip-7)"/><line x1="67" y1="429.49" x2="981" y2="429.49" style="stroke-width: 1.0;stroke: rgb(192,192,192);stroke-opacity: 1;" transform="matrix(1,0,0,1,0,0)" clip-path="url(#clip-7)"/><line x1="67" y1="400.17" x2="981" y2="400.17" style="stroke-width: 1.0;stroke: rgb(192,192,192);stroke-opacity: 1;" transform="matrix(1,0,0,1,0,0)" clip-path="url(#clip-7)"/><line x1="67" y1="370.84" x2="981" y2="370.84" style="stroke-width: 1.0;stroke: rgb(192,192,192);stroke-opacity: 1;" transform="matrix(1,0,0,1,0,0)" clip-path="url(#clip-7)"/><line x1="67" y1="312.2" x2="981" y2="312.2" style="stroke-width: 1.0;stroke: rgb(192,192,192);stroke-opacity: 1;" transform="matrix(1,0,0,1,0,0)" clip-path="url(#clip-7)"/><line x1="67" y1="282.88" x2="981" y2="282.88" style="stroke-width: 1.0;stroke: rgb(192,192,192);stroke-opacity: 1;" transform="matrix(1,0,0,1,0,0)" clip-path="url(#clip-7)"/><line x1="67" y1="253.55" x2="981" y2="253.55" style="stroke-width: 1.0;stroke: rgb(192,192,192);stroke-opacity: 1;" transform="matrix(1,0,0,1,0,0)" clip-path="url(#clip-7)"/><line x1="67" y1="224.23" x2="981" y2="224.23" style="stroke-width: 1.0;stroke: rgb(192,192,192);stroke-opacity: 1;" transform="matrix(1,0,0,1,0,0)" clip-path="url(#clip-7)"/><line x1="67" y1="194.91" x2="981" y2="194.91" style="stroke-width: 1.0;stroke: rgb(192,192,192);stroke-opacity: 1;" transform="matrix(1,0,0,1,0,0)" clip-path="url(#clip-7)"/><line x1="67" y1="165.58" x2="981" y2="165.58" style="stroke-width: 1.0;stroke: rgb(192,192,192);stroke-opacity: 1;" transform="matrix(1,0,0,1,0,0)" clip-path="url(#clip-7)"/><line x1="67" y1="136.26" x2="981" y2="136.26" style="stroke-width: 1.0;stroke: rgb(192,192,192);stroke-opacity: 1;" transform="matrix(1,0,0,1,0,0)" clip-path="url(#clip-7)"/><line x1="67" y1="106.94" x2="981" y2="106.94" style="stroke-width: 1.0;stroke: rgb(192,192,192);stroke-opacity: 1;" transform="matrix(1,0,0,1,0,0)" clip-path="url(#clip-7)"/><line x1="67" y1="77.62" x2="981" y2="77.62" style="stroke-width: 1.0;stroke: rgb(192,192,192);stroke-opacity: 1;" transform="matrix(1,0,0,1,0,0)" clip-path="url(#clip-7)"/><line x1="67" y1="341.52" x2="981" y2="341.52" style="stroke-width: 0.5;stroke: rgb(134,145,156);stroke-opacity: 1;" transform="matrix(1,0,0,1,0,0)" clip-path="url(#clip-7)"/><rect x="190.39" y="69.32" width="31.99" height="272.2" style="fill: rgb(255,215,0);fill-opacity: 1" transform="matrix(1,0,0,1,0,0)" clip-path="url(#clip-7)"/><rect x="373.19" y="341.52" width="31.99" height="175.58" style="fill: rgb(255,215,0);fill-opacity: 1" transform="matrix(1,0,0,1,0,0)" clip-path="url(#clip-7)"/><rect x="555.99" y="341.52" width="31.99" height="39.18" style="fill: rgb(255,215,0);fill-opacity: 1" transform="matrix(1,0,0,1,0,0)" clip-path="url(#clip-7)"/><rect x="738.79" y="200.54" width="31.99" height="140.98" style="fill: rgb(255,215,0);fill-opacity: 1" transform="matrix(1,0,0,1,0,0)" clip-path="url(#clip-7)"/><rect x="921.59" y="341.52" width="31.99" height="175.32" style="fill: rgb(255,215,0);fill-opacity: 1" transform="matrix(1,0,0,1,0,0)" clip-path="url(#clip-7)"/><rect x="158.4" y="341.52" width="31.99" height="91.4" style="fill: rgb(0,139,0);fill-opacity: 1" transform="matrix(1,0,0,1,0,0)" clip-path="url(#clip-7)"/><rect x="341.2" y="137.99" width="31.99" height="203.53" style="fill: rgb(0,139,0);fill-opacity: 1" transform="matrix(1,0,0,1,0,0)" clip-path="url(#clip-7)"/><rect x="524" y="182.62" width="31.99" height="158.9" style="fill: rgb(0,139,0);fill-opacity: 1" transform="matrix(1,0,0,1,0,0)" clip-path="url(#clip-7)"/><rect x="706.8" y="341.52" width="31.99" height="168.66" style="fill: rgb(0,139,0);fill-opacity: 1" transform="matrix(1,0,0,1,0,0)" clip-path="url(#clip-7)"/><rect x="889.6" y="341.52" width="31.99" height="112.48" style="fill: rgb(0,139,0);fill-opacity: 1" transform="matrix(1,0,0,1,0,0)" clip-path="url(#clip-7)"/><rect x="126.41" y="173.94" width="31.99" height="167.58" style="fill: rgb(0,0,255);fill-opacity: 1" transform="matrix(1,0,0,1,0,0)" clip-path="url(#clip-7)"/><rect x="309.21" y="341.52" width="31.99" height="182.5" style="fill: rgb(0,0,255);fill-opacity: 1" transform="matrix(1,0,0,1,0,0)" clip-path="url(#clip-7)"/><rect x="492.01" y="341.52" width="31.99" height="140.54" style="fill: rgb(0,0,255);fill-opacity: 1" transform="matrix(1,0,0,1,0,0)" clip-path="url(#clip-7)"/><rect x="674.81" y="341.52" width="31.99" height="334.16" style="fill: rgb(0,0,255);fill-opacity: 1" transform="matrix(1,0,0,1,0,0)" clip-path="url(#clip-7)"/><rect x="857.61" y="149.19" width="31.99" height="192.33" style="fill: rgb(0,0,255);fill-opacity: 1" transform="matrix(1,0,0,1,0,0)" clip-path="url(#clip-7)"/><rect x="94.42" y="238.72" width="31.99" height="102.81" style="fill: rgb(255,0,0);fill-opacity: 1" transform="matrix(1,0,0,1,0,0)" clip-path="url(#clip-7)"/><rect x="277.22" y="341.52" width="31.99" height="133.18" style="fill: rgb(255,0,0);fill-opacity: 1" transform="matrix(1,0,0,1,0,0)" clip-path="url(#clip-7)"/><rect x="460.02" y="341.52" width="31.99" height="58.53" style="fill: rgb(255,0,0);fill-opacity: 1" transform="matrix(1,0,0,1,0,0)" clip-path="url(#clip-7)"/><rect x="642.82" y="341.52" width="31.99" height="103.01" style="fill: rgb(255,0,0);fill-opacity: 1" transform="matrix(1,0,0,1,0,0)" clip-path="url(#clip-7)"/><rect x="825.62" y="211.62" width="31.99" height="129.9" style="fill: rgb(255,0,0);fill-opacity: 1" transform="matrix(1,0,0,1,0,0)" clip-path="url(#clip-7)"/></svg>
