<!DOCTYPE svg PUBLIC "-//W3C//DTD SVG 1.1//EN" "http://www.w3.org/Graphics/SVG/1.1/DTD/svg11.dtd">
<svg style="stroke-linecap:square;" xmlns="http://www.w3.org/2000/svg" xmlns:xlink="http://www.w3.org/1999/xlink" width="1141" height="406">
<defs><clipPath id="clip-0"><path d="M 0 0 L 1141 0 L 1141 406 L 0 406 L 0 0 M 0 0"/></clipPath>
<clipPath id="clip-1"><path d="M 481.58 164.42 L 481.58 1305.42 L 75.58 1305.42 L 75.58 164.42 L 481.58 164.42 M 481.58 164.42"/></clipPath>
<clipPath id="clip-2"><path d="M 665.78 -19.78 L 665.78 1121.22 L 259.78 1121.22 L 259.78 -19.78 L 665.78 -19.78 M 665.78 -19.78"/></clipPath>
<clipPath id="clip-3"><path d="M 849.98 -203.98 L 849.98 937.02 L 443.98 937.02 L 443.98 -203.98 L 849.98 -203.98 M 849.98 -203.98"/></clipPath>
<clipPath id="clip-4"><path d="M 1034.18 -388.18 L 1034.18 752.82 L 628.18 752.82 L 628.18 -388.18 L 1034.18 -388.18 M 1034.18 -388.18"/></clipPath>
<clipPath id="clip-5"><path d="M 1218.38 -572.38 L 1218.38 568.62 L 812.38 568.62 L 812.38 -572.38 L 1218.38 -572.38 M 1218.38 -572.38"/></clipPath>
<clipPath id="clip-6"><path d="M 199 154 L 199 1295 L -207 1295 L -207 154 L 199 154 M 199 154"/></clipPath>
<clipPath id="clip-7"><path d="M 67 42 L 67 311 L 988 311 L 988 42 M 67 42"/></clipPath>
</defs>
<rect x="0" y="0" width="1141" height="406" style="fill: rgb(255,255,255);fill-opacity: 1" transform="matrix(1,0,0,1,0,0)" clip-path="url(#clip-0)"/><g transform="matrix(1,0,0,1,0,0)"><text x="486" y="26.24" style="fill: rgb(75,75,109); font-family: Lucida Sans; font-size: 16px; font-weight: bold; " text-rendering="auto" clip-path="url(#clip-0)">–Lemmes Pastoraux–</text></g><rect x="1008" y="208" width="123" height="22" style="fill: rgb(255,255,255);fill-opacity: 1" transform="matrix(1,0,0,1,0,0)" clip-path="url(#clip-0)"/><g style="stroke-width: 1.0;stroke: rgb(192,192,192);stroke-opacity: 1; fill: none" transform="matrix(1,0,0,1,0,0)" clip-path="url(#clip-0)"><path d="M 1008 213 L 1008 225 C 1008 227.76 1010.24 230 1013 230 L 1126 230 C 1128.76 230 1131 227.76 1131 225 L 1131 213 C 1131 210.24 1128.76 208 1126 208 L 1013 208 C 1010.24 208 1008 210.24 1008 213 M 1008 213"/></g><g style="fill: rgb(128,128,128);fill-opacity: 1; stroke: none" transform="matrix(1,0,0,1,0,0)" clip-path="url(#clip-0)"><path d="M 1012 214 L 1018 214 L 1018 224 L 1012 224 L 1012 214 M 1012 214"/></g><g transform="matrix(1,0,0,1,0,0)"><text x="1022" y="222.48" style="fill: rgb(39,75,109); font-family: Lucida Sans; font-size: 11px; font-weight: bold; " text-rendering="auto" clip-path="url(#clip-0)">Lemmes Pastoraux</text></g><rect x="67" y="42" width="921" height="269" style="fill: rgb(255,255,255);fill-opacity: 1" transform="matrix(1,0,0,1,0,0)" clip-path="url(#clip-0)"/><line x1="67" y1="311" x2="988" y2="311" style="stroke-width: 0.5;stroke: rgb(192,208,224);stroke-opacity: 1;" transform="matrix(1,0,0,1,0,0)" clip-path="url(#clip-0)"/><g style="fill: rgb(102,102,102);fill-opacity: 1; stroke: none" transform="matrix(0,-1,1,0,-164.417084,481.582916)" clip-path="url(#clip-1)"><path d="M 121.71 327.68 L 124.8 319.73 L 126.46 319.73 L 129.55 327.68 L 127.85 327.68 L 127.02 325.55 L 123.74 325.55 L 122.91 327.68 L 121.71 327.68 M 121.71 327.68 M 124.15 324.49 L 126.61 324.49 L 125.38 321.34 L 124.15 324.49 M 124.15 324.49 M 134.93 327.55 Q 133.94 327.82 133.1 327.82 Q 131.68 327.82 130.86 326.98 Q 130.05 326.15 130.05 324.73 Q 130.05 323.27 130.9 322.46 Q 131.74 321.65 133.22 321.65 Q 133.94 321.65 134.88 321.88 L 134.88 323.02 Q 133.9 322.71 133.32 322.71 Q 132.6 322.71 132.17 323.26 Q 131.74 323.8 131.74 324.71 Q 131.74 325.65 132.21 326.2 Q 132.68 326.76 133.46 326.76 Q 134.18 326.76 134.93 326.45 L 134.93 327.55 M 134.93 327.55 M 140.93 327.55 Q 139.94 327.82 139.1 327.82 Q 137.68 327.82 136.86 326.98 Q 136.05 326.15 136.05 324.73 Q 136.05 323.27 136.9 322.46 Q 137.74 321.65 139.22 321.65 Q 139.94 321.65 140.88 321.88 L 140.88 323.02 Q 139.9 322.71 139.32 322.71 Q 138.6 322.71 138.17 323.26 Q 137.74 323.8 137.74 324.71 Q 137.74 325.65 138.21 326.2 Q 138.68 326.76 139.46 326.76 Q 140.18 326.76 140.93 326.45 L 140.93 327.55 M 140.93 327.55 M 142.58 327.68 L 142.58 321.79 L 144.16 321.79 L 144.16 327.68 L 142.58 327.68 M 142.58 327.68 M 142.58 320.79 L 142.58 319.46 L 144.16 319.46 L 144.16 320.79 L 142.58 320.79 M 142.58 320.79 M 150.22 327.68 L 150.22 326.57 Q 149.46 327.82 148.21 327.82 Q 147.43 327.82 146.97 327.32 Q 146.5 326.82 146.5 325.95 L 146.5 321.79 L 148.1 321.79 L 148.1 325.55 Q 148.1 326.55 148.77 326.55 Q 149.52 326.55 150.22 325.49 L 150.22 321.79 L 151.82 321.79 L 151.82 327.68 L 150.22 327.68 M 150.22 327.68 M 153.43 327.49 L 153.43 326.32 Q 154.6 326.82 155.44 326.82 Q 156.41 326.82 156.41 326.15 Q 156.41 325.73 155.61 325.4 L 155.08 325.18 Q 154.19 324.84 153.82 324.43 Q 153.44 324.02 153.44 323.41 Q 153.44 322.57 154.08 322.11 Q 154.72 321.65 155.88 321.65 Q 156.6 321.65 157.58 321.85 L 157.58 322.98 Q 156.63 322.65 156 322.65 Q 155.02 322.65 155.02 323.26 Q 155.02 323.66 155.74 323.93 L 156.21 324.12 Q 157.24 324.51 157.65 324.91 Q 158.05 325.3 158.05 325.95 Q 158.05 326.77 157.36 327.3 Q 156.68 327.82 155.57 327.82 Q 154.5 327.82 153.43 327.49 M 153.43 327.49"/></g><line x1="250.68" y1="316" x2="250.68" y2="311" style="stroke-width: 0.5;stroke: rgb(192,208,224);stroke-opacity: 1;" transform="matrix(1,0,0,1,0,0)" clip-path="url(#clip-0)"/><g style="fill: rgb(102,102,102);fill-opacity: 1; stroke: none" transform="matrix(0,-1,1,0,19.782928,665.782928)" clip-path="url(#clip-2)"><path d="M 305.78 327.68 L 305.78 319.73 L 310.75 319.73 L 310.75 320.82 L 307.42 320.82 L 307.42 323.04 L 310.14 323.04 L 310.14 324.1 L 307.42 324.1 L 307.42 326.55 L 311 326.55 L 311 327.68 L 305.78 327.68 M 305.78 327.68 M 312.78 327.68 L 312.78 321.79 L 314.36 321.79 L 314.36 322.9 Q 315.14 321.65 316.38 321.65 Q 317.16 321.65 317.62 322.15 Q 318.08 322.65 318.08 323.51 L 318.08 327.68 L 316.49 327.68 L 316.49 323.9 Q 316.49 322.9 315.83 322.9 Q 315.06 322.9 314.36 323.96 L 314.36 327.68 L 312.78 327.68 M 312.78 327.68 M 319.78 327.68 L 319.78 321.79 L 321.36 321.79 L 321.36 322.9 Q 322.14 321.65 323.38 321.65 Q 324.16 321.65 324.62 322.15 Q 325.08 322.65 325.08 323.51 L 325.08 327.68 L 323.49 327.68 L 323.49 323.9 Q 323.49 322.9 322.83 322.9 Q 322.06 322.9 321.36 323.96 L 321.36 327.68 L 319.78 327.68 M 319.78 327.68 M 326.78 327.68 L 326.78 321.79 L 328.36 321.79 L 328.36 327.68 L 326.78 327.68 M 326.78 327.68 M 326.78 320.79 L 326.78 319.46 L 328.36 319.46 L 328.36 320.79 L 326.78 320.79 M 326.78 320.79 M 334.42 327.68 L 334.42 326.57 Q 333.66 327.82 332.41 327.82 Q 331.63 327.82 331.17 327.32 Q 330.7 326.82 330.7 325.95 L 330.7 321.79 L 332.3 321.79 L 332.3 325.55 Q 332.3 326.55 332.97 326.55 Q 333.72 326.55 334.42 325.49 L 334.42 321.79 L 336.02 321.79 L 336.02 327.68 L 334.42 327.68 M 334.42 327.68 M 337.63 327.49 L 337.63 326.32 Q 338.8 326.82 339.64 326.82 Q 340.61 326.82 340.61 326.15 Q 340.61 325.73 339.81 325.4 L 339.28 325.18 Q 338.39 324.84 338.02 324.43 Q 337.64 324.02 337.64 323.41 Q 337.64 322.57 338.28 322.11 Q 338.92 321.65 340.08 321.65 Q 340.8 321.65 341.78 321.85 L 341.78 322.98 Q 340.83 322.65 340.2 322.65 Q 339.22 322.65 339.22 323.26 Q 339.22 323.66 339.94 323.93 L 340.41 324.12 Q 341.44 324.51 341.85 324.91 Q 342.25 325.3 342.25 325.95 Q 342.25 326.77 341.56 327.3 Q 340.88 327.82 339.77 327.82 Q 338.7 327.82 337.63 327.49 M 337.63 327.49"/></g><line x1="434.88" y1="316" x2="434.88" y2="311" style="stroke-width: 0.5;stroke: rgb(192,208,224);stroke-opacity: 1;" transform="matrix(1,0,0,1,0,0)" clip-path="url(#clip-0)"/><g style="fill: rgb(102,102,102);fill-opacity: 1; stroke: none" transform="matrix(0,-1,1,0,203.98291,849.98291)" clip-path="url(#clip-3)"><path d="M 493.98 327.68 L 493.98 319.73 L 495.62 319.73 L 495.62 326.55 L 499.22 326.55 L 499.22 327.68 L 493.98 327.68 M 493.98 327.68 M 499.98 327.68 L 499.98 321.79 L 501.56 321.79 L 501.56 327.68 L 499.98 327.68 M 499.98 327.68 M 499.98 320.79 L 499.98 319.46 L 501.56 319.46 L 501.56 320.79 L 499.98 320.79 M 499.98 320.79 M 505.44 327.68 L 503.19 321.79 L 504.86 321.79 L 506.51 326.04 L 508.14 321.79 L 509.3 321.79 L 507.03 327.68 L 505.44 327.68 M 505.44 327.68 M 510.98 327.68 L 510.98 321.79 L 512.56 321.79 L 512.56 327.68 L 510.98 327.68 M 510.98 327.68 M 510.98 320.79 L 510.98 319.46 L 512.56 319.46 L 512.56 320.79 L 510.98 320.79 M 510.98 320.79 M 518.62 327.68 L 518.62 326.57 Q 517.86 327.82 516.61 327.82 Q 515.83 327.82 515.37 327.32 Q 514.9 326.82 514.9 325.95 L 514.9 321.79 L 516.5 321.79 L 516.5 325.55 Q 516.5 326.55 517.17 326.55 Q 517.92 326.55 518.62 325.49 L 518.62 321.79 L 520.22 321.79 L 520.22 327.68 L 518.62 327.68 M 518.62 327.68 M 521.83 327.49 L 521.83 326.32 Q 523 326.82 523.84 326.82 Q 524.81 326.82 524.81 326.15 Q 524.81 325.73 524.01 325.4 L 523.48 325.18 Q 522.59 324.84 522.22 324.43 Q 521.84 324.02 521.84 323.41 Q 521.84 322.57 522.48 322.11 Q 523.12 321.65 524.28 321.65 Q 525 321.65 525.98 321.85 L 525.98 322.98 Q 525.03 322.65 524.4 322.65 Q 523.42 322.65 523.42 323.26 Q 523.42 323.66 524.14 323.93 L 524.61 324.12 Q 525.64 324.51 526.05 324.91 Q 526.45 325.3 526.45 325.95 Q 526.45 326.77 525.76 327.3 Q 525.08 327.82 523.97 327.82 Q 522.9 327.82 521.83 327.49 M 521.83 327.49"/></g><line x1="619.08" y1="316" x2="619.08" y2="311" style="stroke-width: 0.5;stroke: rgb(192,208,224);stroke-opacity: 1;" transform="matrix(1,0,0,1,0,0)" clip-path="url(#clip-0)"/><g style="fill: rgb(102,102,102);fill-opacity: 1; stroke: none" transform="matrix(0,-1,1,0,388.182922,1034.182922)" clip-path="url(#clip-4)"><path d="M 670.18 327.68 L 670.18 319.73 L 671.64 319.73 L 675.32 325.16 L 675.32 319.73 L 676.64 319.73 L 676.64 327.68 L 675.17 327.68 L 671.51 322.24 L 671.51 327.68 L 670.18 327.68 M 670.18 327.68 M 681.48 326.65 Q 680.67 327.82 679.4 327.82 Q 678.6 327.82 678.11 327.35 Q 677.62 326.88 677.62 326.12 Q 677.62 325.15 678.4 324.62 Q 679.18 324.1 680.64 324.1 L 681.07 324.1 L 681.07 323.54 Q 681.07 322.63 680.03 322.63 Q 679.09 322.63 678.14 323.15 L 678.14 322.05 Q 679.21 321.65 680.25 321.65 Q 681.17 321.65 682.03 322.3 Q 682.84 321.65 683.81 321.65 Q 685.06 321.65 685.65 322.48 Q 686.25 323.3 686.25 325.05 L 682.59 325.05 Q 682.76 326.73 684.45 326.73 Q 685.25 326.73 686.25 326.37 L 686.25 327.48 Q 685.12 327.82 684 327.82 Q 682.39 327.82 681.48 326.65 M 681.48 326.65 M 681.07 326.2 L 681.07 324.99 L 680.68 324.99 Q 679.98 324.99 679.57 325.25 Q 679.15 325.51 679.15 325.96 Q 679.15 326.29 679.37 326.51 Q 679.59 326.73 679.92 326.73 Q 680.48 326.73 681.07 326.2 M 681.07 326.2 M 682.57 324.15 L 684.68 324.15 Q 684.68 322.63 683.71 322.63 Q 682.73 322.63 682.57 324.15 M 682.57 324.15 M 689.64 327.68 L 687.39 321.79 L 689.06 321.79 L 690.71 326.04 L 692.34 321.79 L 693.5 321.79 L 691.23 327.68 L 689.64 327.68 M 689.64 327.68 M 695.18 327.68 L 695.18 321.79 L 696.76 321.79 L 696.76 327.68 L 695.18 327.68 M 695.18 327.68 M 695.18 320.79 L 695.18 319.46 L 696.76 319.46 L 696.76 320.79 L 695.18 320.79 M 695.18 320.79 M 702.82 327.68 L 702.82 326.57 Q 702.06 327.82 700.81 327.82 Q 700.03 327.82 699.57 327.32 Q 699.1 326.82 699.1 325.95 L 699.1 321.79 L 700.7 321.79 L 700.7 325.55 Q 700.7 326.55 701.37 326.55 Q 702.12 326.55 702.82 325.49 L 702.82 321.79 L 704.42 321.79 L 704.42 327.68 L 702.82 327.68 M 702.82 327.68 M 706.03 327.49 L 706.03 326.32 Q 707.2 326.82 708.04 326.82 Q 709.01 326.82 709.01 326.15 Q 709.01 325.73 708.21 325.4 L 707.68 325.18 Q 706.79 324.84 706.42 324.43 Q 706.04 324.02 706.04 323.41 Q 706.04 322.57 706.68 322.11 Q 707.32 321.65 708.48 321.65 Q 709.2 321.65 710.18 321.85 L 710.18 322.98 Q 709.23 322.65 708.6 322.65 Q 707.62 322.65 707.62 323.26 Q 707.62 323.66 708.34 323.93 L 708.81 324.12 Q 709.84 324.51 710.25 324.91 Q 710.65 325.3 710.65 325.95 Q 710.65 326.77 709.96 327.3 Q 709.28 327.82 708.17 327.82 Q 707.1 327.82 706.03 327.49 M 706.03 327.49"/></g><line x1="803.28" y1="316" x2="803.28" y2="311" style="stroke-width: 0.5;stroke: rgb(192,208,224);stroke-opacity: 1;" transform="matrix(1,0,0,1,0,0)" clip-path="url(#clip-0)"/><g style="fill: rgb(102,102,102);fill-opacity: 1; stroke: none" transform="matrix(0,-1,1,0,572.382935,1218.382935)" clip-path="url(#clip-5)"><path d="M 846.38 327.68 L 846.38 319.73 L 849.15 319.73 Q 850.6 319.73 851.22 320.21 Q 851.84 320.7 851.84 321.84 Q 851.84 323.13 851.01 323.85 Q 850.18 324.57 848.68 324.57 L 847.99 324.57 L 847.99 327.68 L 846.38 327.68 M 846.38 327.68 M 847.99 323.48 L 848.32 323.48 Q 849.16 323.48 849.66 323.08 Q 850.15 322.68 850.15 322.01 Q 850.15 320.82 848.65 320.82 L 847.99 320.82 L 847.99 323.48 M 847.99 323.48 M 856.27 327.04 Q 855.48 327.82 854.57 327.82 Q 853.79 327.82 853.3 327.34 Q 852.82 326.87 852.82 326.12 Q 852.82 325.13 853.6 324.61 Q 854.38 324.09 855.84 324.09 L 856.27 324.09 L 856.27 323.54 Q 856.27 322.63 855.23 322.63 Q 854.29 322.63 853.34 323.15 L 853.34 322.05 Q 854.41 321.65 855.48 321.65 Q 857.79 321.65 857.79 323.49 L 857.79 326.1 Q 857.79 326.79 858.24 326.79 Q 858.32 326.79 858.45 326.77 L 858.49 327.66 Q 857.98 327.82 857.59 327.82 Q 856.62 327.82 856.34 327.04 L 856.27 327.04 M 856.27 327.04 M 856.27 326.2 L 856.27 324.99 L 855.88 324.99 Q 854.35 324.99 854.35 325.96 Q 854.35 326.29 854.57 326.51 Q 854.79 326.73 855.12 326.73 Q 855.68 326.73 856.27 326.2 M 856.27 326.2 M 863.73 327.55 Q 862.74 327.82 861.9 327.82 Q 860.48 327.82 859.66 326.98 Q 858.85 326.15 858.85 324.73 Q 858.85 323.27 859.7 322.46 Q 860.54 321.65 862.02 321.65 Q 862.74 321.65 863.68 321.88 L 863.68 323.02 Q 862.7 322.71 862.12 322.71 Q 861.4 322.71 860.97 323.26 Q 860.54 323.8 860.54 324.71 Q 860.54 325.65 861.01 326.2 Q 861.48 326.76 862.26 326.76 Q 862.98 326.76 863.73 326.45 L 863.73 327.55 M 863.73 327.55 M 869.02 327.68 L 869.02 326.57 Q 868.26 327.82 867.01 327.82 Q 866.23 327.82 865.77 327.32 Q 865.3 326.82 865.3 325.95 L 865.3 321.79 L 866.9 321.79 L 866.9 325.55 Q 866.9 326.55 867.57 326.55 Q 868.32 326.55 869.02 325.49 L 869.02 321.79 L 870.62 321.79 L 870.62 327.68 L 869.02 327.68 M 869.02 327.68 M 873.84 327.68 L 871.59 321.79 L 873.26 321.79 L 874.91 326.04 L 876.54 321.79 L 877.7 321.79 L 875.43 327.68 L 873.84 327.68 M 873.84 327.68 M 879.38 327.68 L 879.38 321.79 L 880.96 321.79 L 880.96 327.68 L 879.38 327.68 M 879.38 327.68 M 879.38 320.79 L 879.38 319.46 L 880.96 319.46 L 880.96 320.79 L 879.38 320.79 M 879.38 320.79 M 887.02 327.68 L 887.02 326.57 Q 886.26 327.82 885.01 327.82 Q 884.23 327.82 883.77 327.32 Q 883.3 326.82 883.3 325.95 L 883.3 321.79 L 884.9 321.79 L 884.9 325.55 Q 884.9 326.55 885.57 326.55 Q 886.32 326.55 887.02 325.49 L 887.02 321.79 L 888.62 321.79 L 888.62 327.68 L 887.02 327.68 M 887.02 327.68 M 890.23 327.49 L 890.23 326.32 Q 891.4 326.82 892.24 326.82 Q 893.21 326.82 893.21 326.15 Q 893.21 325.73 892.41 325.4 L 891.88 325.18 Q 890.99 324.84 890.62 324.43 Q 890.24 324.02 890.24 323.41 Q 890.24 322.57 890.88 322.11 Q 891.52 321.65 892.68 321.65 Q 893.4 321.65 894.38 321.85 L 894.38 322.98 Q 893.43 322.65 892.8 322.65 Q 891.82 322.65 891.82 323.26 Q 891.82 323.66 892.54 323.93 L 893.01 324.12 Q 894.04 324.51 894.45 324.91 Q 894.85 325.3 894.85 325.95 Q 894.85 326.77 894.16 327.3 Q 893.48 327.82 892.37 327.82 Q 891.3 327.82 890.23 327.49 M 890.23 327.49"/></g><line x1="987.48" y1="316" x2="987.48" y2="311" style="stroke-width: 0.5;stroke: rgb(192,208,224);stroke-opacity: 1;" transform="matrix(1,0,0,1,0,0)" clip-path="url(#clip-0)"/><g transform="matrix(1,0,0,1,0,0)"><text x="505" y="389.84" style="fill: rgb(77,117,158); font-family: Lucida Sans; font-size: 15px; font-weight: bold; " text-rendering="auto" clip-path="url(#clip-0)">Partie</text></g><g transform="matrix(1,0,0,1,0,0)"><text x="37" y="283.91" style="fill: rgb(102,102,102); font-family: Lucida Sans; font-size: 11px; font-weight: bold; " text-rendering="auto" clip-path="url(#clip-0)">-1.0</text></g><g transform="matrix(1,0,0,1,0,0)"><text x="37" y="263.82" style="fill: rgb(102,102,102); font-family: Lucida Sans; font-size: 11px; font-weight: bold; " text-rendering="auto" clip-path="url(#clip-0)">-0.8</text></g><g transform="matrix(1,0,0,1,0,0)"><text x="37" y="243.73" style="fill: rgb(102,102,102); font-family: Lucida Sans; font-size: 11px; font-weight: bold; " text-rendering="auto" clip-path="url(#clip-0)">-0.6</text></g><g transform="matrix(1,0,0,1,0,0)"><text x="37" y="223.65" style="fill: rgb(102,102,102); font-family: Lucida Sans; font-size: 11px; font-weight: bold; " text-rendering="auto" clip-path="url(#clip-0)">-0.4</text></g><g transform="matrix(1,0,0,1,0,0)"><text x="37" y="203.56" style="fill: rgb(102,102,102); font-family: Lucida Sans; font-size: 11px; font-weight: bold; " text-rendering="auto" clip-path="url(#clip-0)">-0.2</text></g><g transform="matrix(1,0,0,1,0,0)"><text x="44" y="183.47" style="fill: rgb(102,102,102); font-family: Lucida Sans; font-size: 11px; font-weight: bold; " text-rendering="auto" clip-path="url(#clip-0)">0.0</text></g><g transform="matrix(1,0,0,1,0,0)"><text x="44" y="163.39" style="fill: rgb(102,102,102); font-family: Lucida Sans; font-size: 11px; font-weight: bold; " text-rendering="auto" clip-path="url(#clip-0)">0.2</text></g><g transform="matrix(1,0,0,1,0,0)"><text x="44" y="143.3" style="fill: rgb(102,102,102); font-family: Lucida Sans; font-size: 11px; font-weight: bold; " text-rendering="auto" clip-path="url(#clip-0)">0.4</text></g><g transform="matrix(1,0,0,1,0,0)"><text x="44" y="123.21" style="fill: rgb(102,102,102); font-family: Lucida Sans; font-size: 11px; font-weight: bold; " text-rendering="auto" clip-path="url(#clip-0)">0.6</text></g><g transform="matrix(1,0,0,1,0,0)"><text x="44" y="103.13" style="fill: rgb(102,102,102); font-family: Lucida Sans; font-size: 11px; font-weight: bold; " text-rendering="auto" clip-path="url(#clip-0)">0.8</text></g><g transform="matrix(1,0,0,1,0,0)"><text x="44" y="83.04" style="fill: rgb(102,102,102); font-family: Lucida Sans; font-size: 11px; font-weight: bold; " text-rendering="auto" clip-path="url(#clip-0)">1.0</text></g><g transform="matrix(1,0,0,1,0,0)"><text x="44" y="62.95" style="fill: rgb(102,102,102); font-family: Lucida Sans; font-size: 11px; font-weight: bold; " text-rendering="auto" clip-path="url(#clip-0)">1.2</text></g><g style="fill: rgb(77,117,158);fill-opacity: 1; stroke: none" transform="matrix(0,-1,1,0,-154,199)" clip-path="url(#clip-6)"><path d="M 0.36 182.84 L 0.36 171.99 L 2.61 171.99 L 2.61 182.84 L 0.36 182.84 M 0.36 182.84 M 5.36 182.84 L 5.36 174.79 L 7.52 174.79 L 7.52 176.3 Q 8.58 174.62 10.27 174.62 Q 11.34 174.62 11.96 175.3 Q 12.58 175.98 12.58 177.15 L 12.58 182.84 L 10.42 182.84 L 10.42 177.68 Q 10.42 176.32 9.52 176.32 Q 8.47 176.32 7.52 177.77 L 7.52 182.84 L 5.36 182.84 M 5.36 182.84 M 20.42 182.84 L 20.42 181.32 Q 19.58 183.02 17.78 183.02 Q 16.34 183.02 15.52 181.96 Q 14.69 180.9 14.69 179.04 Q 14.69 177.01 15.62 175.81 Q 16.55 174.62 18.12 174.62 Q 19.39 174.62 20.42 175.6 L 20.42 171.27 L 22.59 171.27 L 22.59 182.84 L 20.42 182.84 M 20.42 182.84 M 20.42 176.9 Q 19.62 176.02 18.73 176.02 Q 17.94 176.02 17.46 176.79 Q 16.98 177.55 16.98 178.85 Q 16.98 181.32 18.58 181.32 Q 19.53 181.32 20.42 180.09 L 20.42 176.9 M 20.42 176.9 M 25.36 182.84 L 25.36 174.79 L 27.52 174.79 L 27.52 182.84 L 25.36 182.84 M 25.36 182.84 M 25.36 173.45 L 25.36 171.63 L 27.52 171.63 L 27.52 173.45 L 25.36 173.45 M 25.36 173.45 M 36.28 182.66 Q 34.94 183.02 33.8 183.02 Q 31.86 183.02 30.74 181.89 Q 29.62 180.76 29.62 178.8 Q 29.62 176.84 30.78 175.73 Q 31.94 174.62 33.95 174.62 Q 34.94 174.62 36.22 174.93 L 36.22 176.49 Q 34.89 176.05 34.09 176.05 Q 33.11 176.05 32.52 176.8 Q 31.94 177.55 31.94 178.79 Q 31.94 180.05 32.58 180.82 Q 33.22 181.59 34.28 181.59 Q 35.25 181.59 36.28 181.16 L 36.28 182.66 M 36.28 182.66 M 44.91 182.57 Q 43.36 183.02 41.97 183.02 Q 39.95 183.02 38.79 181.88 Q 37.62 180.73 37.62 178.76 Q 37.62 176.88 38.7 175.75 Q 39.77 174.62 41.52 174.62 Q 43.28 174.62 44.09 175.73 Q 44.91 176.84 44.91 179.24 L 39.92 179.24 Q 40.14 181.54 42.44 181.54 Q 43.53 181.54 44.91 181.04 L 44.91 182.57 M 44.91 182.57 M 39.89 178.02 L 42.77 178.02 Q 42.77 175.96 41.45 175.96 Q 40.09 175.96 39.89 178.02 M 39.89 178.02"/></g><line x1="67" y1="279.23" x2="988" y2="279.23" style="stroke-width: 1.0;stroke: rgb(192,192,192);stroke-opacity: 1;" transform="matrix(1,0,0,1,0,0)" clip-path="url(#clip-7)"/><line x1="67" y1="259.14" x2="988" y2="259.14" style="stroke-width: 1.0;stroke: rgb(192,192,192);stroke-opacity: 1;" transform="matrix(1,0,0,1,0,0)" clip-path="url(#clip-7)"/><line x1="67" y1="239.05" x2="988" y2="239.05" style="stroke-width: 1.0;stroke: rgb(192,192,192);stroke-opacity: 1;" transform="matrix(1,0,0,1,0,0)" clip-path="url(#clip-7)"/><line x1="67" y1="218.97" x2="988" y2="218.97" style="stroke-width: 1.0;stroke: rgb(192,192,192);stroke-opacity: 1;" transform="matrix(1,0,0,1,0,0)" clip-path="url(#clip-7)"/><line x1="67" y1="198.88" x2="988" y2="198.88" style="stroke-width: 1.0;stroke: rgb(192,192,192);stroke-opacity: 1;" transform="matrix(1,0,0,1,0,0)" clip-path="url(#clip-7)"/><line x1="67" y1="158.71" x2="988" y2="158.71" style="stroke-width: 1.0;stroke: rgb(192,192,192);stroke-opacity: 1;" transform="matrix(1,0,0,1,0,0)" clip-path="url(#clip-7)"/><line x1="67" y1="138.62" x2="988" y2="138.62" style="stroke-width: 1.0;stroke: rgb(192,192,192);stroke-opacity: 1;" transform="matrix(1,0,0,1,0,0)" clip-path="url(#clip-7)"/><line x1="67" y1="118.53" x2="988" y2="118.53" style="stroke-width: 1.0;stroke: rgb(192,192,192);stroke-opacity: 1;" transform="matrix(1,0,0,1,0,0)" clip-path="url(#clip-7)"/><line x1="67" y1="98.45" x2="988" y2="98.45" style="stroke-width: 1.0;stroke: rgb(192,192,192);stroke-opacity: 1;" transform="matrix(1,0,0,1,0,0)" clip-path="url(#clip-7)"/><line x1="67" y1="78.36" x2="988" y2="78.36" style="stroke-width: 1.0;stroke: rgb(192,192,192);stroke-opacity: 1;" transform="matrix(1,0,0,1,0,0)" clip-path="url(#clip-7)"/><line x1="67" y1="58.27" x2="988" y2="58.27" style="stroke-width: 1.0;stroke: rgb(192,192,192);stroke-opacity: 1;" transform="matrix(1,0,0,1,0,0)" clip-path="url(#clip-7)"/><line x1="67" y1="178.79" x2="988" y2="178.79" style="stroke-width: 0.5;stroke: rgb(134,145,156);stroke-opacity: 1;" transform="matrix(1,0,0,1,0,0)" clip-path="url(#clip-7)"/><rect x="94.11" y="140.36" width="128.94" height="38.44" style="fill: rgb(128,128,128);fill-opacity: 1" transform="matrix(1,0,0,1,0,0)" clip-path="url(#clip-7)"/><rect x="278.31" y="178.79" width="128.94" height="119.26" style="fill: rgb(128,128,128);fill-opacity: 1" transform="matrix(1,0,0,1,0,0)" clip-path="url(#clip-7)"/><rect x="462.51" y="134.8" width="128.94" height="43.99" style="fill: rgb(128,128,128);fill-opacity: 1" transform="matrix(1,0,0,1,0,0)" clip-path="url(#clip-7)"/><rect x="646.71" y="53.51" width="128.94" height="125.28" style="fill: rgb(128,128,128);fill-opacity: 1" transform="matrix(1,0,0,1,0,0)" clip-path="url(#clip-7)"/><rect x="830.91" y="147.55" width="128.94" height="31.24" style="fill: rgb(128,128,128);fill-opacity: 1" transform="matrix(1,0,0,1,0,0)" clip-path="url(#clip-7)"/></svg>
