<!DOCTYPE svg PUBLIC "-//W3C//DTD SVG 1.1//EN" "http://www.w3.org/Graphics/SVG/1.1/DTD/svg11.dtd">
<svg style="stroke-linecap:square;" xmlns="http://www.w3.org/2000/svg" xmlns:xlink="http://www.w3.org/1999/xlink" width="1141" height="406">
<defs><clipPath id="clip-0"><path d="M 0 0 L 1141 0 L 1141 406 L 0 406 L 0 0 M 0 0"/></clipPath>
<clipPath id="clip-1"><path d="M 454.56 191.44 L 454.56 1332.44 L 48.56 1332.44 L 48.56 191.44 L 454.56 191.44 M 454.56 191.44"/></clipPath>
<clipPath id="clip-2"><path d="M 654.98 -8.98 L 654.98 1132.02 L 248.98 1132.02 L 248.98 -8.98 L 654.98 -8.98 M 654.98 -8.98"/></clipPath>
<clipPath id="clip-3"><path d="M 855.4 -209.4 L 855.4 931.6 L 449.4 931.6 L 449.4 -209.4 L 855.4 -209.4 M 855.4 -209.4"/></clipPath>
<clipPath id="clip-4"><path d="M 1055.82 -409.82 L 1055.82 731.18 L 649.82 731.18 L 649.82 -409.82 L 1055.82 -409.82 M 1055.82 -409.82"/></clipPath>
<clipPath id="clip-5"><path d="M 1256.24 -610.24 L 1256.24 530.76 L 850.24 530.76 L 850.24 -610.24 L 1256.24 -610.24 M 1256.24 -610.24"/></clipPath>
<clipPath id="clip-6"><path d="M 199 154 L 199 1295 L -207 1295 L -207 154 L 199 154 M 199 154"/></clipPath>
<clipPath id="clip-7"><path d="M 67 42 L 67 311 L 978 311 L 978 42 M 67 42"/></clipPath>
</defs>
<rect x="0" y="0" width="1141" height="406" style="fill: rgb(255,255,255);fill-opacity: 1" transform="matrix(1,0,0,1,0,0)" clip-path="url(#clip-0)"/><g transform="matrix(1,0,0,1,0,0)"><text x="453.5" y="26.24" style="fill: rgb(75,75,109); font-family: Lucida Sans; font-size: 16px; font-weight: bold; " text-rendering="auto" clip-path="url(#clip-0)">–Lemmes d&apos;origine grecque–</text></g><rect x="998" y="208" width="133" height="22" style="fill: rgb(255,255,255);fill-opacity: 1" transform="matrix(1,0,0,1,0,0)" clip-path="url(#clip-0)"/><g style="stroke-width: 1.0;stroke: rgb(192,192,192);stroke-opacity: 1; fill: none" transform="matrix(1,0,0,1,0,0)" clip-path="url(#clip-0)"><path d="M 998 213 L 998 225 C 998 227.76 1000.24 230 1003 230 L 1126 230 C 1128.76 230 1131 227.76 1131 225 L 1131 213 C 1131 210.24 1128.76 208 1126 208 L 1003 208 C 1000.24 208 998 210.24 998 213 M 998 213"/></g><g style="fill: rgb(128,128,128);fill-opacity: 1; stroke: none" transform="matrix(1,0,0,1,0,0)" clip-path="url(#clip-0)"><path d="M 1002 214 L 1008 214 L 1008 224 L 1002 224 L 1002 214 M 1002 214"/></g><g transform="matrix(1,0,0,1,0,0)"><text x="1012" y="222.48" style="fill: rgb(39,75,109); font-family: Lucida Sans; font-size: 11px; font-weight: bold; " text-rendering="auto" clip-path="url(#clip-0)">Mots d&apos;origine grecs</text></g><rect x="67" y="42" width="911" height="269" style="fill: rgb(255,255,255);fill-opacity: 1" transform="matrix(1,0,0,1,0,0)" clip-path="url(#clip-0)"/><line x1="67" y1="311" x2="978" y2="311" style="stroke-width: 0.5;stroke: rgb(192,208,224);stroke-opacity: 1;" transform="matrix(1,0,0,1,0,0)" clip-path="url(#clip-0)"/><g style="fill: rgb(102,102,102);fill-opacity: 1; stroke: none" transform="matrix(0,-1,1,0,-191.438354,454.561646)" clip-path="url(#clip-1)"><path d="M 94.69 327.68 L 97.78 319.73 L 99.44 319.73 L 102.53 327.68 L 100.83 327.68 L 100 325.55 L 96.72 325.55 L 95.89 327.68 L 94.69 327.68 M 94.69 327.68 M 97.12 324.49 L 99.59 324.49 L 98.36 321.34 L 97.12 324.49 M 97.12 324.49 M 107.91 327.55 Q 106.92 327.82 106.08 327.82 Q 104.66 327.82 103.84 326.98 Q 103.03 326.15 103.03 324.73 Q 103.03 323.27 103.87 322.46 Q 104.72 321.65 106.2 321.65 Q 106.92 321.65 107.86 321.88 L 107.86 323.02 Q 106.87 322.71 106.3 322.71 Q 105.58 322.71 105.15 323.26 Q 104.72 323.8 104.72 324.71 Q 104.72 325.65 105.19 326.2 Q 105.66 326.76 106.44 326.76 Q 107.16 326.76 107.91 326.45 L 107.91 327.55 M 107.91 327.55 M 113.91 327.55 Q 112.92 327.82 112.08 327.82 Q 110.66 327.82 109.84 326.98 Q 109.03 326.15 109.03 324.73 Q 109.03 323.27 109.87 322.46 Q 110.72 321.65 112.2 321.65 Q 112.92 321.65 113.86 321.88 L 113.86 323.02 Q 112.87 322.71 112.3 322.71 Q 111.58 322.71 111.15 323.26 Q 110.72 323.8 110.72 324.71 Q 110.72 325.65 111.19 326.2 Q 111.66 326.76 112.44 326.76 Q 113.16 326.76 113.91 326.45 L 113.91 327.55 M 113.91 327.55 M 115.56 327.68 L 115.56 321.79 L 117.14 321.79 L 117.14 327.68 L 115.56 327.68 M 115.56 327.68 M 115.56 320.79 L 115.56 319.46 L 117.14 319.46 L 117.14 320.79 L 115.56 320.79 M 115.56 320.79 M 123.2 327.68 L 123.2 326.57 Q 122.44 327.82 121.19 327.82 Q 120.41 327.82 119.94 327.32 Q 119.48 326.82 119.48 325.95 L 119.48 321.79 L 121.08 321.79 L 121.08 325.55 Q 121.08 326.55 121.75 326.55 Q 122.5 326.55 123.2 325.49 L 123.2 321.79 L 124.8 321.79 L 124.8 327.68 L 123.2 327.68 M 123.2 327.68 M 126.41 327.49 L 126.41 326.32 Q 127.58 326.82 128.42 326.82 Q 129.39 326.82 129.39 326.15 Q 129.39 325.73 128.59 325.4 L 128.06 325.18 Q 127.17 324.84 126.8 324.43 Q 126.42 324.02 126.42 323.41 Q 126.42 322.57 127.06 322.11 Q 127.7 321.65 128.86 321.65 Q 129.58 321.65 130.56 321.85 L 130.56 322.98 Q 129.61 322.65 128.98 322.65 Q 128 322.65 128 323.26 Q 128 323.66 128.72 323.93 L 129.19 324.12 Q 130.22 324.51 130.62 324.91 Q 131.03 325.3 131.03 325.95 Q 131.03 326.77 130.34 327.3 Q 129.66 327.82 128.55 327.82 Q 127.48 327.82 126.41 327.49 M 126.41 327.49"/></g><line x1="231.77" y1="316" x2="231.77" y2="311" style="stroke-width: 0.5;stroke: rgb(192,208,224);stroke-opacity: 1;" transform="matrix(1,0,0,1,0,0)" clip-path="url(#clip-0)"/><g style="fill: rgb(102,102,102);fill-opacity: 1; stroke: none" transform="matrix(0,-1,1,0,8.981628,654.981628)" clip-path="url(#clip-2)"><path d="M 294.98 327.68 L 294.98 319.73 L 299.95 319.73 L 299.95 320.82 L 296.62 320.82 L 296.62 323.04 L 299.34 323.04 L 299.34 324.1 L 296.62 324.1 L 296.62 326.55 L 300.2 326.55 L 300.2 327.68 L 294.98 327.68 M 294.98 327.68 M 301.98 327.68 L 301.98 321.79 L 303.56 321.79 L 303.56 322.9 Q 304.34 321.65 305.58 321.65 Q 306.36 321.65 306.82 322.15 Q 307.28 322.65 307.28 323.51 L 307.28 327.68 L 305.68 327.68 L 305.68 323.9 Q 305.68 322.9 305.03 322.9 Q 304.26 322.9 303.56 323.96 L 303.56 327.68 L 301.98 327.68 M 301.98 327.68 M 308.98 327.68 L 308.98 321.79 L 310.56 321.79 L 310.56 322.9 Q 311.34 321.65 312.58 321.65 Q 313.36 321.65 313.82 322.15 Q 314.28 322.65 314.28 323.51 L 314.28 327.68 L 312.68 327.68 L 312.68 323.9 Q 312.68 322.9 312.03 322.9 Q 311.26 322.9 310.56 323.96 L 310.56 327.68 L 308.98 327.68 M 308.98 327.68 M 315.98 327.68 L 315.98 321.79 L 317.56 321.79 L 317.56 327.68 L 315.98 327.68 M 315.98 327.68 M 315.98 320.79 L 315.98 319.46 L 317.56 319.46 L 317.56 320.79 L 315.98 320.79 M 315.98 320.79 M 323.62 327.68 L 323.62 326.57 Q 322.86 327.82 321.61 327.82 Q 320.83 327.82 320.36 327.32 Q 319.9 326.82 319.9 325.95 L 319.9 321.79 L 321.5 321.79 L 321.5 325.55 Q 321.5 326.55 322.17 326.55 Q 322.92 326.55 323.62 325.49 L 323.62 321.79 L 325.22 321.79 L 325.22 327.68 L 323.62 327.68 M 323.62 327.68 M 326.83 327.49 L 326.83 326.32 Q 328 326.82 328.84 326.82 Q 329.81 326.82 329.81 326.15 Q 329.81 325.73 329.01 325.4 L 328.48 325.18 Q 327.59 324.84 327.22 324.43 Q 326.84 324.02 326.84 323.41 Q 326.84 322.57 327.48 322.11 Q 328.12 321.65 329.28 321.65 Q 330 321.65 330.98 321.85 L 330.98 322.98 Q 330.03 322.65 329.4 322.65 Q 328.42 322.65 328.42 323.26 Q 328.42 323.66 329.14 323.93 L 329.61 324.12 Q 330.64 324.51 331.04 324.91 Q 331.45 325.3 331.45 325.95 Q 331.45 326.77 330.76 327.3 Q 330.08 327.82 328.97 327.82 Q 327.9 327.82 326.83 327.49 M 326.83 327.49"/></g><line x1="432.19" y1="316" x2="432.19" y2="311" style="stroke-width: 0.5;stroke: rgb(192,208,224);stroke-opacity: 1;" transform="matrix(1,0,0,1,0,0)" clip-path="url(#clip-0)"/><g style="fill: rgb(102,102,102);fill-opacity: 1; stroke: none" transform="matrix(0,-1,1,0,209.401672,855.401672)" clip-path="url(#clip-3)"><path d="M 499.4 327.68 L 499.4 319.73 L 501.04 319.73 L 501.04 326.55 L 504.64 326.55 L 504.64 327.68 L 499.4 327.68 M 499.4 327.68 M 505.4 327.68 L 505.4 321.79 L 506.98 321.79 L 506.98 327.68 L 505.4 327.68 M 505.4 327.68 M 505.4 320.79 L 505.4 319.46 L 506.98 319.46 L 506.98 320.79 L 505.4 320.79 M 505.4 320.79 M 510.85 327.68 L 508.6 321.79 L 510.28 321.79 L 511.93 326.04 L 513.56 321.79 L 514.71 321.79 L 512.45 327.68 L 510.85 327.68 M 510.85 327.68 M 516.4 327.68 L 516.4 321.79 L 517.98 321.79 L 517.98 327.68 L 516.4 327.68 M 516.4 327.68 M 516.4 320.79 L 516.4 319.46 L 517.98 319.46 L 517.98 320.79 L 516.4 320.79 M 516.4 320.79 M 524.04 327.68 L 524.04 326.57 Q 523.28 327.82 522.03 327.82 Q 521.25 327.82 520.78 327.32 Q 520.32 326.82 520.32 325.95 L 520.32 321.79 L 521.92 321.79 L 521.92 325.55 Q 521.92 326.55 522.59 326.55 Q 523.34 326.55 524.04 325.49 L 524.04 321.79 L 525.64 321.79 L 525.64 327.68 L 524.04 327.68 M 524.04 327.68 M 527.25 327.49 L 527.25 326.32 Q 528.42 326.82 529.26 326.82 Q 530.23 326.82 530.23 326.15 Q 530.23 325.73 529.43 325.4 L 528.9 325.18 Q 528.01 324.84 527.64 324.43 Q 527.26 324.02 527.26 323.41 Q 527.26 322.57 527.9 322.11 Q 528.54 321.65 529.7 321.65 Q 530.42 321.65 531.4 321.85 L 531.4 322.98 Q 530.45 322.65 529.82 322.65 Q 528.84 322.65 528.84 323.26 Q 528.84 323.66 529.56 323.93 L 530.03 324.12 Q 531.06 324.51 531.46 324.91 Q 531.87 325.3 531.87 325.95 Q 531.87 326.77 531.18 327.3 Q 530.5 327.82 529.39 327.82 Q 528.32 327.82 527.25 327.49 M 527.25 327.49"/></g><line x1="632.61" y1="316" x2="632.61" y2="311" style="stroke-width: 0.5;stroke: rgb(192,208,224);stroke-opacity: 1;" transform="matrix(1,0,0,1,0,0)" clip-path="url(#clip-0)"/><g style="fill: rgb(102,102,102);fill-opacity: 1; stroke: none" transform="matrix(0,-1,1,0,409.821655,1055.821655)" clip-path="url(#clip-4)"><path d="M 689.82 327.68 L 689.82 319.73 L 691.27 319.73 L 694.96 325.16 L 694.96 319.73 L 696.27 319.73 L 696.27 327.68 L 694.81 327.68 L 691.15 322.24 L 691.15 327.68 L 689.82 327.68 M 689.82 327.68 M 700.71 327.04 Q 699.92 327.82 699.01 327.82 Q 698.23 327.82 697.74 327.34 Q 697.26 326.87 697.26 326.12 Q 697.26 325.13 698.04 324.61 Q 698.82 324.09 700.27 324.09 L 700.71 324.09 L 700.71 323.54 Q 700.71 322.63 699.67 322.63 Q 698.73 322.63 697.77 323.15 L 697.77 322.05 Q 698.85 321.65 699.92 321.65 Q 702.23 321.65 702.23 323.49 L 702.23 326.1 Q 702.23 326.79 702.68 326.79 Q 702.76 326.79 702.88 326.77 L 702.93 327.66 Q 702.42 327.82 702.02 327.82 Q 701.06 327.82 700.77 327.04 L 700.71 327.04 M 700.71 327.04 M 700.71 326.2 L 700.71 324.99 L 700.32 324.99 Q 698.79 324.99 698.79 325.96 Q 698.79 326.29 699.01 326.51 Q 699.23 326.73 699.56 326.73 Q 700.12 326.73 700.71 326.2 M 700.71 326.2 M 708.62 327.48 Q 707.48 327.82 706.46 327.82 Q 704.99 327.82 704.14 326.98 Q 703.29 326.13 703.29 324.7 Q 703.29 323.32 704.07 322.48 Q 704.85 321.65 706.13 321.65 Q 707.43 321.65 708.02 322.46 Q 708.62 323.27 708.62 325.05 L 704.96 325.05 Q 705.12 326.73 706.81 326.73 Q 707.62 326.73 708.62 326.37 L 708.62 327.48 M 708.62 327.48 M 704.93 324.15 L 707.06 324.15 Q 707.06 322.65 706.09 322.65 Q 705.09 322.65 704.93 324.15 M 704.93 324.15 M 711.27 327.68 L 709.02 321.79 L 710.7 321.79 L 712.35 326.04 L 713.98 321.79 L 715.13 321.79 L 712.87 327.68 L 711.27 327.68 M 711.27 327.68 M 716.82 327.68 L 716.82 321.79 L 718.4 321.79 L 718.4 327.68 L 716.82 327.68 M 716.82 327.68 M 716.82 320.79 L 716.82 319.46 L 718.4 319.46 L 718.4 320.79 L 716.82 320.79 M 716.82 320.79 M 724.46 327.68 L 724.46 326.57 Q 723.7 327.82 722.45 327.82 Q 721.67 327.82 721.2 327.32 Q 720.74 326.82 720.74 325.95 L 720.74 321.79 L 722.34 321.79 L 722.34 325.55 Q 722.34 326.55 723.01 326.55 Q 723.76 326.55 724.46 325.49 L 724.46 321.79 L 726.06 321.79 L 726.06 327.68 L 724.46 327.68 M 724.46 327.68 M 727.67 327.49 L 727.67 326.32 Q 728.84 326.82 729.68 326.82 Q 730.65 326.82 730.65 326.15 Q 730.65 325.73 729.85 325.4 L 729.32 325.18 Q 728.43 324.84 728.06 324.43 Q 727.68 324.02 727.68 323.41 Q 727.68 322.57 728.32 322.11 Q 728.96 321.65 730.12 321.65 Q 730.84 321.65 731.82 321.85 L 731.82 322.98 Q 730.87 322.65 730.24 322.65 Q 729.26 322.65 729.26 323.26 Q 729.26 323.66 729.98 323.93 L 730.45 324.12 Q 731.48 324.51 731.88 324.91 Q 732.29 325.3 732.29 325.95 Q 732.29 326.77 731.6 327.3 Q 730.92 327.82 729.81 327.82 Q 728.74 327.82 727.67 327.49 M 727.67 327.49"/></g><line x1="833.03" y1="316" x2="833.03" y2="311" style="stroke-width: 0.5;stroke: rgb(192,208,224);stroke-opacity: 1;" transform="matrix(1,0,0,1,0,0)" clip-path="url(#clip-0)"/><g style="fill: rgb(102,102,102);fill-opacity: 1; stroke: none" transform="matrix(0,-1,1,0,610.241638,1256.241638)" clip-path="url(#clip-5)"><path d="M 884.24 327.68 L 884.24 319.73 L 887.01 319.73 Q 888.46 319.73 889.08 320.21 Q 889.69 320.7 889.69 321.84 Q 889.69 323.13 888.87 323.85 Q 888.04 324.57 886.54 324.57 L 885.85 324.57 L 885.85 327.68 L 884.24 327.68 M 884.24 327.68 M 885.85 323.48 L 886.18 323.48 Q 887.02 323.48 887.52 323.08 Q 888.01 322.68 888.01 322.01 Q 888.01 320.82 886.51 320.82 L 885.85 320.82 L 885.85 323.48 M 885.85 323.48 M 894.13 327.04 Q 893.34 327.82 892.43 327.82 Q 891.65 327.82 891.16 327.34 Q 890.68 326.87 890.68 326.12 Q 890.68 325.13 891.46 324.61 Q 892.24 324.09 893.69 324.09 L 894.13 324.09 L 894.13 323.54 Q 894.13 322.63 893.09 322.63 Q 892.15 322.63 891.19 323.15 L 891.19 322.05 Q 892.27 321.65 893.34 321.65 Q 895.65 321.65 895.65 323.49 L 895.65 326.1 Q 895.65 326.79 896.1 326.79 Q 896.18 326.79 896.3 326.77 L 896.35 327.66 Q 895.84 327.82 895.44 327.82 Q 894.48 327.82 894.19 327.04 L 894.13 327.04 M 894.13 327.04 M 894.13 326.2 L 894.13 324.99 L 893.74 324.99 Q 892.21 324.99 892.21 325.96 Q 892.21 326.29 892.43 326.51 Q 892.65 326.73 892.98 326.73 Q 893.54 326.73 894.13 326.2 M 894.13 326.2 M 901.59 327.55 Q 900.6 327.82 899.76 327.82 Q 898.34 327.82 897.52 326.98 Q 896.71 326.15 896.71 324.73 Q 896.71 323.27 897.55 322.46 Q 898.4 321.65 899.88 321.65 Q 900.6 321.65 901.54 321.88 L 901.54 323.02 Q 900.55 322.71 899.98 322.71 Q 899.26 322.71 898.83 323.26 Q 898.4 323.8 898.4 324.71 Q 898.4 325.65 898.87 326.2 Q 899.34 326.76 900.12 326.76 Q 900.84 326.76 901.59 326.45 L 901.59 327.55 M 901.59 327.55 M 906.88 327.68 L 906.88 326.57 Q 906.12 327.82 904.87 327.82 Q 904.09 327.82 903.62 327.32 Q 903.16 326.82 903.16 325.95 L 903.16 321.79 L 904.76 321.79 L 904.76 325.55 Q 904.76 326.55 905.43 326.55 Q 906.18 326.55 906.88 325.49 L 906.88 321.79 L 908.48 321.79 L 908.48 327.68 L 906.88 327.68 M 906.88 327.68 M 911.69 327.68 L 909.44 321.79 L 911.12 321.79 L 912.77 326.04 L 914.4 321.79 L 915.55 321.79 L 913.29 327.68 L 911.69 327.68 M 911.69 327.68 M 917.24 327.68 L 917.24 321.79 L 918.82 321.79 L 918.82 327.68 L 917.24 327.68 M 917.24 327.68 M 917.24 320.79 L 917.24 319.46 L 918.82 319.46 L 918.82 320.79 L 917.24 320.79 M 917.24 320.79 M 924.88 327.68 L 924.88 326.57 Q 924.12 327.82 922.87 327.82 Q 922.09 327.82 921.62 327.32 Q 921.16 326.82 921.16 325.95 L 921.16 321.79 L 922.76 321.79 L 922.76 325.55 Q 922.76 326.55 923.43 326.55 Q 924.18 326.55 924.88 325.49 L 924.88 321.79 L 926.48 321.79 L 926.48 327.68 L 924.88 327.68 M 924.88 327.68 M 928.09 327.49 L 928.09 326.32 Q 929.26 326.82 930.1 326.82 Q 931.07 326.82 931.07 326.15 Q 931.07 325.73 930.27 325.4 L 929.74 325.18 Q 928.85 324.84 928.48 324.43 Q 928.1 324.02 928.1 323.41 Q 928.1 322.57 928.74 322.11 Q 929.38 321.65 930.54 321.65 Q 931.26 321.65 932.24 321.85 L 932.24 322.98 Q 931.29 322.65 930.66 322.65 Q 929.68 322.65 929.68 323.26 Q 929.68 323.66 930.4 323.93 L 930.87 324.12 Q 931.9 324.51 932.3 324.91 Q 932.71 325.3 932.71 325.95 Q 932.71 326.77 932.02 327.3 Q 931.34 327.82 930.23 327.82 Q 929.16 327.82 928.09 327.49 M 928.09 327.49"/></g><g transform="matrix(1,0,0,1,0,0)"><text x="500" y="389.84" style="fill: rgb(77,117,158); font-family: Lucida Sans; font-size: 15px; font-weight: bold; " text-rendering="auto" clip-path="url(#clip-0)">Partie</text></g><g transform="matrix(1,0,0,1,0,0)"><text x="37" y="310.64" style="fill: rgb(102,102,102); font-family: Lucida Sans; font-size: 11px; font-weight: bold; " text-rendering="auto" clip-path="url(#clip-0)">-2.5</text></g><g transform="matrix(1,0,0,1,0,0)"><text x="37" y="281.59" style="fill: rgb(102,102,102); font-family: Lucida Sans; font-size: 11px; font-weight: bold; " text-rendering="auto" clip-path="url(#clip-0)">-2.0</text></g><g transform="matrix(1,0,0,1,0,0)"><text x="37" y="252.55" style="fill: rgb(102,102,102); font-family: Lucida Sans; font-size: 11px; font-weight: bold; " text-rendering="auto" clip-path="url(#clip-0)">-1.5</text></g><g transform="matrix(1,0,0,1,0,0)"><text x="37" y="223.5" style="fill: rgb(102,102,102); font-family: Lucida Sans; font-size: 11px; font-weight: bold; " text-rendering="auto" clip-path="url(#clip-0)">-1.0</text></g><g transform="matrix(1,0,0,1,0,0)"><text x="37" y="194.45" style="fill: rgb(102,102,102); font-family: Lucida Sans; font-size: 11px; font-weight: bold; " text-rendering="auto" clip-path="url(#clip-0)">-0.5</text></g><g transform="matrix(1,0,0,1,0,0)"><text x="44" y="165.41" style="fill: rgb(102,102,102); font-family: Lucida Sans; font-size: 11px; font-weight: bold; " text-rendering="auto" clip-path="url(#clip-0)">0.0</text></g><g transform="matrix(1,0,0,1,0,0)"><text x="44" y="136.36" style="fill: rgb(102,102,102); font-family: Lucida Sans; font-size: 11px; font-weight: bold; " text-rendering="auto" clip-path="url(#clip-0)">0.5</text></g><g transform="matrix(1,0,0,1,0,0)"><text x="44" y="107.31" style="fill: rgb(102,102,102); font-family: Lucida Sans; font-size: 11px; font-weight: bold; " text-rendering="auto" clip-path="url(#clip-0)">1.0</text></g><g transform="matrix(1,0,0,1,0,0)"><text x="44" y="78.27" style="fill: rgb(102,102,102); font-family: Lucida Sans; font-size: 11px; font-weight: bold; " text-rendering="auto" clip-path="url(#clip-0)">1.5</text></g><g style="fill: rgb(77,117,158);fill-opacity: 1; stroke: none" transform="matrix(0,-1,1,0,-154,199)" clip-path="url(#clip-6)"><path d="M 0.36 182.84 L 0.36 171.99 L 2.61 171.99 L 2.61 182.84 L 0.36 182.84 M 0.36 182.84 M 5.36 182.84 L 5.36 174.79 L 7.52 174.79 L 7.52 176.3 Q 8.58 174.62 10.27 174.62 Q 11.34 174.62 11.96 175.3 Q 12.58 175.98 12.58 177.15 L 12.58 182.84 L 10.42 182.84 L 10.42 177.68 Q 10.42 176.32 9.52 176.32 Q 8.47 176.32 7.52 177.77 L 7.52 182.84 L 5.36 182.84 M 5.36 182.84 M 20.42 182.84 L 20.42 181.32 Q 19.58 183.02 17.78 183.02 Q 16.34 183.02 15.52 181.96 Q 14.69 180.9 14.69 179.04 Q 14.69 177.01 15.62 175.81 Q 16.55 174.62 18.12 174.62 Q 19.39 174.62 20.42 175.6 L 20.42 171.27 L 22.59 171.27 L 22.59 182.84 L 20.42 182.84 M 20.42 182.84 M 20.42 176.9 Q 19.62 176.02 18.73 176.02 Q 17.94 176.02 17.46 176.79 Q 16.98 177.55 16.98 178.85 Q 16.98 181.32 18.58 181.32 Q 19.53 181.32 20.42 180.09 L 20.42 176.9 M 20.42 176.9 M 25.36 182.84 L 25.36 174.79 L 27.52 174.79 L 27.52 182.84 L 25.36 182.84 M 25.36 182.84 M 25.36 173.45 L 25.36 171.63 L 27.52 171.63 L 27.52 173.45 L 25.36 173.45 M 25.36 173.45 M 36.28 182.66 Q 34.94 183.02 33.8 183.02 Q 31.86 183.02 30.74 181.89 Q 29.62 180.76 29.62 178.8 Q 29.62 176.84 30.78 175.73 Q 31.94 174.62 33.95 174.62 Q 34.94 174.62 36.22 174.93 L 36.22 176.49 Q 34.89 176.05 34.09 176.05 Q 33.11 176.05 32.52 176.8 Q 31.94 177.55 31.94 178.79 Q 31.94 180.05 32.58 180.82 Q 33.22 181.59 34.28 181.59 Q 35.25 181.59 36.28 181.16 L 36.28 182.66 M 36.28 182.66 M 44.91 182.57 Q 43.36 183.02 41.97 183.02 Q 39.95 183.02 38.79 181.88 Q 37.62 180.73 37.62 178.76 Q 37.62 176.88 38.7 175.75 Q 39.77 174.62 41.52 174.62 Q 43.28 174.62 44.09 175.73 Q 44.91 176.84 44.91 179.24 L 39.92 179.24 Q 40.14 181.54 42.44 181.54 Q 43.53 181.54 44.91 181.04 L 44.91 182.57 M 44.91 182.57 M 39.89 178.02 L 42.77 178.02 Q 42.77 175.96 41.45 175.96 Q 40.09 175.96 39.89 178.02 M 39.89 178.02"/></g><line x1="67" y1="305.96" x2="978" y2="305.96" style="stroke-width: 1.0;stroke: rgb(192,192,192);stroke-opacity: 1;" transform="matrix(1,0,0,1,0,0)" clip-path="url(#clip-7)"/><line x1="67" y1="276.91" x2="978" y2="276.91" style="stroke-width: 1.0;stroke: rgb(192,192,192);stroke-opacity: 1;" transform="matrix(1,0,0,1,0,0)" clip-path="url(#clip-7)"/><line x1="67" y1="247.87" x2="978" y2="247.87" style="stroke-width: 1.0;stroke: rgb(192,192,192);stroke-opacity: 1;" transform="matrix(1,0,0,1,0,0)" clip-path="url(#clip-7)"/><line x1="67" y1="218.82" x2="978" y2="218.82" style="stroke-width: 1.0;stroke: rgb(192,192,192);stroke-opacity: 1;" transform="matrix(1,0,0,1,0,0)" clip-path="url(#clip-7)"/><line x1="67" y1="189.77" x2="978" y2="189.77" style="stroke-width: 1.0;stroke: rgb(192,192,192);stroke-opacity: 1;" transform="matrix(1,0,0,1,0,0)" clip-path="url(#clip-7)"/><line x1="67" y1="131.68" x2="978" y2="131.68" style="stroke-width: 1.0;stroke: rgb(192,192,192);stroke-opacity: 1;" transform="matrix(1,0,0,1,0,0)" clip-path="url(#clip-7)"/><line x1="67" y1="102.63" x2="978" y2="102.63" style="stroke-width: 1.0;stroke: rgb(192,192,192);stroke-opacity: 1;" transform="matrix(1,0,0,1,0,0)" clip-path="url(#clip-7)"/><line x1="67" y1="73.59" x2="978" y2="73.59" style="stroke-width: 1.0;stroke: rgb(192,192,192);stroke-opacity: 1;" transform="matrix(1,0,0,1,0,0)" clip-path="url(#clip-7)"/><line x1="67" y1="160.73" x2="978" y2="160.73" style="stroke-width: 0.5;stroke: rgb(134,145,156);stroke-opacity: 1;" transform="matrix(1,0,0,1,0,0)" clip-path="url(#clip-7)"/><rect x="61.41" y="119.22" width="140.29" height="41.5" style="fill: rgb(128,128,128);fill-opacity: 1" transform="matrix(1,0,0,1,0,0)" clip-path="url(#clip-7)"/><rect x="261.83" y="122.48" width="140.29" height="38.24" style="fill: rgb(128,128,128);fill-opacity: 1" transform="matrix(1,0,0,1,0,0)" clip-path="url(#clip-7)"/><rect x="462.25" y="140.25" width="140.29" height="20.47" style="fill: rgb(128,128,128);fill-opacity: 1" transform="matrix(1,0,0,1,0,0)" clip-path="url(#clip-7)"/><rect x="662.67" y="48.02" width="140.29" height="112.71" style="fill: rgb(128,128,128);fill-opacity: 1" transform="matrix(1,0,0,1,0,0)" clip-path="url(#clip-7)"/><rect x="863.09" y="160.73" width="140.29" height="156.29" style="fill: rgb(128,128,128);fill-opacity: 1" transform="matrix(1,0,0,1,0,0)" clip-path="url(#clip-7)"/><line x1="67" y1="44.54" x2="978" y2="44.54" style="stroke-width: 0.5;stroke: rgb(255,0,0);stroke-opacity: 1;" transform="matrix(1,0,0,1,0,0)" clip-path="url(#clip-7)"/><rect x="916" y="30.94" width="59" height="11" style="fill: rgb(100,100,100);fill-opacity: 0.392157" transform="matrix(1,0,0,1,0,0)" clip-path="url(#clip-7)"/><g transform="matrix(1,0,0,1,0,0)"><text x="916" y="39.64" style="fill: rgb(0,0,0); font-family: sans-serif; font-size: 9px; " text-rendering="auto" clip-path="url(#clip-7)">Banalité : 2.0</text></g><line x1="67" y1="276.91" x2="978" y2="276.91" style="stroke-width: 0.5;stroke: rgb(255,0,0);stroke-opacity: 1;" transform="matrix(1,0,0,1,0,0)" clip-path="url(#clip-7)"/><rect x="911" y="263.31" width="64" height="11" style="fill: rgb(100,100,100);fill-opacity: 0.392157" transform="matrix(1,0,0,1,0,0)" clip-path="url(#clip-7)"/><g transform="matrix(1,0,0,1,0,0)"><text x="911" y="272.01" style="fill: rgb(0,0,0); font-family: sans-serif; font-size: 9px; " text-rendering="auto" clip-path="url(#clip-7)">Banalité : -2.0</text></g></svg>
