<!DOCTYPE svg PUBLIC "-//W3C//DTD SVG 1.1//EN" "http://www.w3.org/Graphics/SVG/1.1/DTD/svg11.dtd">
<svg style="stroke-linecap:square;" xmlns="http://www.w3.org/2000/svg" xmlns:xlink="http://www.w3.org/1999/xlink" width="798" height="403">
<defs><clipPath id="clip-0"><path d="M 0 0 L 798 0 L 798 403 L 0 403 L 0 0 M 0 0"/></clipPath>
<clipPath id="clip-1"><path d="M 219 174 L 219 972 L -184 972 L -184 174 L 219 174 M 219 174"/></clipPath>
<clipPath id="clip-2"><path d="M 67 42 L 67 351 L 788 351 L 788 42 M 67 42"/></clipPath>
</defs>
<rect x="0" y="0" width="798" height="403" style="fill: rgb(255,255,255);fill-opacity: 1" transform="matrix(1,0,0,1,0,0)" clip-path="url(#clip-0)"/><g transform="matrix(1,0,0,1,0,0)"><text x="169.5" y="26.24" style="fill: rgb(75,75,109); font-family: Lucida Sans; font-size: 16px; font-weight: bold; " text-rendering="auto" clip-path="url(#clip-0)">Plan factoriel de l&apos;analyse des correspondances “Médée“</text></g><g style="stroke-width: 1.0;stroke: rgb(128,128,128);stroke-opacity: 1; fill: none" transform="matrix(1,0,0,1,0,0)" clip-path="url(#clip-0)"><path d=""/></g><rect x="67" y="42" width="721" height="309" style="fill: rgb(255,255,255);fill-opacity: 1" transform="matrix(1,0,0,1,0,0)" clip-path="url(#clip-0)"/><line x1="67" y1="351" x2="788" y2="351" style="stroke-width: 0.5;stroke: rgb(192,208,224);stroke-opacity: 1;" transform="matrix(1,0,0,1,0,0)" clip-path="url(#clip-0)"/><g transform="matrix(1,0,0,1,0,0)"><text x="72.1" y="366.68" style="fill: rgb(102,102,102); font-family: Lucida Sans; font-size: 11px; font-weight: bold; " text-rendering="auto" clip-path="url(#clip-0)">-1.2</text></g><line x1="84.1" y1="356" x2="84.1" y2="351" style="stroke-width: 0.5;stroke: rgb(192,208,224);stroke-opacity: 1;" transform="matrix(1,0,0,1,0,0)" clip-path="url(#clip-0)"/><g transform="matrix(1,0,0,1,0,0)"><text x="119.9" y="366.68" style="fill: rgb(102,102,102); font-family: Lucida Sans; font-size: 11px; font-weight: bold; " text-rendering="auto" clip-path="url(#clip-0)">-1.0</text></g><line x1="131.9" y1="356" x2="131.9" y2="351" style="stroke-width: 0.5;stroke: rgb(192,208,224);stroke-opacity: 1;" transform="matrix(1,0,0,1,0,0)" clip-path="url(#clip-0)"/><g transform="matrix(1,0,0,1,0,0)"><text x="167.7" y="366.68" style="fill: rgb(102,102,102); font-family: Lucida Sans; font-size: 11px; font-weight: bold; " text-rendering="auto" clip-path="url(#clip-0)">-0.8</text></g><line x1="179.7" y1="356" x2="179.7" y2="351" style="stroke-width: 0.5;stroke: rgb(192,208,224);stroke-opacity: 1;" transform="matrix(1,0,0,1,0,0)" clip-path="url(#clip-0)"/><g transform="matrix(1,0,0,1,0,0)"><text x="215.5" y="366.68" style="fill: rgb(102,102,102); font-family: Lucida Sans; font-size: 11px; font-weight: bold; " text-rendering="auto" clip-path="url(#clip-0)">-0.6</text></g><line x1="227.5" y1="356" x2="227.5" y2="351" style="stroke-width: 0.5;stroke: rgb(192,208,224);stroke-opacity: 1;" transform="matrix(1,0,0,1,0,0)" clip-path="url(#clip-0)"/><g transform="matrix(1,0,0,1,0,0)"><text x="263.3" y="366.68" style="fill: rgb(102,102,102); font-family: Lucida Sans; font-size: 11px; font-weight: bold; " text-rendering="auto" clip-path="url(#clip-0)">-0.4</text></g><line x1="275.3" y1="356" x2="275.3" y2="351" style="stroke-width: 0.5;stroke: rgb(192,208,224);stroke-opacity: 1;" transform="matrix(1,0,0,1,0,0)" clip-path="url(#clip-0)"/><g transform="matrix(1,0,0,1,0,0)"><text x="311.1" y="366.68" style="fill: rgb(102,102,102); font-family: Lucida Sans; font-size: 11px; font-weight: bold; " text-rendering="auto" clip-path="url(#clip-0)">-0.2</text></g><line x1="323.1" y1="356" x2="323.1" y2="351" style="stroke-width: 0.5;stroke: rgb(192,208,224);stroke-opacity: 1;" transform="matrix(1,0,0,1,0,0)" clip-path="url(#clip-0)"/><g transform="matrix(1,0,0,1,0,0)"><text x="362.4" y="366.68" style="fill: rgb(102,102,102); font-family: Lucida Sans; font-size: 11px; font-weight: bold; " text-rendering="auto" clip-path="url(#clip-0)">0.0</text></g><line x1="370.9" y1="356" x2="370.9" y2="351" style="stroke-width: 0.5;stroke: rgb(192,208,224);stroke-opacity: 1;" transform="matrix(1,0,0,1,0,0)" clip-path="url(#clip-0)"/><g transform="matrix(1,0,0,1,0,0)"><text x="410.2" y="366.68" style="fill: rgb(102,102,102); font-family: Lucida Sans; font-size: 11px; font-weight: bold; " text-rendering="auto" clip-path="url(#clip-0)">0.2</text></g><line x1="418.7" y1="356" x2="418.7" y2="351" style="stroke-width: 0.5;stroke: rgb(192,208,224);stroke-opacity: 1;" transform="matrix(1,0,0,1,0,0)" clip-path="url(#clip-0)"/><g transform="matrix(1,0,0,1,0,0)"><text x="458" y="366.68" style="fill: rgb(102,102,102); font-family: Lucida Sans; font-size: 11px; font-weight: bold; " text-rendering="auto" clip-path="url(#clip-0)">0.4</text></g><line x1="466.5" y1="356" x2="466.5" y2="351" style="stroke-width: 0.5;stroke: rgb(192,208,224);stroke-opacity: 1;" transform="matrix(1,0,0,1,0,0)" clip-path="url(#clip-0)"/><g transform="matrix(1,0,0,1,0,0)"><text x="505.81" y="366.68" style="fill: rgb(102,102,102); font-family: Lucida Sans; font-size: 11px; font-weight: bold; " text-rendering="auto" clip-path="url(#clip-0)">0.6</text></g><line x1="514.31" y1="356" x2="514.31" y2="351" style="stroke-width: 0.5;stroke: rgb(192,208,224);stroke-opacity: 1;" transform="matrix(1,0,0,1,0,0)" clip-path="url(#clip-0)"/><g transform="matrix(1,0,0,1,0,0)"><text x="553.61" y="366.68" style="fill: rgb(102,102,102); font-family: Lucida Sans; font-size: 11px; font-weight: bold; " text-rendering="auto" clip-path="url(#clip-0)">0.8</text></g><line x1="562.11" y1="356" x2="562.11" y2="351" style="stroke-width: 0.5;stroke: rgb(192,208,224);stroke-opacity: 1;" transform="matrix(1,0,0,1,0,0)" clip-path="url(#clip-0)"/><g transform="matrix(1,0,0,1,0,0)"><text x="601.41" y="366.68" style="fill: rgb(102,102,102); font-family: Lucida Sans; font-size: 11px; font-weight: bold; " text-rendering="auto" clip-path="url(#clip-0)">1.0</text></g><line x1="609.91" y1="356" x2="609.91" y2="351" style="stroke-width: 0.5;stroke: rgb(192,208,224);stroke-opacity: 1;" transform="matrix(1,0,0,1,0,0)" clip-path="url(#clip-0)"/><g transform="matrix(1,0,0,1,0,0)"><text x="649.21" y="366.68" style="fill: rgb(102,102,102); font-family: Lucida Sans; font-size: 11px; font-weight: bold; " text-rendering="auto" clip-path="url(#clip-0)">1.2</text></g><line x1="657.71" y1="356" x2="657.71" y2="351" style="stroke-width: 0.5;stroke: rgb(192,208,224);stroke-opacity: 1;" transform="matrix(1,0,0,1,0,0)" clip-path="url(#clip-0)"/><g transform="matrix(1,0,0,1,0,0)"><text x="697.01" y="366.68" style="fill: rgb(102,102,102); font-family: Lucida Sans; font-size: 11px; font-weight: bold; " text-rendering="auto" clip-path="url(#clip-0)">1.4</text></g><line x1="705.51" y1="356" x2="705.51" y2="351" style="stroke-width: 0.5;stroke: rgb(192,208,224);stroke-opacity: 1;" transform="matrix(1,0,0,1,0,0)" clip-path="url(#clip-0)"/><g transform="matrix(1,0,0,1,0,0)"><text x="744.81" y="366.68" style="fill: rgb(102,102,102); font-family: Lucida Sans; font-size: 11px; font-weight: bold; " text-rendering="auto" clip-path="url(#clip-0)">1.6</text></g><line x1="753.31" y1="356" x2="753.31" y2="351" style="stroke-width: 0.5;stroke: rgb(192,208,224);stroke-opacity: 1;" transform="matrix(1,0,0,1,0,0)" clip-path="url(#clip-0)"/><g transform="matrix(1,0,0,1,0,0)"><text x="369" y="386.64" style="fill: rgb(77,117,158); font-family: Lucida Sans; font-size: 15px; font-weight: bold; " text-rendering="auto" clip-path="url(#clip-0)">Axe 1 (56.64%)</text></g><line x1="67" y1="42" x2="67" y2="351" style="stroke-width: 0.5;stroke: rgb(192,208,224);stroke-opacity: 1;" transform="matrix(1,0,0,1,0,0)" clip-path="url(#clip-0)"/><g transform="matrix(1,0,0,1,0,0)"><text x="37" y="345.25" style="fill: rgb(102,102,102); font-family: Lucida Sans; font-size: 11px; font-weight: bold; " text-rendering="auto" clip-path="url(#clip-0)">-0.8</text></g><line x1="62" y1="340.57" x2="67" y2="340.57" style="stroke-width: 0.5;stroke: rgb(192,208,224);stroke-opacity: 1;" transform="matrix(1,0,0,1,0,0)" clip-path="url(#clip-0)"/><g transform="matrix(1,0,0,1,0,0)"><text x="37" y="324.97" style="fill: rgb(102,102,102); font-family: Lucida Sans; font-size: 11px; font-weight: bold; " text-rendering="auto" clip-path="url(#clip-0)">-0.7</text></g><line x1="62" y1="320.29" x2="67" y2="320.29" style="stroke-width: 0.5;stroke: rgb(192,208,224);stroke-opacity: 1;" transform="matrix(1,0,0,1,0,0)" clip-path="url(#clip-0)"/><g transform="matrix(1,0,0,1,0,0)"><text x="37" y="304.69" style="fill: rgb(102,102,102); font-family: Lucida Sans; font-size: 11px; font-weight: bold; " text-rendering="auto" clip-path="url(#clip-0)">-0.6</text></g><line x1="62" y1="300.01" x2="67" y2="300.01" style="stroke-width: 0.5;stroke: rgb(192,208,224);stroke-opacity: 1;" transform="matrix(1,0,0,1,0,0)" clip-path="url(#clip-0)"/><g transform="matrix(1,0,0,1,0,0)"><text x="37" y="284.41" style="fill: rgb(102,102,102); font-family: Lucida Sans; font-size: 11px; font-weight: bold; " text-rendering="auto" clip-path="url(#clip-0)">-0.5</text></g><line x1="62" y1="279.73" x2="67" y2="279.73" style="stroke-width: 0.5;stroke: rgb(192,208,224);stroke-opacity: 1;" transform="matrix(1,0,0,1,0,0)" clip-path="url(#clip-0)"/><g transform="matrix(1,0,0,1,0,0)"><text x="37" y="264.12" style="fill: rgb(102,102,102); font-family: Lucida Sans; font-size: 11px; font-weight: bold; " text-rendering="auto" clip-path="url(#clip-0)">-0.4</text></g><line x1="62" y1="259.44" x2="67" y2="259.44" style="stroke-width: 0.5;stroke: rgb(192,208,224);stroke-opacity: 1;" transform="matrix(1,0,0,1,0,0)" clip-path="url(#clip-0)"/><g transform="matrix(1,0,0,1,0,0)"><text x="37" y="243.84" style="fill: rgb(102,102,102); font-family: Lucida Sans; font-size: 11px; font-weight: bold; " text-rendering="auto" clip-path="url(#clip-0)">-0.3</text></g><line x1="62" y1="239.16" x2="67" y2="239.16" style="stroke-width: 0.5;stroke: rgb(192,208,224);stroke-opacity: 1;" transform="matrix(1,0,0,1,0,0)" clip-path="url(#clip-0)"/><g transform="matrix(1,0,0,1,0,0)"><text x="37" y="223.56" style="fill: rgb(102,102,102); font-family: Lucida Sans; font-size: 11px; font-weight: bold; " text-rendering="auto" clip-path="url(#clip-0)">-0.2</text></g><line x1="62" y1="218.88" x2="67" y2="218.88" style="stroke-width: 0.5;stroke: rgb(192,208,224);stroke-opacity: 1;" transform="matrix(1,0,0,1,0,0)" clip-path="url(#clip-0)"/><g transform="matrix(1,0,0,1,0,0)"><text x="37" y="203.27" style="fill: rgb(102,102,102); font-family: Lucida Sans; font-size: 11px; font-weight: bold; " text-rendering="auto" clip-path="url(#clip-0)">-0.1</text></g><line x1="62" y1="198.59" x2="67" y2="198.59" style="stroke-width: 0.5;stroke: rgb(192,208,224);stroke-opacity: 1;" transform="matrix(1,0,0,1,0,0)" clip-path="url(#clip-0)"/><g transform="matrix(1,0,0,1,0,0)"><text x="44" y="182.99" style="fill: rgb(102,102,102); font-family: Lucida Sans; font-size: 11px; font-weight: bold; " text-rendering="auto" clip-path="url(#clip-0)">0.0</text></g><line x1="62" y1="178.31" x2="67" y2="178.31" style="stroke-width: 0.5;stroke: rgb(192,208,224);stroke-opacity: 1;" transform="matrix(1,0,0,1,0,0)" clip-path="url(#clip-0)"/><g transform="matrix(1,0,0,1,0,0)"><text x="44" y="162.71" style="fill: rgb(102,102,102); font-family: Lucida Sans; font-size: 11px; font-weight: bold; " text-rendering="auto" clip-path="url(#clip-0)">0.1</text></g><line x1="62" y1="158.03" x2="67" y2="158.03" style="stroke-width: 0.5;stroke: rgb(192,208,224);stroke-opacity: 1;" transform="matrix(1,0,0,1,0,0)" clip-path="url(#clip-0)"/><g transform="matrix(1,0,0,1,0,0)"><text x="44" y="142.43" style="fill: rgb(102,102,102); font-family: Lucida Sans; font-size: 11px; font-weight: bold; " text-rendering="auto" clip-path="url(#clip-0)">0.2</text></g><line x1="62" y1="137.75" x2="67" y2="137.75" style="stroke-width: 0.5;stroke: rgb(192,208,224);stroke-opacity: 1;" transform="matrix(1,0,0,1,0,0)" clip-path="url(#clip-0)"/><g transform="matrix(1,0,0,1,0,0)"><text x="44" y="122.14" style="fill: rgb(102,102,102); font-family: Lucida Sans; font-size: 11px; font-weight: bold; " text-rendering="auto" clip-path="url(#clip-0)">0.3</text></g><line x1="62" y1="117.46" x2="67" y2="117.46" style="stroke-width: 0.5;stroke: rgb(192,208,224);stroke-opacity: 1;" transform="matrix(1,0,0,1,0,0)" clip-path="url(#clip-0)"/><g transform="matrix(1,0,0,1,0,0)"><text x="44" y="101.86" style="fill: rgb(102,102,102); font-family: Lucida Sans; font-size: 11px; font-weight: bold; " text-rendering="auto" clip-path="url(#clip-0)">0.4</text></g><line x1="62" y1="97.18" x2="67" y2="97.18" style="stroke-width: 0.5;stroke: rgb(192,208,224);stroke-opacity: 1;" transform="matrix(1,0,0,1,0,0)" clip-path="url(#clip-0)"/><g transform="matrix(1,0,0,1,0,0)"><text x="44" y="81.58" style="fill: rgb(102,102,102); font-family: Lucida Sans; font-size: 11px; font-weight: bold; " text-rendering="auto" clip-path="url(#clip-0)">0.5</text></g><line x1="62" y1="76.9" x2="67" y2="76.9" style="stroke-width: 0.5;stroke: rgb(192,208,224);stroke-opacity: 1;" transform="matrix(1,0,0,1,0,0)" clip-path="url(#clip-0)"/><g transform="matrix(1,0,0,1,0,0)"><text x="44" y="61.29" style="fill: rgb(102,102,102); font-family: Lucida Sans; font-size: 11px; font-weight: bold; " text-rendering="auto" clip-path="url(#clip-0)">0.6</text></g><line x1="62" y1="56.61" x2="67" y2="56.61" style="stroke-width: 0.5;stroke: rgb(192,208,224);stroke-opacity: 1;" transform="matrix(1,0,0,1,0,0)" clip-path="url(#clip-0)"/><g style="fill: rgb(77,117,158);fill-opacity: 1; stroke: none" transform="matrix(0,-1,1,0,-174,219)" clip-path="url(#clip-1)"><path d="M -35.83 202.84 L -31.61 191.99 L -29.36 191.99 L -25.14 202.84 L -27.45 202.84 L -28.58 199.95 L -33.06 199.95 L -34.19 202.84 L -35.83 202.84 M -35.83 202.84 M -32.5 198.49 L -29.14 198.49 L -30.83 194.18 L -32.5 198.49 M -32.5 198.49 M -24.5 202.84 L -21.73 198.8 L -24.39 194.79 L -21.92 194.79 L -20.19 197.34 L -18.53 194.79 L -16.78 194.79 L -19.3 198.74 L -16.59 202.84 L -19.06 202.84 L -20.86 200.18 L -22.7 202.84 L -24.5 202.84 M -24.5 202.84 M -8.09 202.57 Q -9.64 203.02 -11.03 203.02 Q -13.05 203.02 -14.21 201.88 Q -15.38 200.73 -15.38 198.76 Q -15.38 196.88 -14.3 195.75 Q -13.23 194.62 -11.48 194.62 Q -9.72 194.62 -8.91 195.73 Q -8.09 196.84 -8.09 199.24 L -13.08 199.24 Q -12.86 201.54 -10.56 201.54 Q -9.47 201.54 -8.09 201.04 L -8.09 202.57 M -8.09 202.57 M -13.11 198.02 L -10.23 198.02 Q -10.23 195.96 -11.55 195.96 Q -12.91 195.96 -13.11 198.02 M -13.11 198.02 M -0.92 202.84 L -0.92 201.12 L -0.81 200.96 Q 0.06 199.79 0.98 198.99 L 1.88 198.21 Q 4.06 196.27 4.06 194.82 Q 4.06 193.12 2.12 193.12 Q 0.94 193.12 -0.64 193.93 L -0.64 192.34 Q 1.02 191.73 2.56 191.73 Q 4.28 191.73 5.32 192.54 Q 6.36 193.35 6.36 194.73 Q 6.36 195.68 5.86 196.45 Q 5.36 197.23 4.08 198.26 L 3.34 198.84 Q 1.81 200.07 1.53 201.12 L 6.33 201.12 L 6.33 202.84 L -0.92 202.84 M -0.92 202.84 M 17.83 191.18 L 17.83 192.59 Q 15.89 194.54 15.89 198.13 Q 15.89 201.73 17.83 203.7 L 17.83 205.09 Q 16.05 204.13 14.98 202.23 Q 13.91 200.32 13.91 198.13 Q 13.91 195.95 14.96 194.07 Q 16.02 192.2 17.83 191.18 M 17.83 191.18 M 24.77 202.84 L 24.77 199.95 L 19.7 199.95 L 19.7 198.32 L 24.67 191.99 L 26.66 191.99 L 26.66 198.32 L 27.92 198.32 L 27.92 199.95 L 26.66 199.95 L 26.66 202.84 L 24.77 202.84 M 24.77 202.84 M 21.44 198.32 L 24.81 198.32 L 24.81 194.07 L 21.44 198.32 M 21.44 198.32 M 30.48 202.76 L 30.48 201.13 Q 32.09 201.76 33.14 201.76 Q 34.11 201.76 34.7 201.26 Q 35.3 200.76 35.3 199.93 Q 35.3 197.79 32.16 197.79 L 31.48 197.79 L 31.48 196.49 L 32.05 196.48 Q 34.98 196.48 34.98 194.55 Q 34.98 193.09 33.17 193.09 Q 31.98 193.09 30.62 193.7 L 30.62 192.21 Q 32.05 191.71 33.64 191.71 Q 35.31 191.71 36.26 192.41 Q 37.2 193.1 37.2 194.3 Q 37.2 196.23 34.81 197.02 Q 37.56 197.65 37.56 199.95 Q 37.56 201.41 36.46 202.26 Q 35.36 203.1 33.47 203.1 Q 31.86 203.1 30.48 202.76 M 30.48 202.76 M 39.69 202.84 L 39.69 200.49 L 42.03 200.49 L 42.03 202.84 L 39.69 202.84 M 39.69 202.84 M 44.48 202.76 L 44.48 201.13 Q 46.09 201.76 47.14 201.76 Q 48.11 201.76 48.7 201.26 Q 49.3 200.76 49.3 199.93 Q 49.3 197.79 46.16 197.79 L 45.48 197.79 L 45.48 196.49 L 46.05 196.48 Q 48.98 196.48 48.98 194.55 Q 48.98 193.09 47.17 193.09 Q 45.98 193.09 44.62 193.7 L 44.62 192.21 Q 46.05 191.71 47.64 191.71 Q 49.31 191.71 50.26 192.41 Q 51.2 193.1 51.2 194.3 Q 51.2 196.23 48.81 197.02 Q 51.56 197.65 51.56 199.95 Q 51.56 201.41 50.46 202.26 Q 49.36 203.1 47.47 203.1 Q 45.86 203.1 44.48 202.76 M 44.48 202.76 M 56.02 197.09 Q 57.03 195.85 58.62 195.85 Q 60.06 195.85 61.02 196.81 Q 61.97 197.77 61.97 199.23 Q 61.97 200.93 60.88 202.02 Q 59.78 203.1 58.05 203.1 Q 56.03 203.1 54.89 201.66 Q 53.75 200.23 53.75 197.66 Q 53.75 194.85 55.05 193.28 Q 56.34 191.71 58.67 191.71 Q 59.78 191.71 61.41 192.12 L 61.41 193.7 Q 59.92 193.07 58.75 193.07 Q 57.45 193.07 56.73 194.12 Q 56.02 195.18 56.02 197.09 M 56.02 197.09 M 59.8 199.59 Q 59.8 198.48 59.31 197.84 Q 58.83 197.2 58 197.2 Q 57.2 197.2 56.66 197.78 Q 56.11 198.37 56.11 199.23 Q 56.11 200.37 56.64 201.06 Q 57.17 201.76 58.05 201.76 Q 58.84 201.76 59.32 201.16 Q 59.8 200.57 59.8 199.59 M 59.8 199.59 M 63.88 203.1 L 72.41 191.73 L 73.88 191.73 L 65.34 203.1 L 63.88 203.1 M 63.88 203.1 M 65.73 197.41 Q 64.55 197.41 63.87 196.69 Q 63.19 195.96 63.19 194.71 Q 63.19 193.45 63.88 192.72 Q 64.56 191.99 65.77 191.99 Q 66.95 191.99 67.64 192.72 Q 68.33 193.45 68.33 194.7 Q 68.33 195.98 67.64 196.7 Q 66.95 197.41 65.73 197.41 M 65.73 197.41 M 65.75 196.34 Q 66.7 196.34 66.7 194.7 Q 66.7 193.09 65.77 193.09 Q 64.81 193.09 64.81 194.71 Q 64.81 196.34 65.75 196.34 M 65.75 196.34 M 71.97 202.84 Q 70.78 202.84 70.1 202.11 Q 69.42 201.38 69.42 200.13 Q 69.42 198.85 70.11 198.13 Q 70.8 197.41 72 197.41 Q 73.2 197.41 73.88 198.13 Q 74.56 198.85 74.56 200.12 Q 74.56 201.4 73.88 202.12 Q 73.19 202.84 71.97 202.84 M 71.97 202.84 M 71.98 201.76 Q 72.94 201.76 72.94 200.12 Q 72.94 198.49 72 198.49 Q 71.05 198.49 71.05 200.13 Q 71.05 201.76 71.98 201.76 M 71.98 201.76 M 76.17 191.18 L 76.17 192.59 Q 78.11 194.54 78.11 198.13 Q 78.11 201.73 76.17 203.7 L 76.17 205.09 Q 77.95 204.13 79.02 202.23 Q 80.09 200.32 80.09 198.13 Q 80.09 195.95 79.04 194.07 Q 77.98 192.2 76.17 191.18 M 76.17 191.18"/></g><line x1="84.1" y1="42" x2="84.1" y2="351" style="stroke-width: 0.5;stroke: rgb(192,192,192);stroke-opacity: 1;stroke-dasharray: 2.0;" transform="matrix(1,0,0,1,0,0)" clip-path="url(#clip-2)"/><line x1="131.9" y1="42" x2="131.9" y2="351" style="stroke-width: 0.5;stroke: rgb(192,192,192);stroke-opacity: 1;stroke-dasharray: 2.0;" transform="matrix(1,0,0,1,0,0)" clip-path="url(#clip-2)"/><line x1="179.7" y1="42" x2="179.7" y2="351" style="stroke-width: 0.5;stroke: rgb(192,192,192);stroke-opacity: 1;stroke-dasharray: 2.0;" transform="matrix(1,0,0,1,0,0)" clip-path="url(#clip-2)"/><line x1="227.5" y1="42" x2="227.5" y2="351" style="stroke-width: 0.5;stroke: rgb(192,192,192);stroke-opacity: 1;stroke-dasharray: 2.0;" transform="matrix(1,0,0,1,0,0)" clip-path="url(#clip-2)"/><line x1="275.3" y1="42" x2="275.3" y2="351" style="stroke-width: 0.5;stroke: rgb(192,192,192);stroke-opacity: 1;stroke-dasharray: 2.0;" transform="matrix(1,0,0,1,0,0)" clip-path="url(#clip-2)"/><line x1="323.1" y1="42" x2="323.1" y2="351" style="stroke-width: 0.5;stroke: rgb(192,192,192);stroke-opacity: 1;stroke-dasharray: 2.0;" transform="matrix(1,0,0,1,0,0)" clip-path="url(#clip-2)"/><line x1="370.9" y1="42" x2="370.9" y2="351" style="stroke-width: 0.5;stroke: rgb(192,192,192);stroke-opacity: 1;stroke-dasharray: 2.0;" transform="matrix(1,0,0,1,0,0)" clip-path="url(#clip-2)"/><line x1="418.7" y1="42" x2="418.7" y2="351" style="stroke-width: 0.5;stroke: rgb(192,192,192);stroke-opacity: 1;stroke-dasharray: 2.0;" transform="matrix(1,0,0,1,0,0)" clip-path="url(#clip-2)"/><line x1="466.5" y1="42" x2="466.5" y2="351" style="stroke-width: 0.5;stroke: rgb(192,192,192);stroke-opacity: 1;stroke-dasharray: 2.0;" transform="matrix(1,0,0,1,0,0)" clip-path="url(#clip-2)"/><line x1="514.31" y1="42" x2="514.31" y2="351" style="stroke-width: 0.5;stroke: rgb(192,192,192);stroke-opacity: 1;stroke-dasharray: 2.0;" transform="matrix(1,0,0,1,0,0)" clip-path="url(#clip-2)"/><line x1="562.11" y1="42" x2="562.11" y2="351" style="stroke-width: 0.5;stroke: rgb(192,192,192);stroke-opacity: 1;stroke-dasharray: 2.0;" transform="matrix(1,0,0,1,0,0)" clip-path="url(#clip-2)"/><line x1="609.91" y1="42" x2="609.91" y2="351" style="stroke-width: 0.5;stroke: rgb(192,192,192);stroke-opacity: 1;stroke-dasharray: 2.0;" transform="matrix(1,0,0,1,0,0)" clip-path="url(#clip-2)"/><line x1="657.71" y1="42" x2="657.71" y2="351" style="stroke-width: 0.5;stroke: rgb(192,192,192);stroke-opacity: 1;stroke-dasharray: 2.0;" transform="matrix(1,0,0,1,0,0)" clip-path="url(#clip-2)"/><line x1="705.51" y1="42" x2="705.51" y2="351" style="stroke-width: 0.5;stroke: rgb(192,192,192);stroke-opacity: 1;stroke-dasharray: 2.0;" transform="matrix(1,0,0,1,0,0)" clip-path="url(#clip-2)"/><line x1="753.31" y1="42" x2="753.31" y2="351" style="stroke-width: 0.5;stroke: rgb(192,192,192);stroke-opacity: 1;stroke-dasharray: 2.0;" transform="matrix(1,0,0,1,0,0)" clip-path="url(#clip-2)"/><line x1="370.9" y1="42" x2="370.9" y2="351" style="stroke-width: 0.5;stroke: rgb(134,145,156);stroke-opacity: 1;" transform="matrix(1,0,0,1,0,0)" clip-path="url(#clip-2)"/><line x1="67" y1="340.57" x2="788" y2="340.57" style="stroke-width: 0.5;stroke: rgb(192,192,192);stroke-opacity: 1;stroke-dasharray: 2.0;" transform="matrix(1,0,0,1,0,0)" clip-path="url(#clip-2)"/><line x1="67" y1="320.29" x2="788" y2="320.29" style="stroke-width: 0.5;stroke: rgb(192,192,192);stroke-opacity: 1;stroke-dasharray: 2.0;" transform="matrix(1,0,0,1,0,0)" clip-path="url(#clip-2)"/><line x1="67" y1="300.01" x2="788" y2="300.01" style="stroke-width: 0.5;stroke: rgb(192,192,192);stroke-opacity: 1;stroke-dasharray: 2.0;" transform="matrix(1,0,0,1,0,0)" clip-path="url(#clip-2)"/><line x1="67" y1="279.73" x2="788" y2="279.73" style="stroke-width: 0.5;stroke: rgb(192,192,192);stroke-opacity: 1;stroke-dasharray: 2.0;" transform="matrix(1,0,0,1,0,0)" clip-path="url(#clip-2)"/><line x1="67" y1="259.44" x2="788" y2="259.44" style="stroke-width: 0.5;stroke: rgb(192,192,192);stroke-opacity: 1;stroke-dasharray: 2.0;" transform="matrix(1,0,0,1,0,0)" clip-path="url(#clip-2)"/><line x1="67" y1="239.16" x2="788" y2="239.16" style="stroke-width: 0.5;stroke: rgb(192,192,192);stroke-opacity: 1;stroke-dasharray: 2.0;" transform="matrix(1,0,0,1,0,0)" clip-path="url(#clip-2)"/><line x1="67" y1="218.88" x2="788" y2="218.88" style="stroke-width: 0.5;stroke: rgb(192,192,192);stroke-opacity: 1;stroke-dasharray: 2.0;" transform="matrix(1,0,0,1,0,0)" clip-path="url(#clip-2)"/><line x1="67" y1="198.59" x2="788" y2="198.59" style="stroke-width: 0.5;stroke: rgb(192,192,192);stroke-opacity: 1;stroke-dasharray: 2.0;" transform="matrix(1,0,0,1,0,0)" clip-path="url(#clip-2)"/><line x1="67" y1="158.03" x2="788" y2="158.03" style="stroke-width: 0.5;stroke: rgb(192,192,192);stroke-opacity: 1;stroke-dasharray: 2.0;" transform="matrix(1,0,0,1,0,0)" clip-path="url(#clip-2)"/><line x1="67" y1="137.75" x2="788" y2="137.75" style="stroke-width: 0.5;stroke: rgb(192,192,192);stroke-opacity: 1;stroke-dasharray: 2.0;" transform="matrix(1,0,0,1,0,0)" clip-path="url(#clip-2)"/><line x1="67" y1="117.46" x2="788" y2="117.46" style="stroke-width: 0.5;stroke: rgb(192,192,192);stroke-opacity: 1;stroke-dasharray: 2.0;" transform="matrix(1,0,0,1,0,0)" clip-path="url(#clip-2)"/><line x1="67" y1="97.18" x2="788" y2="97.18" style="stroke-width: 0.5;stroke: rgb(192,192,192);stroke-opacity: 1;stroke-dasharray: 2.0;" transform="matrix(1,0,0,1,0,0)" clip-path="url(#clip-2)"/><line x1="67" y1="76.9" x2="788" y2="76.9" style="stroke-width: 0.5;stroke: rgb(192,192,192);stroke-opacity: 1;stroke-dasharray: 2.0;" transform="matrix(1,0,0,1,0,0)" clip-path="url(#clip-2)"/><line x1="67" y1="56.61" x2="788" y2="56.61" style="stroke-width: 0.5;stroke: rgb(192,192,192);stroke-opacity: 1;stroke-dasharray: 2.0;" transform="matrix(1,0,0,1,0,0)" clip-path="url(#clip-2)"/><line x1="67" y1="178.31" x2="788" y2="178.31" style="stroke-width: 0.5;stroke: rgb(134,145,156);stroke-opacity: 1;" transform="matrix(1,0,0,1,0,0)" clip-path="url(#clip-2)"/><g style="fill: rgb(0,0,0);fill-opacity: 0; stroke: none" transform="matrix(1,0,0,1,0,0)" clip-path="url(#clip-2)"><path d="M 494.14 192.33 L 494.14 198.13 C 494.14 199.51 495.26 200.63 496.64 200.63 L 552.64 200.63 C 554.02 200.63 555.14 199.51 555.14 198.13 L 555.14 192.33 C 555.14 190.95 554.02 189.83 552.64 189.83 L 496.64 189.83 C 495.26 189.83 494.14 190.95 494.14 192.33 M 494.14 192.33"/></g><g style="stroke-width: 1.0;stroke: rgb(0,0,0);stroke-opacity: 0; fill: none" transform="matrix(1,0,0,1,0,0)" clip-path="url(#clip-2)"><path d="M 494.14 192.33 L 494.14 198.13 C 494.14 199.51 495.26 200.63 496.64 200.63 L 552.64 200.63 C 554.02 200.63 555.14 199.51 555.14 198.13 L 555.14 192.33 C 555.14 190.95 554.02 189.83 552.64 189.83 L 496.64 189.83 C 495.26 189.83 494.14 190.95 494.14 192.33 M 494.14 192.33"/></g><g transform="matrix(1,0,0,1,0,0)"><text x="494.64" y="200.88" style="fill: rgb(255,0,0); font-family: Lucida Sans; font-size: 11px; " text-rendering="auto" clip-path="url(#clip-2)">Medea exul</text></g><g style="fill: rgb(0,0,0);fill-opacity: 0; stroke: none" transform="matrix(1,0,0,1,0,0)" clip-path="url(#clip-2)"><path d="M 228.66 241.98 L 228.66 247.78 C 228.66 249.16 229.78 250.28 231.16 250.28 L 349.66 250.28 C 351.05 250.28 352.16 249.16 352.16 247.78 L 352.16 241.98 C 352.16 240.6 351.05 239.48 349.66 239.48 L 231.16 239.48 C 229.78 239.48 228.66 240.6 228.66 241.98 M 228.66 241.98"/></g><g style="stroke-width: 1.0;stroke: rgb(0,0,0);stroke-opacity: 0; fill: none" transform="matrix(1,0,0,1,0,0)" clip-path="url(#clip-2)"><path d="M 228.66 241.98 L 228.66 247.78 C 228.66 249.16 229.78 250.28 231.16 250.28 L 349.66 250.28 C 351.05 250.28 352.16 249.16 352.16 247.78 L 352.16 241.98 C 352.16 240.6 351.05 239.48 349.66 239.48 L 231.16 239.48 C 229.78 239.48 228.66 240.6 228.66 241.98 M 228.66 241.98"/></g><g transform="matrix(1,0,0,1,0,0)"><text x="228.41" y="250.53" style="fill: rgb(255,0,0); font-family: Lucida Sans; font-size: 11px; " text-rendering="auto" clip-path="url(#clip-2)">Medea sive Argonautae</text></g><g style="fill: rgb(0,0,0);fill-opacity: 0; stroke: none" transform="matrix(1,0,0,1,0,0)" clip-path="url(#clip-2)"><path d="M 310.68 63.31 L 310.68 69.11 C 310.68 70.49 311.8 71.61 313.18 71.61 L 343.18 71.61 C 344.56 71.61 345.68 70.49 345.68 69.11 L 345.68 63.31 C 345.68 61.93 344.56 60.81 343.18 60.81 L 313.18 60.81 C 311.8 60.81 310.68 61.93 310.68 63.31 M 310.68 63.31"/></g><g style="stroke-width: 1.0;stroke: rgb(0,0,0);stroke-opacity: 0; fill: none" transform="matrix(1,0,0,1,0,0)" clip-path="url(#clip-2)"><path d="M 310.68 63.31 L 310.68 69.11 C 310.68 70.49 311.8 71.61 313.18 71.61 L 343.18 71.61 C 344.56 71.61 345.68 70.49 345.68 69.11 L 345.68 63.31 C 345.68 61.93 344.56 60.81 343.18 60.81 L 313.18 60.81 C 311.8 60.81 310.68 61.93 310.68 63.31 M 310.68 63.31"/></g><g transform="matrix(1,0,0,1,0,0)"><text x="310.68" y="71.86" style="fill: rgb(255,0,0); font-family: Lucida Sans; font-size: 11px; " text-rendering="auto" clip-path="url(#clip-2)">Medos</text></g><g transform="matrix(1,0,0,1,0,0)"><text x="146.73" y="365.91" style="fill: rgb(47,126,216); font-family: Lucida Sans; font-size: 11px; " text-rendering="auto" clip-path="url(#clip-2)">misericordia</text></g><g style="fill: rgb(0,0,0);fill-opacity: 0; stroke: none" transform="matrix(1,0,0,1,0,0)" clip-path="url(#clip-2)"><path d="M 714.11 222.92 L 714.11 228.72 C 714.11 230.1 715.23 231.22 716.61 231.22 L 753.61 231.22 C 754.99 231.22 756.11 230.1 756.11 228.72 L 756.11 222.92 C 756.11 221.54 754.99 220.42 753.61 220.42 L 716.61 220.42 C 715.23 220.42 714.11 221.54 714.11 222.92 M 714.11 222.92"/></g><g style="stroke-width: 1.0;stroke: rgb(0,0,0);stroke-opacity: 0; fill: none" transform="matrix(1,0,0,1,0,0)" clip-path="url(#clip-2)"><path d="M 714.11 222.92 L 714.11 228.72 C 714.11 230.1 715.23 231.22 716.61 231.22 L 753.61 231.22 C 754.99 231.22 756.11 230.1 756.11 228.72 L 756.11 222.92 C 756.11 221.54 754.99 220.42 753.61 220.42 L 716.61 220.42 C 715.23 220.42 714.11 221.54 714.11 222.92 M 714.11 222.92"/></g><g transform="matrix(1,0,0,1,0,0)"><text x="713.61" y="231.47" style="fill: rgb(47,126,216); font-family: Lucida Sans; font-size: 11px; " text-rendering="auto" clip-path="url(#clip-2)">cupidus</text></g><g transform="matrix(1,0,0,1,0,0)"><text x="253.19" y="-117.88" style="fill: rgb(47,126,216); font-family: Lucida Sans; font-size: 11px; " text-rendering="auto" clip-path="url(#clip-2)">animo</text></g><g style="fill: rgb(0,0,0);fill-opacity: 0; stroke: none" transform="matrix(1,0,0,1,0,0)" clip-path="url(#clip-2)"><path d="M 716.86 222.92 L 716.86 228.72 C 716.86 230.1 717.98 231.22 719.36 231.22 L 750.86 231.22 C 752.24 231.22 753.36 230.1 753.36 228.72 L 753.36 222.92 C 753.36 221.54 752.24 220.42 750.86 220.42 L 719.36 220.42 C 717.98 220.42 716.86 221.54 716.86 222.92 M 716.86 222.92"/></g><g style="stroke-width: 1.0;stroke: rgb(0,0,0);stroke-opacity: 0; fill: none" transform="matrix(1,0,0,1,0,0)" clip-path="url(#clip-2)"><path d="M 716.86 222.92 L 716.86 228.72 C 716.86 230.1 717.98 231.22 719.36 231.22 L 750.86 231.22 C 752.24 231.22 753.36 230.1 753.36 228.72 L 753.36 222.92 C 753.36 221.54 752.24 220.42 750.86 220.42 L 719.36 220.42 C 717.98 220.42 716.86 221.54 716.86 222.92 M 716.86 222.92"/></g><g transform="matrix(1,0,0,1,0,0)"><text x="716.61" y="231.47" style="fill: rgb(47,126,216); font-family: Lucida Sans; font-size: 11px; " text-rendering="auto" clip-path="url(#clip-2)">aeger2</text></g><g style="fill: rgb(0,0,0);fill-opacity: 0; stroke: none" transform="matrix(1,0,0,1,0,0)" clip-path="url(#clip-2)"><path d="M 210.21 115.46 L 210.21 121.26 C 210.21 122.64 211.33 123.76 212.71 123.76 L 237.21 123.76 C 238.59 123.76 239.71 122.64 239.71 121.26 L 239.71 115.46 C 239.71 114.08 238.59 112.96 237.21 112.96 L 212.71 112.96 C 211.33 112.96 210.21 114.08 210.21 115.46 M 210.21 115.46"/></g><g style="stroke-width: 1.0;stroke: rgb(0,0,0);stroke-opacity: 0; fill: none" transform="matrix(1,0,0,1,0,0)" clip-path="url(#clip-2)"><path d="M 210.21 115.46 L 210.21 121.26 C 210.21 122.64 211.33 123.76 212.71 123.76 L 237.21 123.76 C 238.59 123.76 239.71 122.64 239.71 121.26 L 239.71 115.46 C 239.71 114.08 238.59 112.96 237.21 112.96 L 212.71 112.96 C 211.33 112.96 210.21 114.08 210.21 115.46 M 210.21 115.46"/></g><g transform="matrix(1,0,0,1,0,0)"><text x="209.46" y="124.02" style="fill: rgb(47,126,216); font-family: Lucida Sans; font-size: 11px; " text-rendering="auto" clip-path="url(#clip-2)">tristis</text></g><g transform="matrix(1,0,0,1,0,0)"><text x="159.23" y="365.91" style="fill: rgb(47,126,216); font-family: Lucida Sans; font-size: 11px; " text-rendering="auto" clip-path="url(#clip-2)">miseror</text></g><g transform="matrix(1,0,0,1,0,0)"><text x="151.23" y="365.91" style="fill: rgb(47,126,216); font-family: Lucida Sans; font-size: 11px; " text-rendering="auto" clip-path="url(#clip-2)">miseritudo</text></g><g style="fill: rgb(0,0,0);fill-opacity: 0; stroke: none" transform="matrix(1,0,0,1,0,0)" clip-path="url(#clip-2)"><path d="M 434.17 290.14 L 434.17 295.94 C 434.17 297.32 435.29 298.44 436.67 298.44 L 478.67 298.44 C 480.05 298.44 481.17 297.32 481.17 295.94 L 481.17 290.14 C 481.17 288.76 480.05 287.64 478.67 287.64 L 436.67 287.64 C 435.29 287.64 434.17 288.76 434.17 290.14 M 434.17 290.14"/></g><g style="stroke-width: 1.0;stroke: rgb(0,0,0);stroke-opacity: 0; fill: none" transform="matrix(1,0,0,1,0,0)" clip-path="url(#clip-2)"><path d="M 434.17 290.14 L 434.17 295.94 C 434.17 297.32 435.29 298.44 436.67 298.44 L 478.67 298.44 C 480.05 298.44 481.17 297.32 481.17 295.94 L 481.17 290.14 C 481.17 288.76 480.05 287.64 478.67 287.64 L 436.67 287.64 C 435.29 287.64 434.17 288.76 434.17 290.14 M 434.17 290.14"/></g><g transform="matrix(1,0,0,1,0,0)"><text x="433.67" y="298.69" style="fill: rgb(47,126,216); font-family: Lucida Sans; font-size: 11px; " text-rendering="auto" clip-path="url(#clip-2)">misereor</text></g><g style="fill: rgb(0,0,0);fill-opacity: 0; stroke: none" transform="matrix(1,0,0,1,0,0)" clip-path="url(#clip-2)"><path d="M 203.71 115.46 L 203.71 121.26 C 203.71 122.64 204.83 123.76 206.21 123.76 L 243.71 123.76 C 245.09 123.76 246.21 122.64 246.21 121.26 L 246.21 115.46 C 246.21 114.08 245.09 112.96 243.71 112.96 L 206.21 112.96 C 204.83 112.96 203.71 114.08 203.71 115.46 M 203.71 115.46"/></g><g style="stroke-width: 1.0;stroke: rgb(0,0,0);stroke-opacity: 0; fill: none" transform="matrix(1,0,0,1,0,0)" clip-path="url(#clip-2)"><path d="M 203.71 115.46 L 203.71 121.26 C 203.71 122.64 204.83 123.76 206.21 123.76 L 243.71 123.76 C 245.09 123.76 246.21 122.64 246.21 121.26 L 246.21 115.46 C 246.21 114.08 245.09 112.96 243.71 112.96 L 206.21 112.96 C 204.83 112.96 203.71 114.08 203.71 115.46 M 203.71 115.46"/></g><g transform="matrix(1,0,0,1,0,0)"><text x="203.46" y="124.02" style="fill: rgb(47,126,216); font-family: Lucida Sans; font-size: 11px; " text-rendering="auto" clip-path="url(#clip-2)">misereo</text></g><g style="fill: rgb(0,0,0);fill-opacity: 0; stroke: none" transform="matrix(1,0,0,1,0,0)" clip-path="url(#clip-2)"><path d="M 716.86 222.92 L 716.86 228.72 C 716.86 230.1 717.98 231.22 719.36 231.22 L 750.86 231.22 C 752.24 231.22 753.36 230.1 753.36 228.72 L 753.36 222.92 C 753.36 221.54 752.24 220.42 750.86 220.42 L 719.36 220.42 C 717.98 220.42 716.86 221.54 716.86 222.92 M 716.86 222.92"/></g><g style="stroke-width: 1.0;stroke: rgb(0,0,0);stroke-opacity: 0; fill: none" transform="matrix(1,0,0,1,0,0)" clip-path="url(#clip-2)"><path d="M 716.86 222.92 L 716.86 228.72 C 716.86 230.1 717.98 231.22 719.36 231.22 L 750.86 231.22 C 752.24 231.22 753.36 230.1 753.36 228.72 L 753.36 222.92 C 753.36 221.54 752.24 220.42 750.86 220.42 L 719.36 220.42 C 717.98 220.42 716.86 221.54 716.86 222.92 M 716.86 222.92"/></g><g transform="matrix(1,0,0,1,0,0)"><text x="716.61" y="231.47" style="fill: rgb(47,126,216); font-family: Lucida Sans; font-size: 11px; " text-rendering="auto" clip-path="url(#clip-2)">cupido</text></g><g style="fill: rgb(0,0,0);fill-opacity: 0; stroke: none" transform="matrix(1,0,0,1,0,0)" clip-path="url(#clip-2)"><path d="M 345.94 312.54 L 345.94 318.34 C 345.94 319.72 347.06 320.84 348.44 320.84 L 381.94 320.84 C 383.32 320.84 384.44 319.72 384.44 318.34 L 384.44 312.54 C 384.44 311.16 383.32 310.04 381.94 310.04 L 348.44 310.04 C 347.06 310.04 345.94 311.16 345.94 312.54 M 345.94 312.54"/></g><g style="stroke-width: 1.0;stroke: rgb(0,0,0);stroke-opacity: 0; fill: none" transform="matrix(1,0,0,1,0,0)" clip-path="url(#clip-2)"><path d="M 345.94 312.54 L 345.94 318.34 C 345.94 319.72 347.06 320.84 348.44 320.84 L 381.94 320.84 C 383.32 320.84 384.44 319.72 384.44 318.34 L 384.44 312.54 C 384.44 311.16 383.32 310.04 381.94 310.04 L 348.44 310.04 C 347.06 310.04 345.94 311.16 345.94 312.54 M 345.94 312.54"/></g><g transform="matrix(1,0,0,1,0,0)"><text x="345.69" y="321.1" style="fill: rgb(47,126,216); font-family: Lucida Sans; font-size: 11px; " text-rendering="auto" clip-path="url(#clip-2)">miseria</text></g><g style="fill: rgb(0,0,0);fill-opacity: 0; stroke: none" transform="matrix(1,0,0,1,0,0)" clip-path="url(#clip-2)"><path d="M 325.56 202.8 L 325.56 208.6 C 325.56 209.98 326.68 211.1 328.06 211.1 L 354.56 211.1 C 355.95 211.1 357.06 209.98 357.06 208.6 L 357.06 202.8 C 357.06 201.42 355.95 200.3 354.56 200.3 L 328.06 200.3 C 326.68 200.3 325.56 201.42 325.56 202.8 M 325.56 202.8"/></g><g style="stroke-width: 1.0;stroke: rgb(0,0,0);stroke-opacity: 0; fill: none" transform="matrix(1,0,0,1,0,0)" clip-path="url(#clip-2)"><path d="M 325.56 202.8 L 325.56 208.6 C 325.56 209.98 326.68 211.1 328.06 211.1 L 354.56 211.1 C 355.95 211.1 357.06 209.98 357.06 208.6 L 357.06 202.8 C 357.06 201.42 355.95 200.3 354.56 200.3 L 328.06 200.3 C 326.68 200.3 325.56 201.42 325.56 202.8 M 325.56 202.8"/></g><g transform="matrix(1,0,0,1,0,0)"><text x="325.31" y="211.35" style="fill: rgb(47,126,216); font-family: Lucida Sans; font-size: 11px; " text-rendering="auto" clip-path="url(#clip-2)">pauor</text></g><g style="fill: rgb(0,0,0);fill-opacity: 0; stroke: none" transform="matrix(1,0,0,1,0,0)" clip-path="url(#clip-2)"><path d="M 466.04 169.19 L 466.04 174.99 C 466.04 176.37 467.16 177.49 468.54 177.49 L 491.54 177.49 C 492.92 177.49 494.04 176.37 494.04 174.99 L 494.04 169.19 C 494.04 167.81 492.92 166.69 491.54 166.69 L 468.54 166.69 C 467.16 166.69 466.04 167.81 466.04 169.19 M 466.04 169.19"/></g><g style="stroke-width: 1.0;stroke: rgb(0,0,0);stroke-opacity: 0; fill: none" transform="matrix(1,0,0,1,0,0)" clip-path="url(#clip-2)"><path d="M 466.04 169.19 L 466.04 174.99 C 466.04 176.37 467.16 177.49 468.54 177.49 L 491.54 177.49 C 492.92 177.49 494.04 176.37 494.04 174.99 L 494.04 169.19 C 494.04 167.81 492.92 166.69 491.54 166.69 L 468.54 166.69 C 467.16 166.69 466.04 167.81 466.04 169.19 M 466.04 169.19"/></g><g transform="matrix(1,0,0,1,0,0)"><text x="466.04" y="177.74" style="fill: rgb(47,126,216); font-family: Lucida Sans; font-size: 11px; " text-rendering="auto" clip-path="url(#clip-2)">amor</text></g><g style="fill: rgb(0,0,0);fill-opacity: 0; stroke: none" transform="matrix(1,0,0,1,0,0)" clip-path="url(#clip-2)"><path d="M 382.93 303.58 L 382.93 309.38 C 382.93 310.76 384.05 311.88 385.43 311.88 L 418.93 311.88 C 420.31 311.88 421.43 310.76 421.43 309.38 L 421.43 303.58 C 421.43 302.2 420.31 301.08 418.93 301.08 L 385.43 301.08 C 384.05 301.08 382.93 302.2 382.93 303.58 M 382.93 303.58"/></g><g style="stroke-width: 1.0;stroke: rgb(0,0,0);stroke-opacity: 0; fill: none" transform="matrix(1,0,0,1,0,0)" clip-path="url(#clip-2)"><path d="M 382.93 303.58 L 382.93 309.38 C 382.93 310.76 384.05 311.88 385.43 311.88 L 418.93 311.88 C 420.31 311.88 421.43 310.76 421.43 309.38 L 421.43 303.58 C 421.43 302.2 420.31 301.08 418.93 301.08 L 385.43 301.08 C 384.05 301.08 382.93 302.2 382.93 303.58 M 382.93 303.58"/></g><g transform="matrix(1,0,0,1,0,0)"><text x="382.68" y="312.13" style="fill: rgb(47,126,216); font-family: Lucida Sans; font-size: 11px; " text-rendering="auto" clip-path="url(#clip-2)">lacrima</text></g><g style="fill: rgb(0,0,0);fill-opacity: 0; stroke: none" transform="matrix(1,0,0,1,0,0)" clip-path="url(#clip-2)"><path d="M 368.61 111.61 L 368.61 117.41 C 368.61 118.79 369.73 119.91 371.11 119.91 L 383.11 119.91 C 384.49 119.91 385.61 118.79 385.61 117.41 L 385.61 111.61 C 385.61 110.23 384.49 109.11 383.11 109.11 L 371.11 109.11 C 369.73 109.11 368.61 110.23 368.61 111.61 M 368.61 111.61"/></g><g style="stroke-width: 1.0;stroke: rgb(0,0,0);stroke-opacity: 0; fill: none" transform="matrix(1,0,0,1,0,0)" clip-path="url(#clip-2)"><path d="M 368.61 111.61 L 368.61 117.41 C 368.61 118.79 369.73 119.91 371.11 119.91 L 383.11 119.91 C 384.49 119.91 385.61 118.79 385.61 117.41 L 385.61 111.61 C 385.61 110.23 384.49 109.11 383.11 109.11 L 371.11 109.11 C 369.73 109.11 368.61 110.23 368.61 111.61 M 368.61 111.61"/></g><g transform="matrix(1,0,0,1,0,0)"><text x="368.11" y="120.16" style="fill: rgb(47,126,216); font-family: Lucida Sans; font-size: 11px; " text-rendering="auto" clip-path="url(#clip-2)">cor</text></g><g style="fill: rgb(0,0,0);fill-opacity: 0; stroke: none" transform="matrix(1,0,0,1,0,0)" clip-path="url(#clip-2)"><path d="M 372.81 191.6 L 372.81 197.4 C 372.81 198.78 373.92 199.9 375.31 199.9 L 399.81 199.9 C 401.19 199.9 402.31 198.78 402.31 197.4 L 402.31 191.6 C 402.31 190.22 401.19 189.1 399.81 189.1 L 375.31 189.1 C 373.92 189.1 372.81 190.22 372.81 191.6 M 372.81 191.6"/></g><g style="stroke-width: 1.0;stroke: rgb(0,0,0);stroke-opacity: 0; fill: none" transform="matrix(1,0,0,1,0,0)" clip-path="url(#clip-2)"><path d="M 372.81 191.6 L 372.81 197.4 C 372.81 198.78 373.92 199.9 375.31 199.9 L 399.81 199.9 C 401.19 199.9 402.31 198.78 402.31 197.4 L 402.31 191.6 C 402.31 190.22 401.19 189.1 399.81 189.1 L 375.31 189.1 C 373.92 189.1 372.81 190.22 372.81 191.6 M 372.81 191.6"/></g><g transform="matrix(1,0,0,1,0,0)"><text x="372.56" y="200.15" style="fill: rgb(47,126,216); font-family: Lucida Sans; font-size: 11px; " text-rendering="auto" clip-path="url(#clip-2)">miser</text></g><g style="fill: rgb(0,0,0);fill-opacity: 0; stroke: none" transform="matrix(1,0,0,1,0,0)" clip-path="url(#clip-2)"><path d="M 403.61 125.52 L 403.61 131.32 C 403.61 132.7 404.73 133.82 406.11 133.82 L 437.61 133.82 C 438.99 133.82 440.11 132.7 440.11 131.32 L 440.11 125.52 C 440.11 124.14 438.99 123.02 437.61 123.02 L 406.11 123.02 C 404.73 123.02 403.61 124.14 403.61 125.52 M 403.61 125.52"/></g><g style="stroke-width: 1.0;stroke: rgb(0,0,0);stroke-opacity: 0; fill: none" transform="matrix(1,0,0,1,0,0)" clip-path="url(#clip-2)"><path d="M 403.61 125.52 L 403.61 131.32 C 403.61 132.7 404.73 133.82 406.11 133.82 L 437.61 133.82 C 438.99 133.82 440.11 132.7 440.11 131.32 L 440.11 125.52 C 440.11 124.14 438.99 123.02 437.61 123.02 L 406.11 123.02 C 404.73 123.02 403.61 124.14 403.61 125.52 M 403.61 125.52"/></g><g transform="matrix(1,0,0,1,0,0)"><text x="402.86" y="134.07" style="fill: rgb(47,126,216); font-family: Lucida Sans; font-size: 11px; " text-rendering="auto" clip-path="url(#clip-2)">corpus</text></g><g style="fill: rgb(0,0,0);fill-opacity: 0; stroke: none" transform="matrix(1,0,0,1,0,0)" clip-path="url(#clip-2)"><path d="M 302.76 144.06 L 302.76 149.86 C 302.76 151.24 303.88 152.36 305.26 152.36 L 339.26 152.36 C 340.64 152.36 341.76 151.24 341.76 149.86 L 341.76 144.06 C 341.76 142.68 340.64 141.56 339.26 141.56 L 305.26 141.56 C 303.88 141.56 302.76 142.68 302.76 144.06 M 302.76 144.06"/></g><g style="stroke-width: 1.0;stroke: rgb(0,0,0);stroke-opacity: 0; fill: none" transform="matrix(1,0,0,1,0,0)" clip-path="url(#clip-2)"><path d="M 302.76 144.06 L 302.76 149.86 C 302.76 151.24 303.88 152.36 305.26 152.36 L 339.26 152.36 C 340.64 152.36 341.76 151.24 341.76 149.86 L 341.76 144.06 C 341.76 142.68 340.64 141.56 339.26 141.56 L 305.26 141.56 C 303.88 141.56 302.76 142.68 302.76 144.06 M 302.76 144.06"/></g><g transform="matrix(1,0,0,1,0,0)"><text x="302.76" y="152.62" style="fill: rgb(47,126,216); font-family: Lucida Sans; font-size: 11px; " text-rendering="auto" clip-path="url(#clip-2)">animus</text></g><line x1="175.45" y1="351" x2="175.45" y2="42" style="stroke-width: 0.5;stroke: rgb(128,128,128);stroke-opacity: 1;stroke-dasharray: 2.0;" transform="matrix(1,0,0,1,0,0)" clip-path="url(#clip-2)"/><line x1="739.89" y1="351" x2="739.89" y2="42" style="stroke-width: 0.5;stroke: rgb(128,128,128);stroke-opacity: 1;stroke-dasharray: 2.0;" transform="matrix(1,0,0,1,0,0)" clip-path="url(#clip-2)"/></svg>
