<!DOCTYPE svg PUBLIC "-//W3C//DTD SVG 1.1//EN" "http://www.w3.org/Graphics/SVG/1.1/DTD/svg11.dtd">
<svg style="stroke-linecap:square;" xmlns="http://www.w3.org/2000/svg" xmlns:xlink="http://www.w3.org/1999/xlink" width="1141" height="406">
<defs><clipPath id="clip-0"><path d="M 0 0 L 1141 0 L 1141 406 L 0 406 L 0 0 M 0 0"/></clipPath>
<clipPath id="clip-1"><path d="M 543.79 102.21 L 543.79 1243.21 L 137.79 1243.21 L 137.79 102.21 L 543.79 102.21 M 543.79 102.21"/></clipPath>
<clipPath id="clip-2"><path d="M 720.88 -74.88 L 720.88 1066.12 L 314.88 1066.12 L 314.88 -74.88 L 720.88 -74.88 M 720.88 -74.88"/></clipPath>
<clipPath id="clip-3"><path d="M 897.97 -251.97 L 897.97 889.03 L 491.97 889.03 L 491.97 -251.97 L 897.97 -251.97 M 897.97 -251.97"/></clipPath>
<clipPath id="clip-4"><path d="M 1075.06 -429.06 L 1075.06 711.94 L 669.06 711.94 L 669.06 -429.06 L 1075.06 -429.06 M 1075.06 -429.06"/></clipPath>
<clipPath id="clip-5"><path d="M 1252.15 -606.15 L 1252.15 534.85 L 846.15 534.85 L 846.15 -606.15 L 1252.15 -606.15 M 1252.15 -606.15"/></clipPath>
<clipPath id="clip-6"><path d="M 199 154 L 199 1295 L -207 1295 L -207 154 L 199 154 M 199 154"/></clipPath>
<clipPath id="clip-7"><path d="M 67 42 L 67 311 L 1041 311 L 1041 42 M 67 42"/></clipPath>
</defs>
<rect x="0" y="0" width="1141" height="406" style="fill: rgb(255,255,255);fill-opacity: 1" transform="matrix(1,0,0,1,0,0)" clip-path="url(#clip-0)"/><g transform="matrix(1,0,0,1,0,0)"><text x="488.5" y="26.24" style="fill: rgb(75,75,109); font-family: Lucida Sans; font-size: 16px; font-weight: bold; " text-rendering="auto" clip-path="url(#clip-0)">Usage de l&apos;impératif</text></g><rect x="1061" y="199" width="70" height="40" style="fill: rgb(255,255,255);fill-opacity: 1" transform="matrix(1,0,0,1,0,0)" clip-path="url(#clip-0)"/><g style="stroke-width: 1.0;stroke: rgb(192,192,192);stroke-opacity: 1; fill: none" transform="matrix(1,0,0,1,0,0)" clip-path="url(#clip-0)"><path d="M 1061 204 L 1061 234 C 1061 236.76 1063.24 239 1066 239 L 1126 239 C 1128.76 239 1131 236.76 1131 234 L 1131 204 C 1131 201.24 1128.76 199 1126 199 L 1066 199 C 1063.24 199 1061 201.24 1061 204 M 1061 204"/></g><g style="fill: rgb(255,0,0);fill-opacity: 1; stroke: none" transform="matrix(1,0,0,1,0,0)" clip-path="url(#clip-0)"><path d="M 1065 205 L 1071 205 L 1071 215 L 1065 215 L 1065 205 M 1065 205"/></g><g transform="matrix(1,0,0,1,0,0)"><text x="1075" y="213.48" style="fill: rgb(39,75,109); font-family: Lucida Sans; font-size: 11px; font-weight: bold; " text-rendering="auto" clip-path="url(#clip-0)">Imperatif</text></g><g style="fill: rgb(0,0,255);fill-opacity: 1; stroke: none" transform="matrix(1,0,0,1,0,0)" clip-path="url(#clip-0)"><path d="M 1065 223 L 1071 223 L 1071 233 L 1065 233 L 1065 223 M 1065 223"/></g><g transform="matrix(1,0,0,1,0,0)"><text x="1075" y="231.48" style="fill: rgb(39,75,109); font-family: Lucida Sans; font-size: 11px; font-weight: bold; " text-rendering="auto" clip-path="url(#clip-0)">VER</text></g><rect x="67" y="42" width="974" height="269" style="fill: rgb(255,255,255);fill-opacity: 1" transform="matrix(1,0,0,1,0,0)" clip-path="url(#clip-0)"/><line x1="67" y1="311" x2="1041" y2="311" style="stroke-width: 0.5;stroke: rgb(192,208,224);stroke-opacity: 1;" transform="matrix(1,0,0,1,0,0)" clip-path="url(#clip-0)"/><g style="fill: rgb(102,102,102);fill-opacity: 1; stroke: none" transform="matrix(0,-1,1,0,-102.21373,543.78627)" clip-path="url(#clip-1)"><path d="M 183.91 327.68 L 187.01 319.73 L 188.66 319.73 L 191.76 327.68 L 190.05 327.68 L 189.22 325.55 L 185.94 325.55 L 185.11 327.68 L 183.91 327.68 M 183.91 327.68 M 186.35 324.49 L 188.82 324.49 L 187.58 321.34 L 186.35 324.49 M 186.35 324.49 M 197.13 327.55 Q 196.15 327.82 195.3 327.82 Q 193.88 327.82 193.07 326.98 Q 192.26 326.15 192.26 324.73 Q 192.26 323.27 193.1 322.46 Q 193.94 321.65 195.43 321.65 Q 196.15 321.65 197.08 321.88 L 197.08 323.02 Q 196.1 322.71 195.52 322.71 Q 194.8 322.71 194.37 323.26 Q 193.94 323.8 193.94 324.71 Q 193.94 325.65 194.41 326.2 Q 194.88 326.76 195.66 326.76 Q 196.38 326.76 197.13 326.45 L 197.13 327.55 M 197.13 327.55 M 203.13 327.55 Q 202.15 327.82 201.3 327.82 Q 199.88 327.82 199.07 326.98 Q 198.26 326.15 198.26 324.73 Q 198.26 323.27 199.1 322.46 Q 199.94 321.65 201.43 321.65 Q 202.15 321.65 203.08 321.88 L 203.08 323.02 Q 202.1 322.71 201.52 322.71 Q 200.8 322.71 200.37 323.26 Q 199.94 323.8 199.94 324.71 Q 199.94 325.65 200.41 326.2 Q 200.88 326.76 201.66 326.76 Q 202.38 326.76 203.13 326.45 L 203.13 327.55 M 203.13 327.55 M 204.79 327.68 L 204.79 321.79 L 206.36 321.79 L 206.36 327.68 L 204.79 327.68 M 204.79 327.68 M 204.79 320.79 L 204.79 319.46 L 206.36 319.46 L 206.36 320.79 L 204.79 320.79 M 204.79 320.79 M 212.43 327.68 L 212.43 326.57 Q 211.66 327.82 210.41 327.82 Q 209.63 327.82 209.17 327.32 Q 208.71 326.82 208.71 325.95 L 208.71 321.79 L 210.3 321.79 L 210.3 325.55 Q 210.3 326.55 210.97 326.55 Q 211.72 326.55 212.43 325.49 L 212.43 321.79 L 214.02 321.79 L 214.02 327.68 L 212.43 327.68 M 212.43 327.68 M 215.63 327.49 L 215.63 326.32 Q 216.8 326.82 217.65 326.82 Q 218.61 326.82 218.61 326.15 Q 218.61 325.73 217.82 325.4 L 217.29 325.18 Q 216.4 324.84 216.02 324.43 Q 215.65 324.02 215.65 323.41 Q 215.65 322.57 216.29 322.11 Q 216.93 321.65 218.08 321.65 Q 218.8 321.65 219.79 321.85 L 219.79 322.98 Q 218.83 322.65 218.21 322.65 Q 217.22 322.65 217.22 323.26 Q 217.22 323.66 217.94 323.93 L 218.41 324.12 Q 219.44 324.51 219.85 324.91 Q 220.26 325.3 220.26 325.95 Q 220.26 326.77 219.57 327.3 Q 218.88 327.82 217.77 327.82 Q 216.71 327.82 215.63 327.49 M 215.63 327.49"/></g><line x1="309.33" y1="316" x2="309.33" y2="311" style="stroke-width: 0.5;stroke: rgb(192,208,224);stroke-opacity: 1;" transform="matrix(1,0,0,1,0,0)" clip-path="url(#clip-0)"/><line x1="132.24" y1="316" x2="132.24" y2="311" style="stroke-width: 0.5;stroke: rgb(192,208,224);stroke-opacity: 1;" transform="matrix(1,0,0,1,0,0)" clip-path="url(#clip-0)"/><g style="fill: rgb(102,102,102);fill-opacity: 1; stroke: none" transform="matrix(0,-1,1,0,74.877167,720.877167)" clip-path="url(#clip-2)"><path d="M 360.88 327.68 L 360.88 319.73 L 365.85 319.73 L 365.85 320.82 L 362.52 320.82 L 362.52 323.04 L 365.24 323.04 L 365.24 324.1 L 362.52 324.1 L 362.52 326.55 L 366.1 326.55 L 366.1 327.68 L 360.88 327.68 M 360.88 327.68 M 367.88 327.68 L 367.88 321.79 L 369.46 321.79 L 369.46 322.9 Q 370.24 321.65 371.47 321.65 Q 372.25 321.65 372.71 322.15 Q 373.17 322.65 373.17 323.51 L 373.17 327.68 L 371.58 327.68 L 371.58 323.9 Q 371.58 322.9 370.92 322.9 Q 370.16 322.9 369.46 323.96 L 369.46 327.68 L 367.88 327.68 M 367.88 327.68 M 374.88 327.68 L 374.88 321.79 L 376.46 321.79 L 376.46 322.9 Q 377.24 321.65 378.47 321.65 Q 379.25 321.65 379.71 322.15 Q 380.17 322.65 380.17 323.51 L 380.17 327.68 L 378.58 327.68 L 378.58 323.9 Q 378.58 322.9 377.92 322.9 Q 377.16 322.9 376.46 323.96 L 376.46 327.68 L 374.88 327.68 M 374.88 327.68 M 381.88 327.68 L 381.88 321.79 L 383.46 321.79 L 383.46 327.68 L 381.88 327.68 M 381.88 327.68 M 381.88 320.79 L 381.88 319.46 L 383.46 319.46 L 383.46 320.79 L 381.88 320.79 M 381.88 320.79 M 389.52 327.68 L 389.52 326.57 Q 388.75 327.82 387.5 327.82 Q 386.72 327.82 386.26 327.32 Q 385.8 326.82 385.8 325.95 L 385.8 321.79 L 387.39 321.79 L 387.39 325.55 Q 387.39 326.55 388.06 326.55 Q 388.81 326.55 389.52 325.49 L 389.52 321.79 L 391.11 321.79 L 391.11 327.68 L 389.52 327.68 M 389.52 327.68 M 392.72 327.49 L 392.72 326.32 Q 393.89 326.82 394.74 326.82 Q 395.71 326.82 395.71 326.15 Q 395.71 325.73 394.91 325.4 L 394.38 325.18 Q 393.49 324.84 393.11 324.43 Q 392.74 324.02 392.74 323.41 Q 392.74 322.57 393.38 322.11 Q 394.02 321.65 395.17 321.65 Q 395.89 321.65 396.88 321.85 L 396.88 322.98 Q 395.92 322.65 395.3 322.65 Q 394.31 322.65 394.31 323.26 Q 394.31 323.66 395.03 323.93 L 395.5 324.12 Q 396.53 324.51 396.94 324.91 Q 397.35 325.3 397.35 325.95 Q 397.35 326.77 396.66 327.3 Q 395.97 327.82 394.86 327.82 Q 393.8 327.82 392.72 327.49 M 392.72 327.49"/></g><line x1="486.42" y1="316" x2="486.42" y2="311" style="stroke-width: 0.5;stroke: rgb(192,208,224);stroke-opacity: 1;" transform="matrix(1,0,0,1,0,0)" clip-path="url(#clip-0)"/><g style="fill: rgb(102,102,102);fill-opacity: 1; stroke: none" transform="matrix(0,-1,1,0,251.968079,897.968079)" clip-path="url(#clip-3)"><path d="M 541.97 327.68 L 541.97 319.73 L 543.61 319.73 L 543.61 326.55 L 547.2 326.55 L 547.2 327.68 L 541.97 327.68 M 541.97 327.68 M 547.97 327.68 L 547.97 321.79 L 549.55 321.79 L 549.55 327.68 L 547.97 327.68 M 547.97 327.68 M 547.97 320.79 L 547.97 319.46 L 549.55 319.46 L 549.55 320.79 L 547.97 320.79 M 547.97 320.79 M 553.42 327.68 L 551.17 321.79 L 552.84 321.79 L 554.5 326.04 L 556.12 321.79 L 557.28 321.79 L 555.01 327.68 L 553.42 327.68 M 553.42 327.68 M 558.97 327.68 L 558.97 321.79 L 560.55 321.79 L 560.55 327.68 L 558.97 327.68 M 558.97 327.68 M 558.97 320.79 L 558.97 319.46 L 560.55 319.46 L 560.55 320.79 L 558.97 320.79 M 558.97 320.79 M 566.61 327.68 L 566.61 326.57 Q 565.84 327.82 564.59 327.82 Q 563.81 327.82 563.35 327.32 Q 562.89 326.82 562.89 325.95 L 562.89 321.79 L 564.48 321.79 L 564.48 325.55 Q 564.48 326.55 565.16 326.55 Q 565.91 326.55 566.61 325.49 L 566.61 321.79 L 568.2 321.79 L 568.2 327.68 L 566.61 327.68 M 566.61 327.68 M 569.81 327.49 L 569.81 326.32 Q 570.98 326.82 571.83 326.82 Q 572.8 326.82 572.8 326.15 Q 572.8 325.73 572 325.4 L 571.47 325.18 Q 570.58 324.84 570.2 324.43 Q 569.83 324.02 569.83 323.41 Q 569.83 322.57 570.47 322.11 Q 571.11 321.65 572.26 321.65 Q 572.98 321.65 573.97 321.85 L 573.97 322.98 Q 573.01 322.65 572.39 322.65 Q 571.41 322.65 571.41 323.26 Q 571.41 323.66 572.12 323.93 L 572.59 324.12 Q 573.62 324.51 574.03 324.91 Q 574.44 325.3 574.44 325.95 Q 574.44 326.77 573.75 327.3 Q 573.06 327.82 571.95 327.82 Q 570.89 327.82 569.81 327.49 M 569.81 327.49"/></g><line x1="663.51" y1="316" x2="663.51" y2="311" style="stroke-width: 0.5;stroke: rgb(192,208,224);stroke-opacity: 1;" transform="matrix(1,0,0,1,0,0)" clip-path="url(#clip-0)"/><g style="fill: rgb(102,102,102);fill-opacity: 1; stroke: none" transform="matrix(0,-1,1,0,429.059021,1075.059021)" clip-path="url(#clip-4)"><path d="M 709.06 327.68 L 709.06 319.73 L 710.51 319.73 L 714.2 325.16 L 714.2 319.73 L 715.51 319.73 L 715.51 327.68 L 714.04 327.68 L 710.39 322.24 L 710.39 327.68 L 709.06 327.68 M 709.06 327.68 M 719.95 327.04 Q 719.15 327.82 718.25 327.82 Q 717.47 327.82 716.98 327.34 Q 716.5 326.87 716.5 326.12 Q 716.5 325.13 717.28 324.61 Q 718.06 324.09 719.51 324.09 L 719.95 324.09 L 719.95 323.54 Q 719.95 322.63 718.9 322.63 Q 717.97 322.63 717.01 323.15 L 717.01 322.05 Q 718.09 321.65 719.15 321.65 Q 721.47 321.65 721.47 323.49 L 721.47 326.1 Q 721.47 326.79 721.92 326.79 Q 722 326.79 722.12 326.77 L 722.17 327.66 Q 721.65 327.82 721.26 327.82 Q 720.29 327.82 720.01 327.04 L 719.95 327.04 M 719.95 327.04 M 719.95 326.2 L 719.95 324.99 L 719.56 324.99 Q 718.03 324.99 718.03 325.96 Q 718.03 326.29 718.25 326.51 Q 718.47 326.73 718.79 326.73 Q 719.36 326.73 719.95 326.2 M 719.95 326.2 M 727.86 327.48 Q 726.72 327.82 725.7 327.82 Q 724.23 327.82 723.38 326.98 Q 722.53 326.13 722.53 324.7 Q 722.53 323.32 723.31 322.48 Q 724.09 321.65 725.37 321.65 Q 726.67 321.65 727.26 322.46 Q 727.86 323.27 727.86 325.05 L 724.2 325.05 Q 724.36 326.73 726.04 326.73 Q 726.86 326.73 727.86 326.37 L 727.86 327.48 M 727.86 327.48 M 724.17 324.15 L 726.29 324.15 Q 726.29 322.65 725.32 322.65 Q 724.32 322.65 724.17 324.15 M 724.17 324.15 M 730.51 327.68 L 728.26 321.79 L 729.93 321.79 L 731.59 326.04 L 733.22 321.79 L 734.37 321.79 L 732.11 327.68 L 730.51 327.68 M 730.51 327.68 M 736.06 327.68 L 736.06 321.79 L 737.64 321.79 L 737.64 327.68 L 736.06 327.68 M 736.06 327.68 M 736.06 320.79 L 736.06 319.46 L 737.64 319.46 L 737.64 320.79 L 736.06 320.79 M 736.06 320.79 M 743.7 327.68 L 743.7 326.57 Q 742.93 327.82 741.68 327.82 Q 740.9 327.82 740.44 327.32 Q 739.98 326.82 739.98 325.95 L 739.98 321.79 L 741.57 321.79 L 741.57 325.55 Q 741.57 326.55 742.25 326.55 Q 743 326.55 743.7 325.49 L 743.7 321.79 L 745.29 321.79 L 745.29 327.68 L 743.7 327.68 M 743.7 327.68 M 746.9 327.49 L 746.9 326.32 Q 748.07 326.82 748.92 326.82 Q 749.89 326.82 749.89 326.15 Q 749.89 325.73 749.09 325.4 L 748.56 325.18 Q 747.67 324.84 747.29 324.43 Q 746.92 324.02 746.92 323.41 Q 746.92 322.57 747.56 322.11 Q 748.2 321.65 749.36 321.65 Q 750.07 321.65 751.06 321.85 L 751.06 322.98 Q 750.11 322.65 749.48 322.65 Q 748.5 322.65 748.5 323.26 Q 748.5 323.66 749.22 323.93 L 749.68 324.12 Q 750.72 324.51 751.12 324.91 Q 751.53 325.3 751.53 325.95 Q 751.53 326.77 750.84 327.3 Q 750.15 327.82 749.04 327.82 Q 747.98 327.82 746.9 327.49 M 746.9 327.49"/></g><line x1="840.6" y1="316" x2="840.6" y2="311" style="stroke-width: 0.5;stroke: rgb(192,208,224);stroke-opacity: 1;" transform="matrix(1,0,0,1,0,0)" clip-path="url(#clip-0)"/><g style="fill: rgb(102,102,102);fill-opacity: 1; stroke: none" transform="matrix(0,-1,1,0,606.149902,1252.149902)" clip-path="url(#clip-5)"><path d="M 880.15 327.68 L 880.15 319.73 L 882.92 319.73 Q 884.37 319.73 884.99 320.21 Q 885.6 320.7 885.6 321.84 Q 885.6 323.13 884.77 323.85 Q 883.95 324.57 882.45 324.57 L 881.76 324.57 L 881.76 327.68 L 880.15 327.68 M 880.15 327.68 M 881.76 323.48 L 882.09 323.48 Q 882.93 323.48 883.42 323.08 Q 883.92 322.68 883.92 322.01 Q 883.92 320.82 882.42 320.82 L 881.76 320.82 L 881.76 323.48 M 881.76 323.48 M 890.04 327.04 Q 889.24 327.82 888.34 327.82 Q 887.56 327.82 887.07 327.34 Q 886.59 326.87 886.59 326.12 Q 886.59 325.13 887.37 324.61 Q 888.15 324.09 889.6 324.09 L 890.04 324.09 L 890.04 323.54 Q 890.04 322.63 888.99 322.63 Q 888.06 322.63 887.1 323.15 L 887.1 322.05 Q 888.18 321.65 889.24 321.65 Q 891.56 321.65 891.56 323.49 L 891.56 326.1 Q 891.56 326.79 892.01 326.79 Q 892.09 326.79 892.21 326.77 L 892.26 327.66 Q 891.74 327.82 891.35 327.82 Q 890.38 327.82 890.1 327.04 L 890.04 327.04 M 890.04 327.04 M 890.04 326.2 L 890.04 324.99 L 889.65 324.99 Q 888.12 324.99 888.12 325.96 Q 888.12 326.29 888.34 326.51 Q 888.56 326.73 888.88 326.73 Q 889.45 326.73 890.04 326.2 M 890.04 326.2 M 897.49 327.55 Q 896.51 327.82 895.67 327.82 Q 894.24 327.82 893.43 326.98 Q 892.62 326.15 892.62 324.73 Q 892.62 323.27 893.46 322.46 Q 894.31 321.65 895.79 321.65 Q 896.51 321.65 897.45 321.88 L 897.45 323.02 Q 896.46 322.71 895.88 322.71 Q 895.17 322.71 894.74 323.26 Q 894.31 323.8 894.31 324.71 Q 894.31 325.65 894.77 326.2 Q 895.24 326.76 896.02 326.76 Q 896.74 326.76 897.49 326.45 L 897.49 327.55 M 897.49 327.55 M 902.79 327.68 L 902.79 326.57 Q 902.02 327.82 900.77 327.82 Q 899.99 327.82 899.53 327.32 Q 899.07 326.82 899.07 325.95 L 899.07 321.79 L 900.67 321.79 L 900.67 325.55 Q 900.67 326.55 901.34 326.55 Q 902.09 326.55 902.79 325.49 L 902.79 321.79 L 904.38 321.79 L 904.38 327.68 L 902.79 327.68 M 902.79 327.68 M 907.6 327.68 L 905.35 321.79 L 907.02 321.79 L 908.68 326.04 L 910.31 321.79 L 911.46 321.79 L 909.2 327.68 L 907.6 327.68 M 907.6 327.68 M 913.15 327.68 L 913.15 321.79 L 914.73 321.79 L 914.73 327.68 L 913.15 327.68 M 913.15 327.68 M 913.15 320.79 L 913.15 319.46 L 914.73 319.46 L 914.73 320.79 L 913.15 320.79 M 913.15 320.79 M 920.79 327.68 L 920.79 326.57 Q 920.02 327.82 918.77 327.82 Q 917.99 327.82 917.53 327.32 Q 917.07 326.82 917.07 325.95 L 917.07 321.79 L 918.67 321.79 L 918.67 325.55 Q 918.67 326.55 919.34 326.55 Q 920.09 326.55 920.79 325.49 L 920.79 321.79 L 922.38 321.79 L 922.38 327.68 L 920.79 327.68 M 920.79 327.68 M 923.99 327.49 L 923.99 326.32 Q 925.17 326.82 926.01 326.82 Q 926.98 326.82 926.98 326.15 Q 926.98 325.73 926.18 325.4 L 925.65 325.18 Q 924.76 324.84 924.38 324.43 Q 924.01 324.02 924.01 323.41 Q 924.01 322.57 924.65 322.11 Q 925.29 321.65 926.45 321.65 Q 927.17 321.65 928.15 321.85 L 928.15 322.98 Q 927.2 322.65 926.57 322.65 Q 925.59 322.65 925.59 323.26 Q 925.59 323.66 926.31 323.93 L 926.77 324.12 Q 927.81 324.51 928.21 324.91 Q 928.62 325.3 928.62 325.95 Q 928.62 326.77 927.93 327.3 Q 927.24 327.82 926.13 327.82 Q 925.07 327.82 923.99 327.49 M 923.99 327.49"/></g><line x1="1017.7" y1="316" x2="1017.7" y2="311" style="stroke-width: 0.5;stroke: rgb(192,208,224);stroke-opacity: 1;" transform="matrix(1,0,0,1,0,0)" clip-path="url(#clip-0)"/><g transform="matrix(1,0,0,1,0,0)"><text x="523.5" y="389.84" style="fill: rgb(77,117,158); font-family: Lucida Sans; font-size: 15px; font-weight: bold; " text-rendering="auto" clip-path="url(#clip-0)">Auteurs</text></g><g transform="matrix(1,0,0,1,0,0)"><text x="37" y="281.95" style="fill: rgb(102,102,102); font-family: Lucida Sans; font-size: 11px; font-weight: bold; " text-rendering="auto" clip-path="url(#clip-0)">-0.6</text></g><g transform="matrix(1,0,0,1,0,0)"><text x="37" y="252.71" style="fill: rgb(102,102,102); font-family: Lucida Sans; font-size: 11px; font-weight: bold; " text-rendering="auto" clip-path="url(#clip-0)">-0.4</text></g><g transform="matrix(1,0,0,1,0,0)"><text x="37" y="223.46" style="fill: rgb(102,102,102); font-family: Lucida Sans; font-size: 11px; font-weight: bold; " text-rendering="auto" clip-path="url(#clip-0)">-0.2</text></g><g transform="matrix(1,0,0,1,0,0)"><text x="44" y="194.22" style="fill: rgb(102,102,102); font-family: Lucida Sans; font-size: 11px; font-weight: bold; " text-rendering="auto" clip-path="url(#clip-0)">0.0</text></g><g transform="matrix(1,0,0,1,0,0)"><text x="44" y="164.97" style="fill: rgb(102,102,102); font-family: Lucida Sans; font-size: 11px; font-weight: bold; " text-rendering="auto" clip-path="url(#clip-0)">0.2</text></g><g transform="matrix(1,0,0,1,0,0)"><text x="44" y="135.73" style="fill: rgb(102,102,102); font-family: Lucida Sans; font-size: 11px; font-weight: bold; " text-rendering="auto" clip-path="url(#clip-0)">0.4</text></g><g transform="matrix(1,0,0,1,0,0)"><text x="44" y="106.48" style="fill: rgb(102,102,102); font-family: Lucida Sans; font-size: 11px; font-weight: bold; " text-rendering="auto" clip-path="url(#clip-0)">0.6</text></g><g transform="matrix(1,0,0,1,0,0)"><text x="44" y="77.24" style="fill: rgb(102,102,102); font-family: Lucida Sans; font-size: 11px; font-weight: bold; " text-rendering="auto" clip-path="url(#clip-0)">0.8</text></g><g style="fill: rgb(77,117,158);fill-opacity: 1; stroke: none" transform="matrix(0,-1,1,0,-154,199)" clip-path="url(#clip-6)"><path d="M 0.36 182.84 L 0.36 171.99 L 2.61 171.99 L 2.61 182.84 L 0.36 182.84 M 0.36 182.84 M 5.36 182.84 L 5.36 174.79 L 7.52 174.79 L 7.52 176.3 Q 8.58 174.62 10.27 174.62 Q 11.34 174.62 11.96 175.3 Q 12.58 175.98 12.58 177.15 L 12.58 182.84 L 10.42 182.84 L 10.42 177.68 Q 10.42 176.32 9.52 176.32 Q 8.47 176.32 7.52 177.77 L 7.52 182.84 L 5.36 182.84 M 5.36 182.84 M 20.42 182.84 L 20.42 181.32 Q 19.58 183.02 17.78 183.02 Q 16.34 183.02 15.52 181.96 Q 14.69 180.9 14.69 179.04 Q 14.69 177.01 15.62 175.81 Q 16.55 174.62 18.12 174.62 Q 19.39 174.62 20.42 175.6 L 20.42 171.27 L 22.59 171.27 L 22.59 182.84 L 20.42 182.84 M 20.42 182.84 M 20.42 176.9 Q 19.62 176.02 18.73 176.02 Q 17.94 176.02 17.46 176.79 Q 16.98 177.55 16.98 178.85 Q 16.98 181.32 18.58 181.32 Q 19.53 181.32 20.42 180.09 L 20.42 176.9 M 20.42 176.9 M 25.36 182.84 L 25.36 174.79 L 27.52 174.79 L 27.52 182.84 L 25.36 182.84 M 25.36 182.84 M 25.36 173.45 L 25.36 171.63 L 27.52 171.63 L 27.52 173.45 L 25.36 173.45 M 25.36 173.45 M 36.28 182.66 Q 34.94 183.02 33.8 183.02 Q 31.86 183.02 30.74 181.89 Q 29.62 180.76 29.62 178.8 Q 29.62 176.84 30.78 175.73 Q 31.94 174.62 33.95 174.62 Q 34.94 174.62 36.22 174.93 L 36.22 176.49 Q 34.89 176.05 34.09 176.05 Q 33.11 176.05 32.52 176.8 Q 31.94 177.55 31.94 178.79 Q 31.94 180.05 32.58 180.82 Q 33.22 181.59 34.28 181.59 Q 35.25 181.59 36.28 181.16 L 36.28 182.66 M 36.28 182.66 M 44.91 182.57 Q 43.36 183.02 41.97 183.02 Q 39.95 183.02 38.79 181.88 Q 37.62 180.73 37.62 178.76 Q 37.62 176.88 38.7 175.75 Q 39.77 174.62 41.52 174.62 Q 43.28 174.62 44.09 175.73 Q 44.91 176.84 44.91 179.24 L 39.92 179.24 Q 40.14 181.54 42.44 181.54 Q 43.53 181.54 44.91 181.04 L 44.91 182.57 M 44.91 182.57 M 39.89 178.02 L 42.77 178.02 Q 42.77 175.96 41.45 175.96 Q 40.09 175.96 39.89 178.02 M 39.89 178.02"/></g><line x1="67" y1="277.27" x2="1041" y2="277.27" style="stroke-width: 1.0;stroke: rgb(192,192,192);stroke-opacity: 1;" transform="matrix(1,0,0,1,0,0)" clip-path="url(#clip-7)"/><line x1="67" y1="248.03" x2="1041" y2="248.03" style="stroke-width: 1.0;stroke: rgb(192,192,192);stroke-opacity: 1;" transform="matrix(1,0,0,1,0,0)" clip-path="url(#clip-7)"/><line x1="67" y1="218.78" x2="1041" y2="218.78" style="stroke-width: 1.0;stroke: rgb(192,192,192);stroke-opacity: 1;" transform="matrix(1,0,0,1,0,0)" clip-path="url(#clip-7)"/><line x1="67" y1="160.29" x2="1041" y2="160.29" style="stroke-width: 1.0;stroke: rgb(192,192,192);stroke-opacity: 1;" transform="matrix(1,0,0,1,0,0)" clip-path="url(#clip-7)"/><line x1="67" y1="131.05" x2="1041" y2="131.05" style="stroke-width: 1.0;stroke: rgb(192,192,192);stroke-opacity: 1;" transform="matrix(1,0,0,1,0,0)" clip-path="url(#clip-7)"/><line x1="67" y1="101.8" x2="1041" y2="101.8" style="stroke-width: 1.0;stroke: rgb(192,192,192);stroke-opacity: 1;" transform="matrix(1,0,0,1,0,0)" clip-path="url(#clip-7)"/><line x1="67" y1="72.56" x2="1041" y2="72.56" style="stroke-width: 1.0;stroke: rgb(192,192,192);stroke-opacity: 1;" transform="matrix(1,0,0,1,0,0)" clip-path="url(#clip-7)"/><line x1="67" y1="189.54" x2="1041" y2="189.54" style="stroke-width: 0.5;stroke: rgb(134,145,156);stroke-opacity: 1;" transform="matrix(1,0,0,1,0,0)" clip-path="url(#clip-7)"/><rect x="220.79" y="189.54" width="61.98" height="70.33" style="fill: rgb(0,0,255);fill-opacity: 1" transform="matrix(1,0,0,1,0,0)" clip-path="url(#clip-7)"/><rect x="397.88" y="189.54" width="61.98" height="72.69" style="fill: rgb(0,0,255);fill-opacity: 1" transform="matrix(1,0,0,1,0,0)" clip-path="url(#clip-7)"/><rect x="574.97" y="70.13" width="61.98" height="119.4" style="fill: rgb(0,0,255);fill-opacity: 1" transform="matrix(1,0,0,1,0,0)" clip-path="url(#clip-7)"/><rect x="752.06" y="137.67" width="61.98" height="51.86" style="fill: rgb(0,0,255);fill-opacity: 1" transform="matrix(1,0,0,1,0,0)" clip-path="url(#clip-7)"/><rect x="929.15" y="111.56" width="61.98" height="77.98" style="fill: rgb(0,0,255);fill-opacity: 1" transform="matrix(1,0,0,1,0,0)" clip-path="url(#clip-7)"/><rect x="158.8" y="82.14" width="61.98" height="107.4" style="fill: rgb(255,0,0);fill-opacity: 1" transform="matrix(1,0,0,1,0,0)" clip-path="url(#clip-7)"/><rect x="335.9" y="189.54" width="61.98" height="39.41" style="fill: rgb(255,0,0);fill-opacity: 1" transform="matrix(1,0,0,1,0,0)" clip-path="url(#clip-7)"/><rect x="512.99" y="189.54" width="61.98" height="53.24" style="fill: rgb(255,0,0);fill-opacity: 1" transform="matrix(1,0,0,1,0,0)" clip-path="url(#clip-7)"/><rect x="690.08" y="138.13" width="61.98" height="51.41" style="fill: rgb(255,0,0);fill-opacity: 1" transform="matrix(1,0,0,1,0,0)" clip-path="url(#clip-7)"/><rect x="867.17" y="189.54" width="61.98" height="102.91" style="fill: rgb(255,0,0);fill-opacity: 1" transform="matrix(1,0,0,1,0,0)" clip-path="url(#clip-7)"/></svg>
